<svg xmlns="http://www.w3.org/2000/svg" width="389.496" height="145.214" viewBox="0 0 389.496 145.214"><path fill="#3C7ABE" d="M185.79 106.209h-19.334v-70.839h62.338v52.999h-43.004v17.84zm-.037-35.403h23.688v-18.122h-23.688v18.122zM345.123 88.306h39.025v17.916h-58.357v-70.855l58.357.005v17.308h-39.059l.034 35.626zM265.123 52.664v53.549h-19.311v-70.838h62.35v70.838h-19.352v-53.549h-23.687z"/><path fill="#99CEF0" d="M185.766 43.432h.5v9.241h-.5zM185.75 70.794h.5v9.241h-.5zM345.105 43.447h.5v9.241h-.5zM345.146 88.307h.5v9.24h-.5zM288.81 52.672h9.24v.5h-9.24zM255.882 52.672h9.24v.5h-9.24z"/><path fill="#9EA2A3" d="M38.243 35.421h-35.414l35.414 35.414z"/><path fill="#C4C7C7" d="M38.219 70.882h-35.414l35.414 35.416z"/><path fill="#CED1D1" d="M38.219 106.188h-35.414l35.414 35.416z"/><path fill="#AFB3B4" d="M38.243 35.427v35.414h35.415zM38.219 70.851v35.416h35.415z"/><path fill="#A5A9AB" d="M73.634 106.267h-35.415l35.415 35.415z"/><path fill="#C4C7C7" d="M38.219 106.188v35.416h35.415z"/><path fill="#A5A9AB" d="M109.023 35.358h-35.413l35.413 35.414z"/><path fill="#AFB3B4" d="M73.612 106.267h-.001v35.415h35.414z"/><path fill="#B9BDBD" d="M109.024 35.358v35.414h35.413z"/><path fill="#3C7ABE" d="M73.658 70.772"/><path fill="#3C7ABE" d="M109.026 106.244h35.413l-35.413-35.416-35.389-35.414h-.001l-35.415-35.414v35.414l35.415 35.414.028.028h-35.44l35.415 35.416 35.384 35.41h35.413l-35.41-35.438-.003.023.006.005zM70.863 70.578"/><path fill="#64A3D8" d="M109.535 106.734h-35.383l-.729-.707v-70.089l-.305-.33h-34.702l-.173-.187v-.313h35.092l.588.632v70.076l.431.418h34.675z"/><g fill="#7D7F80"><path d="M166.243 123.145c.382-.073.803-.131 1.263-.171.459-.041.917-.062 1.372-.062.473 0 .949.039 1.426.115.478.078.908.232 1.29.465.382.232.694.555.935.969.241.414.361.953.361 1.617 0 .602-.104 1.109-.313 1.522-.209.415-.487.753-.833 1.017-.346.265-.739.455-1.181.574-.441.118-.899.178-1.372.178h-.219l-.314-.008-.321-.02-.225-.027v3.289h-1.87v-9.458zm2.785 1.378c-.182 0-.355.006-.519.02l-.396.048v3.099l.164.027.232.021.239.007h.171c.246 0 .489-.022.73-.068.241-.045.458-.129.648-.252s.343-.294.458-.512c.113-.219.17-.506.17-.86 0-.301-.055-.548-.164-.744-.109-.196-.252-.353-.43-.472-.178-.117-.38-.199-.607-.245s-.459-.069-.696-.069zM178.119 130.488h-2.935l-.723 2.115h-1.87l3.44-9.623h1.378l3.44 9.623h-1.966l-.764-2.115zm-2.457-1.502h2.047l-.709-2.129-.287-1.502h-.068l-.287 1.516-.696 2.115zM182.896 128.372v-1.46h.628l.361-.008.362-.027.287-.047c.318-.073.591-.203.819-.39.227-.187.341-.438.341-.757 0-.438-.139-.735-.416-.895-.278-.159-.644-.239-1.099-.239-.409 0-.792.055-1.146.164s-.624.214-.805.313l-.478-1.583c.1-.055.244-.114.43-.177.187-.064.4-.125.642-.186.241-.059.502-.106.785-.143.282-.037.569-.055.86-.055.4 0 .792.037 1.174.109.382.072.723.2 1.023.382.3.183.542.426.724.73.182.306.273.694.273 1.167s-.125.91-.375 1.311-.653.691-1.208.873v.068c.591.119 1.053.373 1.386.765.332.392.498.915.498 1.569 0 .52-.104.963-.314 1.332-.209.367-.484.67-.826.907s-.735.411-1.181.525c-.446.114-.901.171-1.365.171-.601 0-1.146-.051-1.638-.15-.491-.1-.869-.219-1.133-.355l.478-1.624c.209.101.509.202.901.308.391.104.855.156 1.392.156.2 0 .403-.024.607-.074.205-.051.389-.133.553-.246.164-.113.296-.262.396-.443s.15-.4.15-.656c0-.427-.159-.75-.478-.969-.319-.219-.887-.336-1.706-.354l-.246-.014h-.6559999999999999zM189.666 123.145c.382-.073.803-.131 1.263-.171.459-.041.917-.062 1.372-.062.473 0 .949.039 1.426.115.478.078.908.232 1.29.465.382.232.694.555.935.969.241.414.361.953.361 1.617 0 .602-.104 1.109-.313 1.522-.209.415-.487.753-.833 1.017-.346.265-.739.455-1.181.574-.441.118-.899.178-1.372.178h-.219l-.314-.008-.321-.02-.225-.027v3.289h-1.87v-9.458zm2.785 1.378c-.182 0-.355.006-.519.02l-.396.048v3.099l.164.027.232.021.239.007h.171c.246 0 .489-.022.73-.068.241-.045.458-.129.648-.252s.343-.294.458-.512c.113-.219.17-.506.17-.86 0-.301-.055-.548-.164-.744-.109-.196-.252-.353-.43-.472-.178-.117-.38-.199-.607-.245s-.459-.069-.696-.069zM201.542 130.488h-2.936l-.723 2.115h-1.871l3.44-9.623h1.378l3.44 9.623h-1.966l-.762-2.115zm-2.457-1.502h2.047l-.709-2.129-.287-1.502h-.068l-.287 1.516-.696 2.115zM205.5 123.049h5.884v1.665h-4.013v1.993l.566-.082c.223-.027.443-.041.662-.041.51 0 .978.05 1.406.15.427.1.793.266 1.098.498s.544.537.717.914c.173.378.26.84.26 1.386 0 .537-.089 1.006-.266 1.405-.178.401-.434.733-.766.997-.332.265-.732.464-1.201.601s-.994.205-1.576.205l-.58-.014-.736-.041-.771-.068c-.256-.027-.482-.063-.684-.109v-9.459zm2.908 8.121c.236 0 .457-.029.662-.087s.385-.147.539-.269c.154-.12.277-.274.369-.462.09-.188.136-.415.136-.685 0-.32-.05-.58-.149-.777-.102-.196-.237-.35-.41-.462s-.371-.186-.594-.222c-.223-.035-.462-.053-.717-.053-.127 0-.287.011-.478.033l-.396.061v2.855c.1.027.252.045.457.053l.581.015zM213.39 127.826c0-1.592.35-2.818 1.051-3.679s1.701-1.29 3.002-1.29c.684 0 1.279.118 1.789.355.51.236.934.572 1.27 1.01.336.437.588.96.75 1.569.164.61.246 1.288.246 2.034 0 1.592-.352 2.818-1.057 3.679-.707.86-1.705 1.29-2.998 1.29-.691 0-1.291-.119-1.801-.355s-.931-.573-1.263-1.01c-.332-.438-.58-.96-.744-1.57-.163-.609-.245-1.287-.245-2.033zm1.965 0c0 .482.041.926.123 1.33.082.406.207.754.375 1.045s.385.519.648.683c.264.163.578.245.941.245.666 0 1.18-.259 1.543-.777.365-.52.547-1.361.547-2.525 0-.465-.039-.896-.117-1.297-.076-.4-.197-.751-.361-1.051-.164-.301-.377-.535-.641-.703s-.588-.252-.971-.252c-.664 0-1.178.266-1.541.798-.364.532-.546 1.366-.546 2.504zM229.498 124.714h-2.785v7.89h-1.87v-7.89h-2.798v-1.665h7.453v1.665zM233.237 128.521h-.491v4.082h-1.87v-9.555h1.87v4.23l.437-.19 2.635-4.04h2.129l-2.784 4.013-.737.519.765.533 3.18 4.49h-2.307l-2.827-4.082zM244.225 130.488h-2.935l-.724 2.115h-1.87l3.439-9.623h1.379l3.439 9.623h-1.965l-.763-2.115zm-2.457-1.502h2.048l-.71-2.129-.287-1.502h-.068l-.286 1.516-.697 2.115zM251.446 123.049h1.46v11.329h-1.46v-11.329zM264.031 124.714h-3.344v7.89h-1.87v-9.555h7.084v9.555h-1.87v-7.89zM267.648 127.826c0-1.592.351-2.818 1.051-3.679.701-.86 1.702-1.29 3.003-1.29.683 0 1.279.118 1.789.355.509.236.933.572 1.269 1.01.337.437.588.96.751 1.569.164.61.246 1.288.246 2.034 0 1.592-.353 2.818-1.058 3.679-.706.86-1.704 1.29-2.997 1.29-.691 0-1.292-.119-1.802-.355s-.93-.573-1.262-1.01c-.333-.438-.581-.96-.744-1.57-.164-.609-.246-1.287-.246-2.033zm1.966 0c0 .482.041.926.123 1.33.082.406.207.754.375 1.045s.385.519.648.683c.264.163.578.245.941.245.665 0 1.179-.259 1.543-.777.364-.52.546-1.361.546-2.525 0-.465-.039-.896-.116-1.297s-.197-.751-.361-1.051c-.164-.301-.378-.535-.642-.703s-.587-.252-.97-.252c-.664 0-1.178.266-1.542.798s-.545 1.366-.545 2.504zM283.973 132.213c-.291.207-.662.355-1.112.446s-.912.136-1.386.136c-.573 0-1.117-.089-1.631-.267-.515-.177-.967-.464-1.358-.86-.392-.396-.703-.909-.935-1.542-.232-.632-.349-1.399-.349-2.3 0-.938.13-1.723.39-2.355.259-.632.596-1.141 1.01-1.528.414-.386.876-.664 1.386-.833.509-.168 1.019-.252 1.528-.252.546 0 1.008.037 1.386.109.377.072.689.159.935.26l-.368 1.583c-.21-.101-.457-.173-.744-.219-.286-.046-.635-.067-1.044-.067-.756 0-1.363.269-1.822.807-.46.537-.689 1.372-.689 2.503 0 .492.055.941.164 1.347.108.406.274.753.498 1.04.223.287.5.511.832.671.333.158.717.238 1.154.238.409 0 .755-.041 1.037-.123.282-.081.527-.186.737-.313l.381 1.519zM291.727 124.714h-2.785v7.89h-1.87v-7.89h-2.798v-1.665h7.453v1.665zM296.75 130.488h-2.935l-.724 2.115h-1.87l3.439-9.623h1.379l3.439 9.623h-1.965l-.763-2.115zm-2.458-1.502h2.048l-.71-2.129-.287-1.502h-.068l-.286 1.516-.697 2.115zM307.137 125.273c0 .236-.029.473-.089.71-.059.237-.156.452-.293.648s-.314.368-.532.519c-.219.15-.482.262-.792.334v.082c.272.046.532.123.778.232.245.109.459.26.642.45.182.191.325.423.43.696s.157.596.157.969c0 .492-.105.918-.314 1.277s-.489.652-.839.88c-.351.228-.749.396-1.195.505-.445.109-.905.164-1.378.164h-.594c-.241 0-.501-.007-.778-.021s-.56-.034-.847-.062c-.286-.027-.548-.068-.784-.123v-9.418l.594-.082c.223-.027.462-.051.717-.068l.784-.041.799-.014c.445 0 .88.034 1.304.102.423.068.801.189 1.133.362s.599.415.799.724c.198.311.298.703.298 1.175zm-4.026 1.789l.443-.013.416-.041c.346-.107.644-.27.895-.486.25-.217.375-.5.375-.852 0-.234-.046-.428-.137-.58-.091-.153-.211-.275-.361-.365s-.32-.152-.512-.188-.392-.054-.601-.054l-.655.014c-.2.008-.354.021-.464.039v2.526h.601zm.614 4.108c.228 0 .448-.026.662-.08.213-.055.402-.139.566-.25.163-.113.295-.255.396-.426.1-.172.15-.375.15-.608 0-.298-.06-.532-.178-.702-.118-.172-.272-.305-.464-.399s-.405-.155-.642-.183c-.237-.027-.474-.04-.71-.04h-.996v2.608l.218.04.321.021.354.014.323.005zM311.546 128.521h-.491v4.082h-1.87v-9.555h1.87v4.23l.437-.19 2.635-4.04h2.129l-2.784 4.013-.737.519.765.533 3.18 4.49h-2.307l-2.827-4.082zM322.535 130.488h-2.935l-.724 2.115h-1.87l3.439-9.623h1.379l3.439 9.623h-1.965l-.763-2.115zm-2.457-1.502h2.048l-.71-2.129-.287-1.502h-.068l-.286 1.516-.697 2.115zM329.755 123.049h1.46v11.329h-1.46v-11.329zM343.418 132.213c-.291.207-.662.355-1.112.446s-.912.136-1.386.136c-.573 0-1.117-.089-1.631-.267-.515-.177-.967-.464-1.358-.86-.392-.396-.703-.909-.935-1.542-.232-.632-.349-1.399-.349-2.3 0-.938.13-1.723.39-2.355.259-.632.596-1.141 1.01-1.528.414-.386.876-.664 1.386-.833.509-.168 1.019-.252 1.528-.252.546 0 1.008.037 1.386.109.377.072.689.159.935.26l-.368 1.583c-.21-.101-.457-.173-.744-.219-.286-.046-.635-.067-1.044-.067-.756 0-1.363.269-1.822.807-.46.537-.689 1.372-.689 2.503 0 .492.055.941.164 1.347.108.406.274.753.498 1.04.223.287.5.511.832.671.333.158.717.238 1.154.238.409 0 .755-.041 1.037-.123.282-.081.527-.186.737-.313l.381 1.519zM344.989 123.049h5.664v1.665h-3.794v2.226h3.453v1.664h-3.453v2.334h3.862v1.666h-5.732v-9.555zM352.523 123.145c.382-.073.803-.131 1.263-.171.459-.041.916-.062 1.371-.062.474 0 .949.039 1.427.115.478.078.908.232 1.29.465s.693.555.935.969.362.953.362 1.617c0 .602-.104 1.109-.314 1.522-.209.415-.486.753-.832 1.017-.347.265-.74.455-1.181.574-.442.118-.899.178-1.372.178h-.219l-.313-.008-.321-.02-.225-.027v3.289h-1.87v-9.458zm2.784 1.378c-.182 0-.354.006-.519.02l-.396.048v3.099l.163.027.232.021.239.007h.17c.246 0 .489-.022.73-.068.241-.045.457-.129.648-.252s.344-.294.457-.512c.114-.219.171-.506.171-.86 0-.301-.055-.548-.164-.744s-.252-.353-.43-.472c-.178-.117-.38-.199-.607-.245s-.458-.069-.694-.069zM367.169 125.273c0 .236-.029.473-.089.71-.059.237-.156.452-.293.648s-.314.368-.532.519c-.219.15-.482.262-.792.334v.082c.272.046.532.123.778.232.245.109.459.26.642.45.182.191.325.423.43.696s.157.596.157.969c0 .492-.105.918-.314 1.277s-.489.652-.839.88c-.351.228-.749.396-1.195.505-.445.109-.905.164-1.378.164h-.594c-.241 0-.501-.007-.778-.021s-.56-.034-.847-.062c-.286-.027-.548-.068-.784-.123v-9.418l.594-.082c.223-.027.462-.051.717-.068l.784-.041.799-.014c.445 0 .88.034 1.304.102.423.068.801.189 1.133.362s.599.415.799.724c.198.311.298.703.298 1.175zm-4.026 1.789l.443-.013.416-.041c.346-.107.644-.27.895-.486.25-.217.375-.5.375-.852 0-.234-.046-.428-.137-.58-.091-.153-.211-.275-.361-.365s-.32-.152-.512-.188-.392-.054-.601-.054l-.655.014c-.2.008-.354.021-.464.039v2.526h.601zm.614 4.108c.228 0 .448-.026.662-.08.213-.055.402-.139.566-.25.163-.113.295-.255.396-.426.1-.172.15-.375.15-.608 0-.298-.06-.532-.178-.702-.118-.172-.272-.305-.464-.399s-.405-.155-.642-.183c-.237-.027-.474-.04-.71-.04h-.996v2.608l.218.04.321.021.354.014.323.005zM374.787 127.307l.108-1.242h-.068l-.641 1.283-3.563 5.256h-1.405v-9.555h1.87v5.2l-.137 1.283h.082l.669-1.324 3.563-5.159h1.392v9.555h-1.869v-5.297zM385.187 132.213c-.291.207-.662.355-1.112.446s-.912.136-1.386.136c-.573 0-1.117-.089-1.631-.267-.515-.177-.967-.464-1.358-.86-.392-.396-.703-.909-.935-1.542-.232-.632-.349-1.399-.349-2.3 0-.938.13-1.723.39-2.355.259-.632.596-1.141 1.01-1.528.414-.386.876-.664 1.386-.833.509-.168 1.019-.252 1.528-.252.546 0 1.008.037 1.386.109.377.072.689.159.935.26l-.368 1.583c-.21-.101-.457-.173-.744-.219-.286-.046-.635-.067-1.044-.067-.756 0-1.363.269-1.822.807-.46.537-.689 1.372-.689 2.503 0 .492.055.941.164 1.347.108.406.274.753.498 1.04.223.287.5.511.832.671.333.158.717.238 1.154.238.409 0 .755-.041 1.037-.123.282-.081.527-.186.737-.313l.381 1.519z"/></g></svg>