<svg xmlns="http://www.w3.org/2000/svg" width="325" height="63.25" viewBox="0 0 325 63.25"><path fill="#529FD7" d="M109.235 12.77h3.619v24.975h-2.58v-22.109c-3.045 6.593-5.876 13.078-8.527 19.385h-1.899c-2.687-6.45-5.481-12.936-8.42-19.385v22.108h-2.508v-24.974h3.87c2.974 6.235 5.732 12.505 8.169 18.739 2.4-6.27 5.23-12.541 8.276-18.739zM122.979 38.604c-1.827-6.45-4.264-14.01-6.664-18.955h2.615c1.935 4.372 4.049 10.642 5.59 16.016 2.185-5.268 4.263-10.82 5.697-16.016h2.543c-1.827 6.056-4.193 12.075-6.736 18.095-.932 2.256-2.258 5.016-3.26 6.879h-2.724c.933-1.719 2.044-4.048 2.939-6.019zM156.519 12.77h3.619v24.975h-2.58v-22.109c-3.045 6.593-5.876 13.078-8.527 19.385h-1.899c-2.687-6.45-5.481-12.936-8.42-19.385v22.108h-2.508v-24.974h3.87c2.975 6.235 5.733 12.505 8.169 18.739 2.4-6.27 5.231-12.541 8.276-18.739zM180.1 28.93h-12.935c.035 5.876 1.898 7.13 6.091 7.13 1.29 0 3.656-.395 5.195-.968l.538 2.149c-1.863.574-4.443 1.004-5.948 1.004-5.483 0-8.457-2.222-8.457-9.638 0-7.095 2.76-9.46 8.135-9.46 5.123.001 7.381 2.079 7.381 9.783zm-12.9-2.114h10.249c-.216-4.515-1.396-5.483-4.729-5.483-3.801 0-5.233 1.219-5.52 5.483zM191.528 19.148c2.58 0 4.085.752 4.98 1.469v-8.743h2.33v24.938c-1.971.895-5.124 1.433-7.31 1.433-5.589 0-8.205-2.077-8.205-9.495 0-7.38 2.579-9.602 8.205-9.602zm0 16.876c1.755 0 3.583-.251 4.98-.752v-11.358c0-1.649-2.293-2.544-4.98-2.544-4.228 0-5.625 1.469-5.625 7.345-.001 6.126 1.397 7.309 5.625 7.309zM205.958 14.168c0 1.325-.358 1.539-1.469 1.539-1.146 0-1.505-.214-1.505-1.539 0-1.219.359-1.398 1.505-1.398 1.11 0 1.469.179 1.469 1.398zm-.359 5.481h-2.328v18.095h2.328v-18.095zM223.775 36.813c-1.972.895-5.016 1.433-7.31 1.433-5.196 0-7.345-1.397-7.345-6.091 0-5.159 3.117-5.984 7.167-5.984 1.898 0 3.296.179 5.159.574 0-4.443-1.147-5.375-5.34-5.375-1.719 0-3.761.25-5.194.86l-.681-2.187c1.397-.394 3.583-.895 6.02-.895 5.267 0 7.524 1.541 7.524 7.022v10.643zm-2.328-1.505v-6.594c-1.325-.322-3.082-.465-4.874-.465-3.619 0-4.837.394-4.837 3.727 0 3.618 1.039 4.156 4.837 4.156 1.756-.001 3.476-.323 4.874-.824z"/><path fill="#2D4255" d="M228.545 37.745v-24.975h13.006c5.267 0 6.952 3.691 6.952 8.563 0 4.3-2.043 8.169-6.845 8.169h-8.384v8.242h-4.729zm11.681-12.184c1.971 0 3.082-1.434 3.082-4.263 0-3.045-1.04-4.514-2.975-4.514h-7.059v8.777h6.952zM251.066 19.506h4.443v1.362c.644-1.003 2.041-1.9 4.656-1.9.609 0 1.219.037 1.864.108v4.228c-.646-.143-1.54-.25-2.33-.25-2.22 0-4.19.717-4.19 2.042v12.649h-4.443v-18.239zM263.519 28.535c0-7.453 2.903-9.566 8.671-9.566 5.841 0 8.742 2.114 8.742 9.566 0 7.489-2.867 9.711-8.742 9.711-5.805 0-8.671-2.222-8.671-9.711zm4.586.073c0 5.051.968 6.054 4.084 6.054 3.19 0 4.157-1.003 4.157-6.054 0-5.232-.967-6.056-4.157-6.056-3.116 0-4.084.823-4.084 6.056z"/><g fill="#2D4255"><path d="M95.202 59.145h-4.914v-12.731h4.768c2.239 0 3.75 1.324 3.75 3.291 0 .93-.346 1.715-.983 2.306-.292.25-.492.377-1.038.591.637.249.874.394 1.202.679.673.608 1.02 1.431 1.02 2.432-.001 2.145-1.421 3.432-3.805 3.432zm-.255-11.873h-3.677v4.935h3.677c1.819 0 2.875-.912 2.875-2.468s-1.074-2.467-2.875-2.467zm.145 5.794h-3.822v5.22h3.822c1.802 0 2.93-1.001 2.93-2.61 0-1.591-1.128-2.61-2.93-2.61zM107.417 59.145v-.859c-.747.734-1.438.968-2.675.968-1.292 0-2.021-.217-2.584-.787-.4-.412-.637-1.038-.637-1.682 0-1.573 1.146-2.485 3.058-2.485h2.839v-.965c0-1.378-.692-2.111-2.476-2.111-1.237 0-1.874.305-2.42 1.092l-.673-.573c.746-1.019 1.674-1.323 3.093-1.323 2.312 0 3.404 1.021 3.404 2.825v5.901h-.929zm0-4.112h-2.73c-1.511 0-2.239.591-2.239 1.735s.709 1.68 2.293 1.68c.8 0 1.565-.071 2.184-.662.327-.304.491-.841.491-1.646v-1.107zM111.806 59.145v-8.618h.928v7.85h4.059v-7.85h.929v7.85h4.059v-7.85h.928v8.618h-10.903zM131.394 59.145v-.859c-.746.734-1.437.968-2.675.968-1.292 0-2.021-.217-2.584-.787-.4-.412-.638-1.038-.638-1.682 0-1.573 1.147-2.485 3.058-2.485h2.839v-.965c0-1.378-.691-2.111-2.475-2.111-1.238 0-1.874.305-2.42 1.092l-.674-.573c.746-1.019 1.674-1.323 3.094-1.323 2.311 0 3.404 1.021 3.404 2.825v5.901h-.929zm0-4.112h-2.729c-1.511 0-2.239.591-2.239 1.735s.709 1.68 2.293 1.68c.8 0 1.565-.071 2.184-.662.327-.304.491-.841.491-1.646v-1.107zM145.885 58.305c-.619.608-1.475.948-2.439.948-.965 0-1.82-.34-2.439-.948-.765-.752-1.092-1.806-1.092-3.47 0-1.663.327-2.717 1.092-3.47.619-.607 1.474-.947 2.439-.947 2.257 0 3.531 1.575 3.531 4.363.001 1.719-.328 2.755-1.092 3.524zm-.618-6.348c-.456-.466-1.128-.733-1.82-.733-.691 0-1.365.268-1.82.733-.564.572-.783 1.359-.783 2.879 0 1.521.2 2.289.783 2.88.455.464 1.128.732 1.82.732.692 0 1.365-.269 1.82-.732.564-.574.782-1.359.782-2.844 0-1.556-.2-2.325-.782-2.915zM155.188 59.145v-3.487c-.692.143-1.894.376-2.912.376-1.583 0-2.603-.716-2.603-2.502v-3.005h.928v2.914c0 1.306.728 1.734 1.838 1.734 1.038 0 2.057-.18 2.749-.322v-4.326h.928v8.618h-.928zM160.068 55.033c.036.93.091 1.323.31 1.823.437 1.057 1.31 1.573 2.565 1.573.473 0 .874-.071 1.239-.214.399-.161.635-.34 1.163-.822l.692.536c-.637.608-.946.822-1.474 1.037-.474.196-1.021.287-1.657.287-2.474 0-3.767-1.521-3.767-4.472 0-2.717 1.329-4.363 3.513-4.363s3.512 1.592 3.512 4.202v.412h-6.096zm5.006-1.967c-.347-1.163-1.257-1.843-2.421-1.843-1.019 0-1.875.556-2.275 1.449-.201.446-.273.822-.31 1.627h5.169c-.037-.679-.055-.894-.163-1.233zM172.646 59.253c-1.328 0-1.91-.394-2.548-1.216v5.22h-.927v-12.73h.927v1.107c.693-.857 1.257-1.216 2.531-1.216 2.256 0 3.348 1.449 3.348 4.435 0 2.933-1.109 4.4-3.331 4.4zm-.073-8.03c-1.71 0-2.476 1.109-2.476 3.612s.747 3.612 2.476 3.612c1.711 0 2.475-1.109 2.475-3.595 0-2.519-.746-3.629-2.475-3.629zM179.419 55.033c.038.93.092 1.323.311 1.823.436 1.057 1.311 1.573 2.565 1.573.474 0 .873-.071 1.238-.214.401-.161.637-.34 1.165-.822l.692.536c-.638.608-.947.822-1.475 1.037-.473.196-1.02.287-1.657.287-2.475 0-3.767-1.521-3.767-4.472 0-2.717 1.329-4.363 3.513-4.363s3.512 1.592 3.512 4.202v.412h-6.097zm5.006-1.967c-.347-1.163-1.257-1.843-2.42-1.843-1.021 0-1.875.556-2.275 1.449-.2.446-.273.822-.311 1.627h5.169c-.036-.679-.055-.894-.163-1.233zM195.202 61.828v-2.683h-7.062v2.683h-.927v-3.451h1.073c.674-.948 1.274-2.183 1.274-5.348v-2.502h5.205v7.85h1.366v3.451h-.929zm-1.365-10.534h-3.385v1.969c0 2.896-.528 4.309-1.111 5.113h4.496v-7.082zM202.412 59.145h-3.857v-8.618h.927v3.54h2.931c1.639 0 2.711 1.001 2.711 2.539s-1.073 2.539-2.712 2.539zm-.146-4.31h-2.785v3.541h2.785c1.257 0 1.93-.626 1.93-1.771 0-1.125-.673-1.77-1.93-1.77zM214.556 59.234c-1.402 0-2.347-.304-3.385-1.233l.637-.625c.837.804 1.51 1.054 2.693 1.054 1.167 0 2.476-.625 2.476-1.681 0-1.091-.837-1.645-2.021-1.645h-1.256v-.769h1.293c1.056 0 1.82-.556 1.82-1.574 0-.982-.854-1.556-2.167-1.556-.946 0-1.764.251-2.53.769l-.547-.644c.966-.662 1.913-.912 3.077-.912 1.748 0 3.076.841 3.076 2.325 0 .895-.51 1.664-1.474 1.949.982.269 1.62 1.056 1.62 2.075 0 1.538-1.547 2.467-3.312 2.467zM226.096 59.145v-.859c-.745.734-1.437.968-2.674.968-1.293 0-2.02-.217-2.586-.787-.399-.412-.635-1.038-.635-1.682 0-1.573 1.146-2.485 3.056-2.485h2.839v-.965c0-1.378-.69-2.111-2.475-2.111-1.236 0-1.874.305-2.421 1.092l-.673-.573c.746-1.019 1.675-1.323 3.094-1.323 2.312 0 3.405 1.021 3.405 2.825v5.901h-.93zm0-4.112h-2.729c-1.51 0-2.238.591-2.238 1.735s.71 1.68 2.294 1.68c.8 0 1.564-.071 2.185-.662.326-.304.489-.841.489-1.646v-1.107zM233.963 59.253c-1.33 0-1.913-.394-2.549-1.216v5.22h-.929v-12.73h.929v1.107c.691-.857 1.255-1.216 2.529-1.216 2.258 0 3.349 1.449 3.349 4.435 0 2.933-1.11 4.4-3.329 4.4zm-.073-8.03c-1.712 0-2.476 1.109-2.476 3.612s.747 3.612 2.476 3.612c1.711 0 2.476-1.109 2.476-3.595-.001-2.519-.747-3.629-2.476-3.629zM245.468 59.145v-.859c-.746.734-1.438.968-2.677.968-1.292 0-2.021-.217-2.583-.787-.401-.412-.639-1.038-.639-1.682 0-1.573 1.147-2.485 3.059-2.485h2.84v-.965c0-1.378-.692-2.111-2.476-2.111-1.237 0-1.875.305-2.42 1.092l-.674-.573c.746-1.019 1.675-1.323 3.094-1.323 2.312 0 3.402 1.021 3.402 2.825v5.901h-.926zm0-4.112h-2.73c-1.512 0-2.237.591-2.237 1.735s.708 1.68 2.291 1.68c.802 0 1.565-.071 2.185-.662.328-.304.492-.841.492-1.646v-1.107zM255.407 58.323c-.583.591-1.457.931-2.402.931-1.747 0-3.004-1.021-3.367-2.647-.237-1.02-.182-2.735-.182-3.845 0-3.147.108-4.22 1.057-5.148 1.218-1.199 3.874-1.164 5.332-1.288v.876c-1.184.106-3.587 0-4.605 1-.819.805-.892 2.004-.892 3.612.4-.804 1.637-1.376 2.711-1.376.929 0 1.711.25 2.276.786.781.733 1.145 1.986 1.145 3.612-.001 1.716-.308 2.736-1.073 3.487zm-.619-6.366c-.436-.446-1.11-.714-1.783-.714-.674 0-1.329.268-1.784.714-.545.554-.837 1.413-.837 2.933s.273 2.271.837 2.843c.455.447 1.11.716 1.784.716.673 0 1.348-.269 1.783-.716.564-.554.766-1.323.766-2.808 0-1.555-.183-2.396-.766-2.968zM264.618 59.145v-.859c-.747.734-1.438.968-2.674.968-1.293 0-2.021-.217-2.586-.787-.399-.412-.637-1.038-.637-1.682 0-1.573 1.146-2.485 3.058-2.485h2.839v-.965c0-1.378-.691-2.111-2.476-2.111-1.236 0-1.873.305-2.42 1.092l-.674-.573c.747-1.019 1.676-1.323 3.094-1.323 2.313 0 3.405 1.021 3.405 2.825v5.901h-.929zm0-4.112h-2.729c-1.51 0-2.239.591-2.239 1.735s.71 1.68 2.295 1.68c.799 0 1.564-.071 2.184-.662.327-.304.49-.841.49-1.646v-1.107zM271.337 51.294v7.851h-.928v-7.851h-3.167v-.768h7.079v.768h-2.984zM279.949 59.145h-3.678v-8.618h.927v3.54h2.751c1.636 0 2.711 1.001 2.711 2.539s-1.075 2.539-2.711 2.539zm-.146-4.31h-2.604v3.541h2.604c1.256 0 1.929-.626 1.929-1.771-.001-1.125-.673-1.77-1.929-1.77zm4.368 4.31v-8.618h.926v8.618h-.926zM292.709 59.145h-4.077v-8.618h3.985c1.512 0 2.531.876 2.531 2.217 0 .965-.564 1.645-1.493 1.932.965.304 1.638 1.036 1.638 2.127 0 1.448-.964 2.342-2.584 2.342zm-.292-7.851h-2.856v3.005h2.856c1.165 0 1.803-.555 1.803-1.502 0-.965-.656-1.503-1.803-1.503zm.093 3.774h-2.949v3.309h2.949c1.163 0 1.855-.645 1.855-1.646s-.692-1.663-1.855-1.663zM303.522 59.145v-.859c-.747.734-1.438.968-2.674.968-1.294 0-2.021-.217-2.586-.787-.4-.412-.637-1.038-.637-1.682 0-1.573 1.146-2.485 3.058-2.485h2.839v-.965c0-1.378-.691-2.111-2.477-2.111-1.235 0-1.873.305-2.42 1.092l-.673-.573c.746-1.019 1.675-1.323 3.093-1.323 2.313 0 3.406 1.021 3.406 2.825v5.901h-.929zm0-4.112h-2.729c-1.511 0-2.239.591-2.239 1.735s.71 1.68 2.295 1.68c.798 0 1.563-.071 2.184-.662.326-.304.49-.841.49-1.646v-1.107zM310.242 51.294v7.851h-.93v-7.851h-3.167v-.768h7.081v.768h-2.984zM319.032 59.145h-3.856v-8.618h.927v3.54h2.93c1.639 0 2.714 1.001 2.714 2.539s-1.076 2.539-2.715 2.539zm-.143-4.31h-2.786v3.541h2.786c1.256 0 1.929-.626 1.929-1.771-.001-1.125-.673-1.77-1.929-1.77z"/></g><path fill="#2994D2" d="M55.333 25.654l-17 10.198v-25.197l17-10.198z"/><path fill="#46C1F0" d="M21.333 46.36l-21 12.849v-46.356l21-12.396z"/><path fill="#00B7ED" d="M55.333 46.864l18 12.345v-46.607l-18-12.145z"/><path fill="#529FD7" d="M21.333 25.654l17 10.198v-25.197l-17-10.198z"/></svg>