<!DOCTYPE svg PUBLIC "-//W3C//DTD SVG 1.1//EN" "http://www.w3.org/Graphics/SVG/1.1/DTD/svg11.dtd" [
	<!ENTITY ns_flows "http://ns.adobe.com/Flows/1.0/">
]><svg xmlns="http://www.w3.org/2000/svg" width="1000" height="1000" viewBox="-6.496 -2.5 1000 1000" enable-background="new -6.496 -2.5 1000 1000"><path fill="#0176A5" d="M17.261 37.533c2.071 0 3.75-1.65 3.75-3.685 0-2.036-1.679-3.685-3.75-3.685-2.07 0-3.75 1.649-3.75 3.685 0 2.035 1.679 3.685 3.75 3.685zm15.003 0h37.504c2.07 0 3.75-1.65 3.75-3.685 0-2.036-1.68-3.685-3.75-3.685h-37.504c-2.072 0-3.752 1.649-3.752 3.685 0 2.035 1.678 3.685 3.752 3.685zm-15.003 14.737c2.071 0 3.75-1.648 3.75-3.685 0-2.035-1.679-3.685-3.75-3.685-2.07 0-3.75 1.65-3.75 3.685 0 2.036 1.679 3.685 3.75 3.685zm15.003 0h37.504c2.07 0 3.75-1.648 3.75-3.685 0-2.035-1.68-3.685-3.75-3.685h-37.504c-2.072 0-3.752 1.65-3.752 3.685 0 2.036 1.678 3.685 3.752 3.685zm-15.003 14.738c2.071 0 3.75-1.648 3.75-3.685 0-2.035-1.679-3.685-3.75-3.685-2.07 0-3.75 1.649-3.75 3.685s1.679 3.685 3.75 3.685zm15.003 0h37.504c2.07 0 3.75-1.648 3.75-3.685 0-2.035-1.68-3.685-3.75-3.685h-37.504c-2.072 0-3.752 1.649-3.752 3.685s1.678 3.685 3.752 3.685zm-29.333-56.124v73.231h81.146v-73.231h-81.146zm77.901 70.304h-74.655v-67.374h74.655v67.374zM153.604 25.639c2.272 0 4.118-1.839 4.118-4.108 0-2.271-1.844-4.108-4.118-4.108s-4.118 1.838-4.118 4.108c0 2.268 1.844 4.108 4.118 4.108zm13.401-4.972v-9.776h-62.1v61.959h62.1v-6.441l7.076.892-1.796 14.199-57.029-7.181.174-1.389h-2.362l-.433 3.415 61.685 7.765 7.783-61.542-15.098-1.901zm-2.426 49.765h-57.252v-14.39h57.252v14.39zm0-16.808h-.913v-16.096h-10.063v16.096h-.487v-13.008h-4.968v13.008h-.437v-4.929h-6.789v-4.179h-4.969v4.179h-3.928v4.929h-.308v-29.996h-3.927v16.275h-7.601v13.72h-.895v-19.422h-11.198v19.423h-.771v-40.315h57.252v40.315zm2.426 10.349v-40.95l12.479 1.57-5.1 40.308-7.379-.928zM281.098 33.923h-16.255l2.126-2.15c.222-.225.432-.471.624-.736.981.225 1.985.337 2.999.337 3.605 0 6.992-1.418 9.538-3.994 3.278-3.319 4.634-8.046 3.622-12.646l-.646-2.938-7.452 7.582-1.964 1.945-2.625-.681-2.646-.748-.731-2.645-.682-2.691 9.416-9.528-2.905-.653c-.969-.216-1.962-.328-2.954-.328-3.608 0-6.995 1.419-9.542 3.995-3.314 3.355-4.646 8.115-3.615 12.685-.263.196-.502.407-.727.632l-12.415 12.561h-.974l-10.17-8.544c.398-1.038.615-2.149.615-3.296 0-2.428-.935-4.711-2.632-6.428l-12.84-12.991c-1.695-1.717-3.952-2.663-6.351-2.663-2.401 0-4.657.946-6.354 2.664-1.696 1.717-2.631 4-2.631 6.429 0 2.428.935 4.711 2.631 6.429l12.837 12.99c1.697 1.718 3.955 2.663 6.354 2.663 1.181 0 2.324-.231 3.386-.667l3.887 3.416h-25.762c-1.531 0-2.778 1.26-2.778 2.81v55.456c0 1.55 1.247 2.811 2.778 2.811h74.838c1.529 0 2.775-1.26 2.775-2.811v-55.458c0-1.549-1.246-2.809-2.775-2.809zm-22.116-10.232c.27-.273.613-.514 1.049-.735l1.256-.638-.441-1.35c-1.223-3.752-.271-7.812 2.477-10.593 1.668-1.686 3.809-2.718 6.123-2.969l-6.048 6.176 1.146 4.522 1.234 4.463 4.442 1.257 4.437 1.15 6.108-6.123c-.248 2.315-1.26 4.5-2.938 6.198-1.931 1.955-4.5 3.03-7.234 3.03-1.102 0-2.189-.177-3.234-.525l-1.332-.445-.631 1.272c-.218.439-.456.787-.727 1.061l-3.717 3.761h-11.369l9.399-9.512zm-29.961 2.721c-1.14 1.152-2.656 1.79-4.271 1.79-1.614 0-3.133-.638-4.274-1.793l-12.839-12.992c-1.141-1.154-1.771-2.691-1.771-4.324 0-1.634.631-3.17 1.771-4.326 1.143-1.155 2.66-1.792 4.275-1.792s3.131.637 4.274 1.792l12.841 12.991c1.143 1.155 1.771 2.691 1.771 4.325 0 1.633-.63 3.168-1.771 4.324l-.006.005zm1.731 2.455l.344-.348.008-.007.008-.008.51-.517 7.067 5.937h-2.185l-5.752-5.057zm49.865 62.838h-73.877v-54.487h73.879v54.487h-.002zm-51.412-38.547h27.979c1.531 0 2.778-1.26 2.778-2.811v-4.261c0-1.55-1.247-2.811-2.778-2.811h-27.979c-1.53 0-2.777 1.26-2.777 2.811v4.261c0 1.551 1.247 2.811 2.777 2.811zm.48-6.585h27.019v3.29h-27.019v-3.29zm-19.695-37.025c-.457-.464-1.203-.464-1.662 0-.459.465-.459 1.218 0 1.683l15.152 15.33c.229.232.53.348.83.348.301 0 .604-.116.831-.348.46-.465.46-1.218 0-1.683l-15.151-15.33zm19.185 11.252l-15.153-15.331c-.458-.465-1.202-.465-1.663 0-.457.464-.457 1.218 0 1.682l15.152 15.332c.23.233.529.349.831.349s.603-.116.832-.349c.461-.465.461-1.219.001-1.683zM338.562 67.467c-2.223-3.783-9.604-7.179-12.144-7.179-.527 0-.997.118-1.399.353-1.048.608-1.978 1.375-2.768 2.268-2.332-2.551-4.452-5.441-6.325-8.627-1.906-3.242-3.462-6.667-4.563-10.035 1.148-.248 2.252-.677 3.272-1.268 1.098-.64 2.08-1.467 2.917-2.459.271-.319.444-.711.491-1.129.425-3.681-.554-7.767-2.749-11.504-1.176-1.995-2.619-3.748-4.293-5.208-.354-.31-.797-.493-1.264-.524-2.241-.159-4.516.367-6.457 1.498l-.212.133-.01.004-.263.143c-9.163 5.332-9.03 21.939.297 37.81 7.176 12.208 17.932 20.408 26.764 20.408 2.287 0 4.38-.543 6.215-1.608 1.898-1.106 3.439-2.731 4.577-4.833.104-.191.172-.396.205-.605l.006-.013c.199-.42.253-.89.159-1.344-.453-2.171-1.282-4.284-2.456-6.281zm-1.98 6.735c-.718 1.153-1.612 2.045-2.671 2.659-1.168.681-2.531 1.027-4.052 1.027-7.247-.003-16.732-7.525-23.063-18.298-7.849-13.348-8.688-27.995-1.849-31.973l.236-.124.102-.058.154-.103c1.005-.586 2.139-.911 3.296-.943 1.095 1.052 2.058 2.273 2.863 3.646 1.572 2.673 2.372 5.625 2.246 8.209-.417.412-.875.764-1.371 1.052-1.146.667-2.474.988-3.806.936-.673-.035-1.33.265-1.757.791-.428.526-.576 1.226-.406 1.879 1.203 4.56 3.128 9.113 5.722 13.527 2.536 4.31 5.5 8.133 8.815 11.367.488.479 1.181.694 1.856.58.68-.113 1.258-.543 1.563-1.156.523-1.058 1.305-1.955 2.271-2.621 1.734.387 6.802 2.754 8.132 5.019.814 1.382 1.417 2.825 1.801 4.301l-.082.283zm25.595-61.351c-15.892 0-28.821 9.5-28.821 21.175 0 7.257 5.028 13.967 13.24 17.833-.692 2.908-2.287 6.658-5.921 7.777-1.046.321-1.678 1.375-1.469 2.44.194 1.011 1.084 1.726 2.101 1.726l.18-.006c.641-.054 15.262-1.349 22.076-8.624 15.461-.526 27.434-9.681 27.434-21.148-.001-11.673-12.93-21.173-28.82-21.173zm.371 38.083c-.638.008-1.241.297-1.645.791-2.738 3.371-7.875 5.342-12.223 6.463 1.467-2.498 2.147-5.266 2.463-7.263.152-.976-.389-1.931-1.309-2.302-7.522-3.048-12.196-8.641-12.196-14.597 0-9.325 11.005-16.913 24.537-16.913 13.527 0 24.535 7.587 24.535 16.913.002 9.184-10.842 16.77-24.162 16.908zm-10.195-20.424c-1.906 0-3.449 1.535-3.449 3.429s1.542 3.431 3.449 3.431c1.904 0 3.448-1.537 3.448-3.431s-1.544-3.429-3.448-3.429zm9.822 0c-1.904 0-3.447 1.535-3.447 3.429s1.543 3.431 3.447 3.431 3.448-1.537 3.448-3.431-1.543-3.429-3.448-3.429zm9.825 0c-1.906 0-3.449 1.535-3.449 3.429s1.543 3.431 3.449 3.431c1.902 0 3.447-1.537 3.447-3.431s-1.544-3.429-3.447-3.429z"/><path fill-rule="evenodd" clip-rule="evenodd" fill="#0076A4" d="M171.652 153.689c.451-2.093.68-4.17.68-6.191 0-2.231-.272-4.505-.807-6.771l6.961-4.271-9.094-15.25-6.967 4.274c-2.955-2.608-6.425-4.597-10.134-5.806v-8.246h-17.573v8.249c-3.913 1.271-7.539 3.391-10.583 6.192l-7.042-4.122-8.786 15.434 7.051 4.13c-.452 2.088-.68 4.166-.68 6.188 0 2.231.272 4.509.807 6.774l-6.962 4.271 9.093 15.249 6.97-4.275c2.951 2.611 6.421 4.596 10.131 5.807v8.249h17.573v-8.249c3.917-1.272 7.542-3.396 10.584-6.195l7.041 4.123 8.786-15.437-7.049-4.127zm-2.685 15.974l-6.48-3.794-.701.691c-3.109 3.068-6.961 5.326-11.143 6.524l-.941.269v7.592h-12.393v-7.592l-.943-.272c-3.985-1.141-7.698-3.268-10.742-6.151l-.716-.679-6.415 3.936-6.413-10.757 6.408-3.93-.259-.959c-.637-2.357-.961-4.728-.961-7.043 0-2.119.279-4.31.828-6.515l.238-.965-6.487-3.797 6.195-10.886 6.48 3.791.703-.692c3.111-3.068 6.963-5.323 11.141-6.521l.943-.267v-7.593h12.393v7.591l.943.269c3.981 1.143 7.696 3.271 10.744 6.156l.714.679 6.415-3.936 6.413 10.755-6.408 3.93.258.957c.638 2.36.961 4.727.961 7.044 0 2.118-.278 4.312-.827 6.521l-.24.958 6.487 3.803-6.195 10.883zm-14.277-23.956c-1.22-.705-15.513-8.958-16.227-9.367-.893-.511-1.795.139-1.795 1.012v18.772c0 .961.998 1.429 1.758 1.006 1.039-.577 15.386-8.871 16.264-9.39.789-.464.802-1.569 0-2.033zm-11.17-17.105c-10.422 0-18.898 8.477-18.898 18.896 0 10.421 8.477 18.898 18.898 18.898 10.42 0 18.896-8.478 18.896-18.898.001-10.42-8.476-18.896-18.896-18.896zm0 36.283c-9.588 0-17.387-7.8-17.387-17.387 0-9.586 7.799-17.385 17.387-17.385 9.586 0 17.385 7.799 17.385 17.385 0 9.587-7.799 17.387-17.385 17.387z"/><path fill="#0076A4" d="M552.953 152.923v-37.639c0-1.421-1.156-2.577-2.576-2.577h-13.746c-1.422 0-2.576 1.156-2.576 2.577v37.639c-4.24 3.047-6.756 7.935-6.756 13.165 0 8.935 7.27 16.205 16.205 16.205s16.205-7.271 16.205-16.205c0-5.231-2.518-10.118-6.756-13.165zm-9.449 27.652c-7.988 0-14.486-6.499-14.486-14.487 0-4.813 2.383-9.302 6.377-12.006l.377-.256v-11.122h8.496c.473 0 .859-.384.859-.858s-.387-.859-.859-.859h-8.496v-3.89h5.031c.475 0 .859-.384.859-.858 0-.476-.385-.859-.859-.859h-5.031v-3.89h8.496c.473 0 .859-.384.859-.859s-.387-.858-.859-.858h-8.496v-3.89h5.031c.475 0 .859-.384.859-.859s-.385-.858-.859-.858h-5.031v-3.89h8.496c.473 0 .859-.385.859-.859s-.387-.859-.859-.859h-8.496v-3.271c0-.474.387-.859.859-.859h13.746c.473 0 .859.386.859.859v38.542l.377.256c3.994 2.704 6.377 7.192 6.377 12.006 0 7.985-6.498 14.484-14.486 14.484zm6.662-24.358l-1.508-1.022v-8.728h-10.308v8.728l-1.51 1.022c-3.285 2.224-5.246 5.914-5.246 9.871 0 6.567 5.342 11.91 11.91 11.91 6.566 0 11.91-5.343 11.91-11.91 0-3.957-1.961-7.648-5.248-9.871zM443.503 135.125c-6.799 0-12.31 5.51-12.31 12.308 0 6.799 5.511 12.309 12.31 12.309 6.797 0 12.308-5.51 12.308-12.309 0-6.797-5.511-12.308-12.308-12.308zm1.704 3.945c-5.573 0-10.094 4.519-10.094 10.094 0 2.287.77 4.391 2.054 6.084-2.434-1.842-4.011-4.753-4.011-8.041 0-5.576 4.521-10.094 10.095-10.094 3.287 0 6.198 1.579 8.04 4.01-1.692-1.283-3.797-2.053-6.084-2.053zm-20.588-10.453c-10.411 10.412-10.411 27.354 0 37.765l3.443-3.443c-8.512-8.514-8.512-22.365 0-30.878l-3.443-3.444zm37.767 0l-3.443 3.443c8.513 8.514 8.513 22.365 0 30.878l3.443 3.443c10.411-10.411 10.411-27.353 0-37.764zm-42.485-4.717l-3.443-3.443c-14.911 14.912-14.911 39.174 0 54.086l3.443-3.443c-13.012-13.012-13.012-34.187 0-47.2zm50.648-3.443l-3.443 3.443c13.013 13.012 13.013 34.188 0 47.2l3.443 3.443c14.912-14.912 14.912-39.174 0-54.086zM0 125.265h24.294v-4.492h-24.294v4.492zm0 8.161h24.294v-4.492h-24.294v4.492zm0 8.159h24.294v-4.492h-24.294v4.492zm0 8.162h24.294v-4.492h-24.294v4.492zm0 8.159h24.294v-4.492h-24.294v4.492zm0 8.162h24.294v-4.492h-24.294v4.492zm0 8.16h24.294v-4.492h-24.294v4.492zm31.356-24.481h24.294v-4.492h-24.294v4.492zm0 8.159h24.294v-4.492h-24.294v4.492zm0 8.162h24.294v-4.492h-24.294v4.492zm0 8.16h24.294v-4.492h-24.294v4.492zm31.357-12.652v4.492h24.294v-4.492h-24.294zm0 12.652h24.294v-4.492h-24.294v4.492z"/><path fill-rule="evenodd" clip-rule="evenodd" fill="#0076A4" d="M279.546 112.904c-.05-.589-.508-1.059-1.092-1.119l-27.55-2.932c-.369-.039-.735.091-.997.356l-44.461 44.733c-.478.483-.478 1.264 0 1.747l29.919 30.102c.48.483 1.257.483 1.735 0l24.604-24.755v-3.49l-25.471 25.627-28.184-28.358 43.18-43.444 25.964 2.762 2.23 25.586-10.98 11.048v3.49l13.12-13.2c.257-.257.386-.616.354-.98l-2.371-27.173zm-11.104 16.975v1.24c.306-.215.6-.454.873-.728 2.503-2.519 2.503-6.616 0-9.134-2.502-2.519-6.576-2.519-9.078 0-2.503 2.519-2.503 6.616 0 9.134.445.448.94.812 1.467 1.1v-1.612c0-.446.09-.869.246-1.258-1.521-1.559-1.517-4.072.021-5.619 1.547-1.556 4.064-1.556 5.609 0 1.399 1.407 1.52 3.606.387 5.167.294.504.475 1.084.475 1.71zm-3.369-4.748c-1.116 0-2.022.91-2.022 2.034v44.784c0 1.124.906 2.035 2.022 2.035 1.118 0 2.022-.911 2.022-2.035v-44.784c0-1.124-.905-2.034-2.022-2.034z"/><path fill="#0076A4" d="M325.592 158.078c-5.083 0-9.217 4.154-9.217 9.266 0 5.109 4.134 9.266 9.217 9.266 5.082 0 9.217-4.156 9.217-9.266 0-5.112-4.135-9.266-9.217-9.266zm0 16.615c-4.032 0-7.313-3.296-7.313-7.35s3.28-7.351 7.313-7.351 7.313 3.297 7.313 7.351-3.281 7.35-7.313 7.35zm21.202-7.349c0-1.629-.2-3.287-.595-4.938l5.121-3.115-6.688-11.118-5.126 3.116c-2.173-1.904-4.726-3.353-7.454-4.233v-6.014h-12.925v6.016c-2.877.926-5.545 2.473-7.783 4.517l-5.18-3.009-6.462 11.257 5.187 3.009c-.332 1.523-.501 3.039-.501 4.514 0 1.626.201 3.285.596 4.937l-5.123 3.117 6.69 11.116 5.126-3.115c2.171 1.904 4.724 3.353 7.451 4.233v6.015h12.925v-6.014c2.882-.928 5.548-2.477 7.786-4.519l5.178 3.007 6.462-11.255-5.185-3.009c.332-1.527.5-3.042.5-4.515zm2.082 8.223l-4.558 7.937-4.765-2.766-.517.505c-2.286 2.237-5.12 3.882-8.195 4.756l-.693.198v5.533h-9.114v-5.535l-.694-.196c-2.93-.834-5.661-2.386-7.901-4.487l-.525-.496-4.72 2.869-4.716-7.841 4.713-2.864-.189-.7c-.468-1.721-.707-3.449-.707-5.136 0-1.545.205-3.143.607-4.754l.176-.701-4.772-2.769 4.557-7.937 4.767 2.764.515-.505c2.289-2.236 5.123-3.883 8.195-4.754l.694-.196v-5.537h9.114v5.536l.695.197c2.928.831 5.659 2.383 7.901 4.487l.526.495 4.717-2.868 4.717 7.84-4.714 2.865.191.7c.469 1.718.707 3.444.707 5.136 0 1.545-.205 3.141-.609 4.752l-.177.701 4.774 2.771zm12.542-57.178c-5.082 0-9.217 4.158-9.217 9.268 0 5.107 4.135 9.266 9.217 9.266 5.083 0 9.217-4.158 9.217-9.266 0-5.11-4.134-9.268-9.217-9.268zm0 16.618c-4.031 0-7.312-3.297-7.312-7.351s3.28-7.353 7.312-7.353 7.311 3.299 7.311 7.353-3.279 7.351-7.311 7.351zm20.702-2.837c.333-1.527.5-3.041.5-4.516 0-1.627-.199-3.285-.594-4.938l5.121-3.114-6.688-11.12-5.126 3.116c-2.173-1.901-4.725-3.351-7.453-4.231v-6.014h-12.925v6.015c-2.879.927-5.546 2.474-7.784 4.516l-5.18-3.007-6.461 11.256 5.185 3.01c-.331 1.523-.5 3.039-.5 4.512 0 1.628.199 3.289.594 4.939l-5.121 3.114 6.689 11.12 5.127-3.118c2.169 1.903 4.721 3.352 7.451 4.233v6.016h12.925v-6.016c2.881-.928 5.547-2.477 7.784-4.517l5.18 3.005 6.461-11.255-5.185-3.006zm-1.974 11.646l-4.766-2.768-.517.506c-2.285 2.238-5.119 3.884-8.194 4.757l-.693.196v5.535h-9.116v-5.535l-.693-.198c-2.929-.832-5.662-2.383-7.9-4.485l-.527-.496-4.718 2.869-4.717-7.841 4.713-2.866-.189-.699c-.47-1.721-.706-3.447-.706-5.137 0-1.545.204-3.143.607-4.75l.176-.705-4.772-2.767 4.558-7.938 4.766 2.764.517-.505c2.288-2.235 5.122-3.879 8.194-4.754l.693-.194v-5.535h9.116v5.533l.693.196c2.928.833 5.661 2.385 7.902 4.489l.525.493 4.719-2.868 4.716 7.841-4.713 2.866.189.698c.47 1.722.708 3.446.708 5.136 0 1.546-.204 3.145-.609 4.754l-.176.699 4.772 2.772-4.558 7.937zM681.267 134.265h-17.082l2.689-2.729c.26-.265.5-.555.72-.879 1.026.253 2.079.382 3.143.382 3.525 0 6.839-1.391 9.329-3.919 3.208-3.255 4.534-7.893 3.544-12.405l-.517-2.363-7.053 7.195-2.101 2.085-2.817-.733-2.829-.802-.783-2.842-.729-2.888 9.145-9.288-2.328-.525c-.946-.215-1.92-.322-2.892-.322-3.528 0-6.844 1.391-9.332 3.919-3.294 3.341-4.584 8.108-3.487 12.657-.318.223-.605.466-.865.73l-12.54 12.725h-.979l-10.524-8.866c.422-1.056.646-2.195.646-3.369 0-2.396-.919-4.648-2.589-6.342l-12.869-13.06c-1.67-1.693-3.89-2.627-6.25-2.627-2.361 0-4.581.935-6.251 2.629-1.669 1.693-2.589 3.945-2.589 6.341s.92 4.648 2.589 6.342l12.87 13.06c1.669 1.694 3.89 2.627 6.25 2.627 1.196 0 2.355-.242 3.426-.699l4.496 3.964h-26.458c-1.354 0-2.456 1.118-2.456 2.492v55.75c0 1.375 1.103 2.493 2.456 2.493h75.018c1.354 0 2.457-1.118 2.457-2.493v-55.75c-.001-1.373-1.104-2.49-2.458-2.49zm-22.399-10.853c.296-.301.668-.563 1.137-.801l1.007-.513-.353-1.085c-1.266-3.891-.282-8.101 2.561-10.987 1.933-1.961 4.486-3.07 7.215-3.139l-3.465 3.499-3.082 3.196 1.101 4.359 1.188 4.307 4.271 1.211 4.269 1.111 6.601-6.648c-.063 2.728-1.146 5.346-3.096 7.326-1.996 2.027-4.654 3.143-7.483 3.143-1.14 0-2.265-.183-3.344-.545l-1.07-.357-.506 1.022c-.234.475-.493.853-.79 1.155l-3.82 3.877h-12.319l9.978-10.131zm-29.685 3.093c-1.177 1.189-2.737 1.845-4.397 1.845-1.664 0-3.229-.658-4.404-1.851l-12.87-13.061c-1.176-1.193-1.823-2.78-1.823-4.468s.647-3.275 1.823-4.468c1.178-1.193 2.742-1.851 4.405-1.851 1.662 0 3.227.657 4.402 1.851l12.871 13.059c1.177 1.193 1.824 2.78 1.824 4.468 0 1.685-.647 3.27-1.819 4.463l-.012.013zm1.373 2.353l.476-.483.004-.003.003-.004.625-.634 7.749 6.53h-2.725l-6.132-5.406zm50.556 63.493h-74.709v-55.437h29.31l.145.127h10.942l-.151-.127h34.464v55.437zm-54.318-46.19v4.284c0 1.374 1.102 2.493 2.458 2.493h28.044c1.354 0 2.457-1.119 2.457-2.493v-4.284c0-1.375-1.103-2.494-2.457-2.494h-28.044c-1.356 0-2.458 1.12-2.458 2.494zm2.61.156h27.737v3.972h-27.737v-3.972zm-21.17-35.105l15.188 15.412 1.846-1.875-15.188-15.412-1.846 1.875zm5.888-5.975l-1.846 1.874 15.187 15.412 1.848-1.874-15.189-15.412z"/><path fill-rule="evenodd" clip-rule="evenodd" fill="#636464" d="M171.652 253.689c.451-2.093.68-4.17.68-6.191 0-2.231-.272-4.505-.807-6.771l6.961-4.271-9.094-15.25-6.967 4.274c-2.955-2.608-6.425-4.597-10.134-5.806v-8.246h-17.573v8.249c-3.913 1.271-7.539 3.391-10.583 6.192l-7.042-4.122-8.786 15.434 7.051 4.13c-.452 2.088-.68 4.166-.68 6.188 0 2.231.272 4.509.807 6.774l-6.962 4.271 9.093 15.249 6.97-4.275c2.951 2.611 6.421 4.596 10.131 5.807v8.249h17.573v-8.249c3.917-1.272 7.542-3.396 10.584-6.195l7.041 4.123 8.786-15.437-7.049-4.127zm-2.685 15.974l-6.48-3.794-.701.691c-3.109 3.068-6.961 5.326-11.143 6.524l-.941.269v7.592h-12.393v-7.592l-.943-.272c-3.985-1.141-7.698-3.268-10.742-6.151l-.716-.679-6.415 3.936-6.413-10.757 6.408-3.93-.259-.959c-.637-2.357-.961-4.728-.961-7.043 0-2.119.279-4.31.828-6.515l.238-.965-6.487-3.797 6.195-10.886 6.48 3.791.703-.692c3.111-3.068 6.963-5.323 11.141-6.521l.943-.267v-7.593h12.393v7.591l.943.269c3.981 1.143 7.696 3.271 10.744 6.156l.714.679 6.415-3.936 6.413 10.755-6.408 3.93.258.957c.638 2.36.961 4.727.961 7.044 0 2.118-.278 4.312-.827 6.521l-.24.958 6.487 3.803-6.195 10.883zm-14.277-23.956c-1.22-.705-15.513-8.958-16.227-9.367-.893-.511-1.795.139-1.795 1.012v18.772c0 .961.998 1.429 1.758 1.006 1.039-.577 15.386-8.871 16.264-9.39.789-.464.802-1.569 0-2.033zm-11.17-17.105c-10.422 0-18.898 8.477-18.898 18.896 0 10.421 8.477 18.898 18.898 18.898 10.42 0 18.896-8.478 18.896-18.898.001-10.42-8.476-18.896-18.896-18.896zm0 36.283c-9.588 0-17.387-7.8-17.387-17.387 0-9.586 7.799-17.385 17.387-17.385 9.586 0 17.385 7.799 17.385 17.385 0 9.587-7.799 17.387-17.385 17.387z"/><path fill="#636464" d="M552.953 252.923v-37.639c0-1.421-1.156-2.577-2.576-2.577h-13.746c-1.422 0-2.576 1.156-2.576 2.577v37.639c-4.24 3.047-6.756 7.935-6.756 13.165 0 8.935 7.27 16.205 16.205 16.205s16.205-7.271 16.205-16.205c0-5.231-2.518-10.118-6.756-13.165zm-9.449 27.652c-7.988 0-14.486-6.499-14.486-14.487 0-4.813 2.383-9.302 6.377-12.006l.377-.256v-11.122h8.496c.473 0 .859-.384.859-.858s-.387-.859-.859-.859h-8.496v-3.89h5.031c.475 0 .859-.384.859-.858 0-.476-.385-.859-.859-.859h-5.031v-3.89h8.496c.473 0 .859-.384.859-.859s-.387-.858-.859-.858h-8.496v-3.89h5.031c.475 0 .859-.384.859-.859s-.385-.858-.859-.858h-5.031v-3.89h8.496c.473 0 .859-.385.859-.859s-.387-.859-.859-.859h-8.496v-3.271c0-.474.387-.859.859-.859h13.746c.473 0 .859.386.859.859v38.542l.377.256c3.994 2.704 6.377 7.192 6.377 12.006 0 7.985-6.498 14.484-14.486 14.484zm6.662-24.358l-1.508-1.022v-8.728h-10.308v8.728l-1.51 1.022c-3.285 2.224-5.246 5.914-5.246 9.871 0 6.567 5.342 11.91 11.91 11.91 6.566 0 11.91-5.343 11.91-11.91 0-3.957-1.961-7.648-5.248-9.871zM443.503 235.125c-6.799 0-12.31 5.51-12.31 12.308 0 6.799 5.511 12.309 12.31 12.309 6.797 0 12.308-5.51 12.308-12.309 0-6.797-5.511-12.308-12.308-12.308zm1.704 3.945c-5.573 0-10.094 4.519-10.094 10.094 0 2.287.77 4.391 2.054 6.084-2.434-1.842-4.011-4.753-4.011-8.041 0-5.576 4.521-10.094 10.095-10.094 3.287 0 6.198 1.579 8.04 4.01-1.692-1.283-3.797-2.053-6.084-2.053zm-20.588-10.453c-10.411 10.412-10.411 27.354 0 37.765l3.443-3.443c-8.512-8.514-8.512-22.365 0-30.878l-3.443-3.444zm37.767 0l-3.443 3.443c8.513 8.514 8.513 22.365 0 30.878l3.443 3.443c10.411-10.411 10.411-27.353 0-37.764zm-42.485-4.717l-3.443-3.443c-14.911 14.912-14.911 39.174 0 54.086l3.443-3.443c-13.012-13.012-13.012-34.187 0-47.2zm50.648-3.443l-3.443 3.443c13.013 13.012 13.013 34.188 0 47.2l3.443 3.443c14.912-14.912 14.912-39.174 0-54.086zM0 225.265h24.294v-4.492h-24.294v4.492zm0 8.161h24.294v-4.492h-24.294v4.492zm0 8.159h24.294v-4.492h-24.294v4.492zm0 8.162h24.294v-4.492h-24.294v4.492zm0 8.159h24.294v-4.492h-24.294v4.492zm0 8.162h24.294v-4.492h-24.294v4.492zm0 8.16h24.294v-4.492h-24.294v4.492zm31.356-24.481h24.294v-4.492h-24.294v4.492zm0 8.159h24.294v-4.492h-24.294v4.492zm0 8.162h24.294v-4.492h-24.294v4.492zm0 8.16h24.294v-4.492h-24.294v4.492zm31.357-12.652v4.492h24.294v-4.492h-24.294zm0 12.652h24.294v-4.492h-24.294v4.492z"/><path fill-rule="evenodd" clip-rule="evenodd" fill="#636464" d="M268.442 229.879v1.24c.306-.215.6-.454.873-.728 2.503-2.519 2.503-6.616 0-9.134-2.502-2.519-6.576-2.519-9.078 0-2.503 2.519-2.503 6.616 0 9.134.445.448.94.812 1.467 1.1v-1.612c0-.446.09-.869.246-1.258-1.521-1.559-1.517-4.072.021-5.619 1.547-1.556 4.064-1.556 5.609 0 1.399 1.407 1.52 3.606.387 5.167.294.504.475 1.084.475 1.71zm11.104-16.975c-.05-.589-.508-1.059-1.092-1.119l-27.55-2.932c-.369-.039-.735.091-.997.356l-44.461 44.733c-.478.483-.478 1.264 0 1.747l29.919 30.102c.48.483 1.257.483 1.735 0l24.604-24.755v-3.49l-25.471 25.627-28.184-28.358 43.18-43.444 25.964 2.762 2.23 25.586-10.98 11.048v3.49l13.12-13.2c.257-.257.386-.616.354-.98l-2.371-27.173zm-14.473 12.227c-1.116 0-2.022.91-2.022 2.034v44.784c0 1.124.906 2.035 2.022 2.035 1.118 0 2.022-.911 2.022-2.035v-44.784c0-1.124-.905-2.034-2.022-2.034z"/><path fill="#636464" d="M325.592 258.078c-5.083 0-9.217 4.154-9.217 9.266 0 5.109 4.134 9.266 9.217 9.266 5.082 0 9.217-4.156 9.217-9.266 0-5.112-4.135-9.266-9.217-9.266zm0 16.615c-4.032 0-7.313-3.296-7.313-7.35s3.28-7.351 7.313-7.351 7.313 3.297 7.313 7.351-3.281 7.35-7.313 7.35zm21.202-7.349c0-1.629-.2-3.287-.595-4.938l5.121-3.115-6.688-11.118-5.126 3.116c-2.173-1.904-4.726-3.353-7.454-4.233v-6.014h-12.925v6.016c-2.877.926-5.545 2.473-7.783 4.517l-5.18-3.009-6.462 11.257 5.187 3.009c-.332 1.523-.501 3.039-.501 4.514 0 1.626.201 3.285.596 4.937l-5.123 3.117 6.69 11.116 5.126-3.115c2.171 1.904 4.724 3.353 7.451 4.233v6.015h12.925v-6.014c2.882-.928 5.548-2.477 7.786-4.519l5.178 3.007 6.462-11.255-5.185-3.009c.332-1.527.5-3.042.5-4.515zm2.082 8.223l-4.558 7.937-4.765-2.766-.517.505c-2.286 2.237-5.12 3.882-8.195 4.756l-.693.198v5.533h-9.114v-5.535l-.694-.196c-2.93-.834-5.661-2.386-7.901-4.487l-.525-.496-4.72 2.869-4.716-7.841 4.713-2.864-.189-.7c-.468-1.721-.707-3.449-.707-5.136 0-1.545.205-3.143.607-4.754l.176-.701-4.772-2.769 4.557-7.937 4.767 2.764.515-.505c2.289-2.236 5.123-3.883 8.195-4.754l.694-.196v-5.537h9.114v5.536l.695.197c2.928.831 5.659 2.383 7.901 4.487l.526.495 4.717-2.868 4.717 7.84-4.714 2.865.191.7c.469 1.718.707 3.444.707 5.136 0 1.545-.205 3.141-.609 4.752l-.177.701 4.774 2.771zm33.244-43.397c.333-1.527.5-3.041.5-4.516 0-1.627-.199-3.285-.594-4.938l5.121-3.114-6.688-11.12-5.126 3.116c-2.173-1.901-4.725-3.351-7.453-4.231v-6.014h-12.925v6.015c-2.879.927-5.546 2.474-7.784 4.516l-5.18-3.007-6.461 11.256 5.185 3.01c-.331 1.523-.5 3.039-.5 4.512 0 1.628.199 3.289.594 4.939l-5.121 3.114 6.689 11.12 5.127-3.118c2.169 1.903 4.721 3.352 7.451 4.233v6.016h12.925v-6.016c2.881-.928 5.547-2.477 7.784-4.517l5.18 3.005 6.461-11.255-5.185-3.006zm-1.974 11.646l-4.766-2.768-.517.506c-2.285 2.238-5.119 3.884-8.194 4.757l-.693.196v5.535h-9.116v-5.535l-.693-.198c-2.929-.832-5.662-2.383-7.9-4.485l-.527-.496-4.718 2.869-4.717-7.841 4.713-2.866-.189-.699c-.47-1.721-.706-3.447-.706-5.137 0-1.545.204-3.143.607-4.75l.176-.705-4.772-2.767 4.558-7.938 4.766 2.764.517-.505c2.288-2.235 5.122-3.879 8.194-4.754l.693-.194v-5.535h9.116v5.533l.693.196c2.928.833 5.661 2.385 7.902 4.489l.525.493 4.719-2.868 4.716 7.841-4.713 2.866.189.698c.47 1.722.708 3.446.708 5.136 0 1.546-.204 3.145-.609 4.754l-.176.699 4.772 2.772-4.558 7.937zm-18.728-25.427c-5.082 0-9.217 4.158-9.217 9.268 0 5.107 4.135 9.266 9.217 9.266 5.083 0 9.217-4.158 9.217-9.266 0-5.11-4.134-9.268-9.217-9.268zm0 16.618c-4.031 0-7.312-3.297-7.312-7.351s3.28-7.353 7.312-7.353 7.311 3.299 7.311 7.353-3.279 7.351-7.311 7.351zM681.267 234.265h-17.082l2.689-2.729c.26-.265.5-.555.72-.879 1.026.253 2.079.382 3.143.382 3.525 0 6.839-1.391 9.329-3.919 3.208-3.255 4.534-7.893 3.544-12.405l-.517-2.363-7.053 7.195-2.101 2.085-2.817-.733-2.829-.802-.783-2.842-.729-2.888 9.145-9.288-2.328-.525c-.946-.215-1.92-.322-2.892-.322-3.528 0-6.844 1.391-9.332 3.919-3.294 3.341-4.584 8.108-3.487 12.657-.318.223-.605.466-.865.73l-12.54 12.725h-.979l-10.524-8.866c.422-1.056.646-2.195.646-3.369 0-2.396-.919-4.648-2.589-6.342l-12.869-13.06c-1.67-1.693-3.89-2.627-6.25-2.627-2.361 0-4.581.935-6.251 2.629-1.669 1.693-2.589 3.945-2.589 6.341s.92 4.648 2.589 6.342l12.87 13.06c1.669 1.694 3.89 2.627 6.25 2.627 1.196 0 2.355-.242 3.426-.699l4.496 3.964h-26.458c-1.354 0-2.456 1.118-2.456 2.492v55.75c0 1.375 1.103 2.493 2.456 2.493h75.018c1.354 0 2.457-1.118 2.457-2.493v-55.75c-.001-1.373-1.104-2.49-2.458-2.49zm-22.399-10.853c.296-.301.668-.563 1.137-.801l1.007-.513-.353-1.085c-1.266-3.891-.282-8.101 2.561-10.987 1.933-1.961 4.486-3.07 7.215-3.139l-3.465 3.499-3.082 3.196 1.101 4.359 1.188 4.307 4.271 1.211 4.269 1.111 6.601-6.648c-.063 2.728-1.146 5.346-3.096 7.326-1.996 2.027-4.654 3.143-7.483 3.143-1.14 0-2.265-.183-3.344-.545l-1.07-.357-.506 1.022c-.234.475-.493.853-.79 1.155l-3.82 3.877h-12.319l9.978-10.131zm-29.685 3.093c-1.177 1.189-2.737 1.845-4.397 1.845-1.664 0-3.229-.658-4.404-1.851l-12.87-13.061c-1.176-1.193-1.823-2.78-1.823-4.468s.647-3.275 1.823-4.468c1.178-1.193 2.742-1.851 4.405-1.851 1.662 0 3.227.657 4.402 1.851l12.871 13.059c1.177 1.193 1.824 2.78 1.824 4.468 0 1.685-.647 3.27-1.819 4.463l-.012.013zm1.373 2.353l.476-.483.004-.003.003-.004.625-.634 7.749 6.53h-2.725l-6.132-5.406zm50.556 63.493h-74.709v-55.437h29.31l.145.127h10.942l-.151-.127h34.464v55.437zm-54.318-46.19v4.284c0 1.374 1.102 2.493 2.458 2.493h28.044c1.354 0 2.457-1.119 2.457-2.493v-4.284c0-1.375-1.103-2.494-2.457-2.494h-28.044c-1.356 0-2.458 1.12-2.458 2.494zm2.61.156h27.737v3.972h-27.737v-3.972zm-21.17-35.105l15.188 15.412 1.846-1.875-15.188-15.412-1.846 1.875zm5.888-5.975l-1.846 1.874 15.187 15.412 1.848-1.874-15.189-15.412z"/></svg>