<?xml version="1.0" encoding="utf-8"?>
<!-- Generator: Adobe Illustrator 15.1.0, SVG Export Plug-In  -->
<!DOCTYPE svg PUBLIC "-//W3C//DTD SVG 1.1//EN" "http://www.w3.org/Graphics/SVG/1.1/DTD/svg11.dtd" [
	<!ENTITY ns_flows "http://ns.adobe.com/Flows/1.0/">
]>
<svg version="1.1"
	 xmlns="http://www.w3.org/2000/svg" xmlns:xlink="http://www.w3.org/1999/xlink" xmlns:a="http://ns.adobe.com/AdobeSVGViewerExtensions/3.0/"
	 x="0px" y="0px" width="160px" height="120px" viewBox="-17.511 -23.93 160 120" enable-background="new -17.511 -23.93 160 120"
	 xml:space="preserve">
<defs>
</defs>
<g>
	<g>
		<path fill="#0076A4" d="M0,27.066V96.07h124.979V27.066H0z M1.538,33.14h39.97v6.669l-1.3-0.31v4.919l1.3-0.279v17.739l-1.3-0.31
			v4.919l1.3-0.28v7.438H1.538V33.14z M123.439,94.563H1.538V81.001h121.901V94.563z M123.439,79.494H1.538v-4.343h121.901V79.494z
			 M43.046,62.244V43.808l3.029-0.652v-2.26l-3.029-0.721V33.14h33.459v40.505H43.046v-7.768l3.029-0.652v-2.26L43.046,62.244z
			 M111.503,43.718v18.625l-2.612,0.622v2.26l2.612,0.563v7.857H78.044V33.14h33.459v7.134l-2.612,0.622v2.26L111.503,43.718z
			 M123.439,73.645h-10.398v-7.526l1.717,0.369v-4.919l-1.717,0.408V44.049l1.717,0.369v-4.919l-1.717,0.408V33.14h10.398V73.645z
			 M123.439,31.633H1.538v-3.06h121.901V31.633z M73.341,49.67h-3.798v3.723h3.798V49.67z M84.6,49.67h-3.799v3.723H84.6V49.67z
			 M107.253,60.815H80.801c-0.424,0-0.769,0.337-0.769,0.753c0,0.417,0.345,0.754,0.769,0.754h26.452
			c0.425,0,0.769-0.337,0.769-0.754C108.021,61.152,107.678,60.815,107.253,60.815z M107.253,64.072H80.801
			c-0.424,0-0.769,0.337-0.769,0.754c0,0.416,0.345,0.753,0.769,0.753h26.452c0.425,0,0.769-0.337,0.769-0.753
			C108.021,64.409,107.678,64.072,107.253,64.072z M107.253,67.329H80.801c-0.424,0-0.769,0.337-0.769,0.754
			c0,0.416,0.345,0.754,0.769,0.754h26.452c0.425,0,0.769-0.338,0.769-0.754C108.021,67.666,107.678,67.329,107.253,67.329z
			 M33.053,37.615H8.555c-0.425,0-0.769,0.338-0.769,0.754v29.714c0,0.416,0.344,0.754,0.769,0.754h24.498
			c0.425,0,0.769-0.338,0.769-0.754V38.369C33.822,37.953,33.478,37.615,33.053,37.615z M32.284,67.329H9.324V39.123h22.96V67.329z
			 M29.96,41.028H17.752v15.289H29.96V41.028z M29.96,58.312H11.648v6.647H29.96V58.312z M62.19,26.345
			c4.23,0,7.673-3.442,7.673-7.673c0-3.746-2.7-6.874-6.256-7.541V1.417C63.607,0.635,62.973,0,62.19,0
			c-0.783,0-1.418,0.635-1.418,1.417v11c0,0.783,0.635,1.417,1.418,1.417c2.667,0,4.837,2.17,4.837,4.838s-2.17,4.838-4.837,4.838
			c-2.668,0-4.838-2.17-4.838-4.838c0-0.782-0.634-1.417-1.417-1.417s-1.417,0.635-1.417,1.417
			C54.518,22.902,57.96,26.345,62.19,26.345z"/>
	</g>
</g>
</svg>
