<?xml version="1.0" encoding="utf-8"?>
<!-- Generator: Adobe Illustrator 15.1.0, SVG Export Plug-In  -->
<!DOCTYPE svg PUBLIC "-//W3C//DTD SVG 1.1//EN" "http://www.w3.org/Graphics/SVG/1.1/DTD/svg11.dtd" [
	<!ENTITY ns_flows "http://ns.adobe.com/Flows/1.0/">
]>
<svg version="1.1"
	 xmlns="http://www.w3.org/2000/svg" xmlns:xlink="http://www.w3.org/1999/xlink" xmlns:a="http://ns.adobe.com/AdobeSVGViewerExtensions/3.0/"
	 x="0px" y="0px" width="160px" height="120px" viewBox="0 -32.225 160 120" enable-background="new 0 -32.225 160 120"
	 xml:space="preserve">
<defs>
</defs>
<path fill="#0076A4" d="M158.361,76.588c-1.692-1.808-17.668-9.114-20.831-10.552l-0.132-6.639c0.677-0.357,2.032-1.242,2.962-2.976
	c0.737-1.377,1.142-2.689,1.496-3.848c0.222-0.724,0.432-1.407,0.7-2.044c0.43-1.018,0.41-2.639,0.389-4.356
	c-0.018-1.448-0.036-2.945,0.222-4.025c0.38-1.598,1.605-7.904,0.66-9.587c-0.92-1.634-7.631-3.897-11.967-4.035l-0.28-0.004
	c-3.515,0-6.594,2.048-8.843,3.543c-0.685,0.457-1.279,0.85-1.764,1.104c-2.439,1.284-3.084,4.565-3.084,6.122
	c0,1.348,0.596,4.994,0.713,5.703c-0.127,0.637-0.652,3.588,0.037,5.901c0.681,2.289,3.641,7.729,4.172,8.697v6.667
	c-0.521,0.155-1.469,0.452-2.682,0.868c-8.106-4.243-20.827-10.06-24.131-11.559l-0.195-9.837c1.003-0.527,3.011-1.838,4.388-4.406
	c1.092-2.039,1.69-3.984,2.216-5.701c0.329-1.07,0.64-2.084,1.038-3.024c0.636-1.509,0.606-3.912,0.575-6.457
	c-0.026-2.144-0.052-4.362,0.328-5.961c0.563-2.366,2.379-11.711,0.979-14.203c-1.361-2.42-11.304-5.772-17.728-5.976L87.184,0
	c-5.206,0-9.768,3.032-13.1,5.249c-1.014,0.677-1.895,1.259-2.611,1.637c-3.614,1.902-4.568,6.764-4.568,9.068
	c0,1.997,0.881,7.399,1.056,8.448c-0.189,0.943-0.968,5.317,0.055,8.742c1.008,3.393,5.393,11.453,6.18,12.885v9.876
	c-2.884,0.869-14.394,4.529-23.367,10.063c-2.012,1.241-3.595,2.74-4.84,4.359c-4.007-1.917-7.826-3.663-9.206-4.289l-0.132-6.639
	c0.677-0.357,2.032-1.242,2.961-2.976c0.738-1.377,1.142-2.689,1.497-3.848c0.222-0.724,0.432-1.407,0.7-2.044
	c0.429-1.018,0.41-2.639,0.388-4.356c-0.018-1.448-0.035-2.945,0.222-4.025c0.38-1.598,1.606-7.904,0.661-9.587
	c-0.92-1.634-7.631-3.897-11.967-4.035l-0.28-0.004c-3.515,0-6.594,2.048-8.843,3.543c-0.685,0.457-1.279,0.85-1.762,1.104
	c-2.44,1.284-3.085,4.565-3.085,6.122c0,1.348,0.595,4.994,0.713,5.703c-0.127,0.637-0.653,3.588,0.038,5.901
	c0.68,2.289,3.64,7.729,4.171,8.697v6.667c-1.948,0.585-9.717,3.056-15.774,6.791c-7.201,4.442-6.271,13.772-6.228,14.169
	l0.06,0.554h41.57h0.757h84.592h2.184h30.734l0.02-0.6C160.007,86.302,160.223,78.574,158.361,76.588 M6.956,74.108
	c6.792-4.188,15.819-6.762,15.911-6.788l0.458-0.129v-7.914l-0.077-0.138c-0.036-0.063-3.452-6.257-4.148-8.594
	c-0.669-2.243,0.006-5.376,0.012-5.408l0.025-0.116l-0.02-0.116c-0.008-0.042-0.716-4.251-0.716-5.612
	c0-1.508,0.643-4.091,2.416-5.023c0.543-0.285,1.161-0.695,1.875-1.172c2.114-1.406,5.011-3.33,8.139-3.33l0.241,0.004
	c4.463,0.141,10.369,2.443,10.904,3.395c0.5,0.889-0.021,5.484-0.786,8.699c-0.292,1.227-0.273,2.801-0.254,4.323
	c0.019,1.517,0.038,3.083-0.292,3.864c-0.292,0.694-0.511,1.406-0.742,2.16c-0.355,1.159-0.723,2.356-1.406,3.629
	c-1.024,1.911-2.695,2.581-2.708,2.586l-0.413,0.156l0.162,8.256l0.361,0.163c2.803,1.269,6.161,2.826,9.358,4.354
	c-4.037,6.066-3.821,13.341-3.691,15.174H1.278C1.204,84.52,1.371,77.553,6.956,74.108 M43.405,85.932
	c-0.112-2.978,0.135-13.301,8.411-18.403c10.062-6.204,23.433-10.018,23.57-10.055l0.677-0.19V45.559l-0.114-0.205
	c-0.052-0.093-5.113-9.268-6.145-12.73c-0.99-3.322,0.009-7.964,0.018-8.01l0.038-0.173l-0.029-0.172
	c-0.012-0.063-1.061-6.297-1.061-8.314c0-2.233,0.953-6.06,3.579-7.441c0.805-0.423,1.72-1.032,2.778-1.736
	c3.132-2.083,7.423-4.933,12.056-4.933l0.358,0.006c6.613,0.207,15.359,3.62,16.154,5.029c0.739,1.315-0.034,8.125-1.166,12.885
	c-0.433,1.818-0.404,4.15-0.378,6.407c0.028,2.245,0.058,4.565-0.434,5.724c-0.433,1.028-0.755,2.084-1.098,3.2
	c-0.526,1.717-1.072,3.49-2.083,5.375c-1.516,2.831-3.992,3.824-4.013,3.83l-0.613,0.232l0.243,12.23l0.533,0.241
	c11.395,5.157,29.004,13.533,30.799,15.45c1.581,1.687,2.008,8.806,1.923,13.479H43.405z M158.734,86.531h-29.471
	c0.06-2.331,0.181-12.568-2.405-15.329c-0.627-0.668-2.572-1.845-5.213-3.268c1.2-0.395,1.943-0.606,1.97-0.614l0.457-0.129v-7.914
	l-0.076-0.138c-0.035-0.063-3.452-6.257-4.147-8.594c-0.669-2.243,0.006-5.376,0.012-5.408l0.025-0.116l-0.02-0.116
	c-0.008-0.042-0.716-4.251-0.716-5.612c0-1.508,0.643-4.091,2.416-5.023c0.543-0.285,1.161-0.695,1.875-1.172
	c2.114-1.406,5.011-3.33,8.139-3.33l0.241,0.004c4.464,0.141,10.368,2.443,10.904,3.395c0.5,0.889-0.021,5.484-0.787,8.699
	c-0.292,1.227-0.272,2.801-0.255,4.323c0.02,1.517,0.039,3.083-0.292,3.864c-0.291,0.694-0.51,1.406-0.741,2.16
	c-0.355,1.159-0.724,2.356-1.406,3.629c-1.023,1.911-2.694,2.581-2.708,2.586l-0.414,0.156l0.163,8.256l0.36,0.163
	c7.691,3.482,19.578,9.135,20.791,10.429C158.503,78.57,158.791,83.377,158.734,86.531"/>
</svg>
