<?xml version="1.0" encoding="utf-8"?>
<!-- Generator: Adobe Illustrator 15.1.0, SVG Export Plug-In  -->
<!DOCTYPE svg PUBLIC "-//W3C//DTD SVG 1.1//EN" "http://www.w3.org/Graphics/SVG/1.1/DTD/svg11.dtd" [
	<!ENTITY ns_flows "http://ns.adobe.com/Flows/1.0/">
]>
<svg version="1.1"
	 xmlns="http://www.w3.org/2000/svg" xmlns:xlink="http://www.w3.org/1999/xlink" xmlns:a="http://ns.adobe.com/AdobeSVGViewerExtensions/3.0/"
	 x="0px" y="0px" width="160px" height="120px" viewBox="-36.003 -18.016 160 120" enable-background="new -36.003 -18.016 160 120"
	 xml:space="preserve">
<defs>
</defs>
<g>
	<g>
		<path fill="#0076A4" d="M84.759,36.417H67.136l2.304-2.309c0.242-0.243,0.468-0.505,0.68-0.79
			c1.063,0.241,2.151,0.363,3.249,0.363c3.908,0,7.581-1.523,10.342-4.288c3.556-3.563,5.024-8.638,3.928-13.575l-0.7-3.154
			l-8.079,8.14l-2.13,2.087l-2.848-0.73l-2.868-0.804l-0.792-2.837l-0.74-2.89L79.688,5.401L76.54,4.7
			c-1.05-0.233-2.128-0.353-3.204-0.353c-3.912,0-7.586,1.523-10.346,4.288c-3.594,3.602-5.036,8.712-3.919,13.617
			c-0.284,0.212-0.546,0.438-0.788,0.68l-13.46,13.484h-1.058l-11.026-9.172c0.433-1.114,0.666-2.308,0.666-3.539
			c0-2.606-1.013-5.058-2.853-6.901L16.631,2.859C14.791,1.016,12.345,0,9.742,0S4.693,1.016,2.854,2.859S0,7.153,0,9.761
			c0,2.606,1.014,5.058,2.854,6.901l13.921,13.945c1.84,1.843,4.286,2.858,6.889,2.858c1.279,0,2.521-0.248,3.671-0.717l4.215,3.668
			H3.614c-1.66,0-3.011,1.354-3.011,3.017v59.534c0,1.663,1.351,3.017,3.011,3.017h81.145c1.66,0,3.011-1.354,3.011-3.017V39.434
			C87.77,37.771,86.419,36.417,84.759,36.417z M60.781,25.433c0.292-0.293,0.664-0.552,1.138-0.79l1.36-0.685l-0.477-1.449
			c-1.325-4.028-0.297-8.386,2.685-11.372c1.806-1.809,4.128-2.917,6.639-3.188l-6.558,6.631l1.242,4.854l1.338,4.791l4.818,1.351
			l4.811,1.234l6.622-6.572c-0.268,2.484-1.366,4.831-3.187,6.653c-2.093,2.098-4.88,3.253-7.845,3.253
			c-1.194,0-2.374-0.189-3.506-0.563l-1.448-0.479l-0.683,1.366c-0.236,0.472-0.494,0.844-0.788,1.139l-4.03,4.038H50.586
			L60.781,25.433z M28.292,28.355c-1.237,1.236-2.881,1.918-4.629,1.918c-1.751,0-3.397-0.684-4.636-1.924L5.107,14.404
			c-1.238-1.24-1.92-2.89-1.92-4.644c0-1.755,0.682-3.403,1.92-4.645c1.237-1.24,2.884-1.924,4.635-1.924s3.397,0.684,4.635,1.924
			l13.922,13.946c1.238,1.24,1.92,2.889,1.92,4.644c0,1.751-0.681,3.398-1.916,4.639L28.292,28.355z M30.171,30.989l0.379-0.38
			c0,0,0.001-0.001,0.002-0.002s0.001-0.001,0.002-0.002l0.561-0.562l7.663,6.374h-2.37L30.171,30.989z M84.239,98.446H4.134V39.954
			h80.105V98.446z M28.494,57.066H58.83c1.66,0,3.012-1.354,3.012-3.017v-4.574c0-1.663-1.352-3.017-3.012-3.017H28.494
			c-1.66,0-3.011,1.354-3.011,3.017v4.574C25.483,55.713,26.834,57.066,28.494,57.066z M29.014,49.996h29.297v3.533H29.014V49.996z
			 M7.66,10.251c-0.497-0.498-1.305-0.498-1.803,0c-0.498,0.499-0.498,1.308,0,1.806l16.43,16.457
			c0.248,0.25,0.575,0.375,0.901,0.375c0.325,0,0.652-0.125,0.901-0.375c0.497-0.498,0.497-1.307,0-1.806L7.66,10.251z
			 M28.461,22.329L12.032,5.871c-0.497-0.498-1.305-0.498-1.803,0s-0.498,1.308,0,1.806l16.429,16.458
			c0.248,0.249,0.575,0.374,0.901,0.374s0.652-0.125,0.901-0.374C28.959,23.637,28.959,22.828,28.461,22.329z"/>
	</g>
</g>
</svg>
