<?xml version="1.0" encoding="utf-8"?>
<!-- Generator: Adobe Illustrator 15.1.0, SVG Export Plug-In  -->
<!DOCTYPE svg PUBLIC "-//W3C//DTD SVG 1.1//EN" "http://www.w3.org/Graphics/SVG/1.1/DTD/svg11.dtd" [
	<!ENTITY ns_flows "http://ns.adobe.com/Flows/1.0/">
]>
<svg version="1.1"
	 xmlns="http://www.w3.org/2000/svg" xmlns:xlink="http://www.w3.org/1999/xlink" xmlns:a="http://ns.adobe.com/AdobeSVGViewerExtensions/3.0/"
	 x="0px" y="0px" width="160px" height="120px" viewBox="-38.505 -39.01 160 120" enable-background="new -38.505 -39.01 160 120"
	 xml:space="preserve">
<defs>
</defs>
<g>
	<g>
		<path fill-rule="evenodd" clip-rule="evenodd" fill="#0076A4" d="M62.993,4.999V0h-3v4.999H22.997V0h-2.999v4.999H0V80.99h82.989
			V4.999H62.993z M62.993,13.998V11.51c0.604,0.457,1,1.174,1,1.988c0,1.379-1.121,2.501-2.5,2.501s-2.5-1.122-2.5-2.501
			c0-0.814,0.396-1.531,1-1.988v2.488H62.993z M22.997,13.998v-2.489c0.604,0.457,1.001,1.175,1.001,1.989
			c0,1.379-1.122,2.501-2.5,2.501c-1.38,0-2.502-1.122-2.502-2.501c0-0.814,0.397-1.532,1.002-1.989v2.489H22.997z M79.991,77.99H3
			V25.997h76.991V77.99z M79.991,22.997H3V7.999h16.998v2.351c-1.178,0.563-2,1.757-2,3.148c0,1.93,1.569,3.5,3.5,3.5
			c1.929,0,3.499-1.57,3.499-3.5c0-1.391-0.822-2.585-2-3.148V7.999h36.996v2.351c-1.178,0.563-2,1.757-2,3.148
			c0,1.93,1.57,3.5,3.5,3.5s3.5-1.57,3.5-3.5c0-1.391-0.822-2.584-2-3.148V7.999h16.998V22.997z M69.495,47.982
			c4.129,0,7.488-3.359,7.488-7.489c0-4.129-3.359-7.488-7.488-7.488c-2.867,0-5.359,1.62-6.618,3.99h-5.884v6.999h5.885
			C64.137,46.363,66.628,47.982,69.495,47.982z M63.993,38.789c0.729-2.346,2.92-4.054,5.502-4.054c3.174,0,5.758,2.583,5.758,5.758
			s-2.584,5.759-5.758,5.759c-2.582,0-4.773-1.709-5.502-4.055V38.789z M18.998,36.995h-7v6.999h7V36.995z M27.996,36.995h-6.999
			v6.999h6.999V36.995z M36.996,36.995h-7v6.999h7V36.995z M45.995,36.995h-7v6.999h7V36.995z M54.993,36.995h-6.998v6.999h6.998
			V36.995z M72.991,36.995h-6.998v6.999h6.998V36.995z M18.998,48.994h-7v6.999h7V48.994z M27.996,48.994h-6.999v6.999h6.999V48.994
			z M36.996,48.994h-7v6.999h7V48.994z M45.995,48.994h-7v6.999h7V48.994z M54.993,48.994h-6.998v6.999h6.998V48.994z
			 M63.993,48.994h-7v6.999h7V48.994z M65.993,55.993h6.998v-6.999h-6.998V55.993z M18.998,60.992h-7v6.999h7V60.992z
			 M27.996,60.992h-6.999v6.999h6.999V60.992z M36.996,60.992h-7v6.999h7V60.992z M45.995,60.992h-7v6.999h7V60.992z M54.993,60.992
			h-6.998v6.999h6.998V60.992z"/>
	</g>
</g>
</svg>
