<?xml version="1.0" encoding="utf-8"?>
<!-- Generator: Adobe Illustrator 15.1.0, SVG Export Plug-In  -->
<!DOCTYPE svg PUBLIC "-//W3C//DTD SVG 1.1//EN" "http://www.w3.org/Graphics/SVG/1.1/DTD/svg11.dtd" [
	<!ENTITY ns_flows "http://ns.adobe.com/Flows/1.0/">
]>
<svg version="1.1"
	 xmlns="http://www.w3.org/2000/svg" xmlns:xlink="http://www.w3.org/1999/xlink" xmlns:a="http://ns.adobe.com/AdobeSVGViewerExtensions/3.0/"
	 x="0px" y="0px" width="160px" height="120px" viewBox="-21.017 -45.025 160 120" enable-background="new -21.017 -45.025 160 120"
	 xml:space="preserve">
<defs>
</defs>
<g>
	<g>
		<path fill="#0076A4" d="M29.053,39.592c0.291-0.413,0.365-0.883,0.223-1.409c-0.148-0.552-0.448-0.934-0.9-1.146
			s-0.959-0.244-1.517-0.096l-8.523,2.273c-0.555,0.148-0.976,0.429-1.265,0.844c-0.288,0.415-0.358,0.894-0.212,1.438
			c0.144,0.534,0.444,0.906,0.903,1.116c0.458,0.208,0.962,0.239,1.512,0.093l2.325-0.62L24.72,53.68
			c0.164,0.609,0.48,1.075,0.949,1.397c0.469,0.321,1.005,0.401,1.608,0.24c0.617-0.164,1.044-0.499,1.28-1.004
			c0.236-0.506,0.272-1.067,0.106-1.686l-3.122-11.596l2.256-0.602C28.344,40.286,28.763,40.005,29.053,39.592z M40.933,36.424
			c0.287-0.412,0.36-0.882,0.218-1.408c-0.148-0.552-0.447-0.935-0.895-1.148c-0.449-0.214-0.957-0.245-1.523-0.094l-5.58,1.488
			c-0.751,0.2-1.277,0.566-1.583,1.1c-0.306,0.532-0.359,1.168-0.16,1.906l3.299,12.255c0.202,0.751,0.567,1.277,1.095,1.581
			c0.528,0.304,1.17,0.354,1.924,0.153l5.58-1.488c0.555-0.147,0.976-0.428,1.262-0.84c0.287-0.411,0.359-0.883,0.216-1.414
			c-0.149-0.556-0.448-0.938-0.895-1.148c-0.448-0.209-0.955-0.238-1.521-0.087l-4.043,1.078l-0.887-3.291l3.657-0.976
			c0.541-0.144,0.959-0.424,1.255-0.837c0.294-0.415,0.37-0.886,0.229-1.412c-0.148-0.552-0.452-0.933-0.911-1.144
			c-0.458-0.211-0.963-0.243-1.512-0.097l-3.657,0.975l-0.87-3.234l4.043-1.078C40.227,37.116,40.646,36.836,40.933,36.424z
			 M52.474,44.884c-0.62,0.165-1.294,0.207-2.021,0.126l-1.492-0.143c-0.315-0.044-0.666-0.016-1.049,0.086
			c-0.45,0.12-0.795,0.406-1.035,0.857c-0.24,0.45-0.301,0.899-0.18,1.348c0.122,0.456,0.365,0.827,0.728,1.112
			c0.363,0.285,0.791,0.474,1.285,0.564c1.405,0.265,2.979,0.165,4.722-0.299c0.954-0.255,1.828-0.644,2.622-1.167
			c0.796-0.522,1.398-1.175,1.809-1.956c0.699-1.271,0.811-2.785,0.338-4.543c-0.388-1.439-1.167-2.408-2.336-2.908
			c-1.171-0.499-2.641-0.75-4.41-0.754l-1.125,0.001c-1.132,0.008-1.792-0.337-1.979-1.033c-0.119-0.443-0.011-0.842,0.328-1.193
			c0.338-0.354,0.751-0.595,1.239-0.725c0.558-0.149,1.176-0.196,1.856-0.143l0.787,0.063c0.182,0.01,0.386-0.016,0.61-0.075
			c0.52-0.139,0.898-0.439,1.136-0.903c0.237-0.463,0.284-0.961,0.142-1.491c-0.163-0.605-0.563-1.014-1.2-1.227
			c-0.639-0.212-1.342-0.29-2.11-0.234s-1.476,0.17-2.121,0.343c-1.075,0.286-2.03,0.777-2.867,1.472
			c-0.834,0.693-1.43,1.53-1.782,2.509s-0.382,2.014-0.088,3.104c0.264,0.979,0.667,1.722,1.212,2.228
			c0.544,0.506,1.179,0.84,1.9,1.003c0.723,0.163,1.648,0.257,2.775,0.28c0.873,0.025,1.491,0.048,1.854,0.068
			c0.362,0.021,0.749,0.096,1.158,0.222c0.499,0.16,0.823,0.519,0.973,1.074c0.147,0.547,0.044,1.035-0.31,1.466
			C53.488,44.446,53.033,44.735,52.474,44.884z M68.088,29.181c0.29-0.413,0.365-0.883,0.224-1.409
			c-0.148-0.552-0.45-0.934-0.902-1.146s-0.957-0.245-1.516-0.096l-8.525,2.273c-0.555,0.148-0.976,0.429-1.264,0.844
			c-0.287,0.414-0.359,0.894-0.213,1.438c0.145,0.534,0.446,0.906,0.903,1.115c0.459,0.209,0.962,0.24,1.513,0.094l2.325-0.62
			l3.121,11.596c0.164,0.609,0.48,1.075,0.949,1.397c0.469,0.321,1.005,0.401,1.608,0.24c0.617-0.164,1.044-0.499,1.28-1.005
			c0.237-0.506,0.272-1.066,0.106-1.685l-3.121-11.596l2.256-0.602C67.379,29.875,67.797,29.594,68.088,29.181z M79.969,26.012
			c0.285-0.412,0.358-0.881,0.217-1.407c-0.148-0.552-0.447-0.935-0.896-1.148s-0.955-0.245-1.522-0.094l-5.581,1.488
			c-0.749,0.2-1.277,0.566-1.583,1.099c-0.306,0.533-0.358,1.169-0.16,1.907l3.299,12.255c0.202,0.75,0.567,1.277,1.096,1.581
			c0.527,0.304,1.17,0.354,1.924,0.153l5.581-1.488c0.554-0.147,0.975-0.428,1.261-0.84s0.358-0.883,0.216-1.414
			c-0.149-0.556-0.448-0.938-0.896-1.148s-0.953-0.238-1.521-0.087l-4.044,1.078l-0.886-3.291l3.656-0.976
			c0.541-0.144,0.96-0.424,1.255-0.838c0.294-0.414,0.371-0.885,0.229-1.411c-0.148-0.552-0.452-0.933-0.91-1.145
			c-0.46-0.21-0.964-0.243-1.514-0.096l-3.656,0.975l-0.871-3.234l4.044-1.078C79.261,26.705,79.682,26.424,79.969,26.012z
			 M97.474,23c-0.868-1.11-1.923-1.905-3.163-2.384c-1.695-0.658-3.652-0.692-5.868-0.102L84.755,21.5
			c-0.75,0.199-1.278,0.566-1.583,1.099c-0.306,0.532-0.359,1.168-0.16,1.906l3.285,12.205c0.198,0.738,0.561,1.263,1.087,1.573
			c0.525,0.312,1.153,0.37,1.882,0.176l4.314-1.098c1.641-0.438,2.972-1.184,3.992-2.238c1.02-1.055,1.676-2.312,1.972-3.772
			c0.294-1.462,0.224-3.001-0.212-4.618C98.962,25.355,98.342,24.111,97.474,23z M94.866,32.158
			c-0.52,0.956-1.509,1.629-2.967,2.018l-1.944,0.519l-2.743-10.189l1.507-0.402c1.559-0.415,2.82-0.379,3.787,0.11
			c1.284,0.622,2.167,1.833,2.652,3.633C95.612,29.534,95.515,30.97,94.866,32.158z M117.909,44.491L106.5,2.106
			c-0.407-1.514-1.976-2.415-3.496-2.009L2.116,27.006c-1.521,0.405-2.426,1.967-2.019,3.479L11.507,72.87
			c0.407,1.514,1.976,2.414,3.496,2.009l76.105-20.298c0.893-0.238,1.423-1.152,1.184-2.041s-1.157-1.416-2.05-1.178L14.613,71.534
			L3.459,30.097l99.935-26.655l11.281,41.911c0.239,0.889,1.157,1.416,2.05,1.178S118.148,45.379,117.909,44.491z"/>
	</g>
</g>
</svg>
