<!DOCTYPE svg PUBLIC "-//W3C//DTD SVG 1.1//EN" "http://www.w3.org/Graphics/SVG/1.1/DTD/svg11.dtd" [
	<!ENTITY ns_flows "http://ns.adobe.com/Flows/1.0/">
]><svg xmlns="http://www.w3.org/2000/svg" width="18" height="18" viewBox="0 0 18 18"><path fill-rule="evenodd" clip-rule="evenodd" fill="#3777BC" d="M9 0c-4.971 0-9 4.03-9 9s4.029 9 9 9 9-4.03 9-9-4.029-9-9-9z"/><path fill-rule="evenodd" clip-rule="evenodd" fill="#fff" d="M8.07 12.142h1.921v1.921h-1.921zM8.985 3.938c-1.048 0-1.895.285-2.54.854-.644.57-.991 1.263-1.041 2.078l1.764.219c.123-.569.349-.993.677-1.272.328-.277.735-.417 1.222-.417.507 0 .909.134 1.208.399.299.268.447.588.447.961 0 .27-.084.516-.252.738-.109.143-.445.44-1.007.896-.559.458-.933.868-1.12 1.232-.187.364-.279.829-.279 1.395l.007.458h1.744c-.011-.528.035-.896.133-1.101.098-.205.35-.476.756-.813.783-.652 1.295-1.166 1.533-1.545.24-.378.359-.78.359-1.204 0-.766-.326-1.437-.977-2.014-.652-.576-1.529-.864-2.634-.864z"/></svg>