<!DOCTYPE svg PUBLIC "-//W3C//DTD SVG 1.1//EN" "http://www.w3.org/Graphics/SVG/1.1/DTD/svg11.dtd" [
	<!ENTITY ns_flows "http://ns.adobe.com/Flows/1.0/">
]><svg xmlns="http://www.w3.org/2000/svg" width="23" height="23" viewBox="0 0 23 23"><path fill="#3A7BBF" d="M11.501 0c-6.352 0-11.501 5.148-11.501 11.5s5.149 11.5 11.501 11.5c6.351 0 11.499-5.148 11.499-11.5s-5.148-11.5-11.499-11.5zm6.495 12.91l-9.49.119 3.746 3.809c.483.492.483 1.289 0 1.781-.484.492-1.269.492-1.752 0l-6.132-6.234c-.483-.492-.483-1.291 0-1.783l6.131-6.235c.484-.493 1.269-.493 1.752-.001.484.492.484 1.29 0 1.783l-3.745 3.809 9.49.118v2.834z"/></svg>