<?xml version="1.0" encoding="utf-8"?>
<!-- Generator: Adobe Illustrator 15.1.0, SVG Export Plug-In  -->
<!DOCTYPE svg PUBLIC "-//W3C//DTD SVG 1.1//EN" "http://www.w3.org/Graphics/SVG/1.1/DTD/svg11.dtd" [
	<!ENTITY ns_flows "http://ns.adobe.com/Flows/1.0/">
]>
<svg version="1.1"
	 xmlns="http://www.w3.org/2000/svg" xmlns:xlink="http://www.w3.org/1999/xlink" xmlns:a="http://ns.adobe.com/AdobeSVGViewerExtensions/3.0/"
	 x="0px" y="0px" width="23px" height="23px" viewBox="0 0 23 23" enable-background="new 0 0 23 23" xml:space="preserve">
<defs>
</defs>
<g>
	<g>
		<path fill="#3A7BBF" d="M11.501,0C5.149,0,0,5.148,0,11.5S5.149,23,11.501,23C17.852,23,23,17.852,23,11.5S17.852,0,11.501,0z
			 M17.996,12.91l-9.49,0.119l3.746,3.809c0.483,0.492,0.483,1.289,0,1.781c-0.484,0.492-1.269,0.492-1.752,0l-6.132-6.234
			c-0.483-0.492-0.483-1.291,0-1.783l6.131-6.235c0.484-0.493,1.269-0.493,1.752-0.001c0.484,0.492,0.484,1.29,0,1.783L8.506,9.958
			l9.49,0.118V12.91z"/>
	</g>
</g>
</svg>
