<?xml version="1.0" encoding="utf-8"?>
<!-- Generator: Adobe Illustrator 15.1.0, SVG Export Plug-In  -->
<!DOCTYPE svg PUBLIC "-//W3C//DTD SVG 1.1//EN" "http://www.w3.org/Graphics/SVG/1.1/DTD/svg11.dtd" [
	<!ENTITY ns_flows "http://ns.adobe.com/Flows/1.0/">
]>
<svg version="1.1"
	 xmlns="http://www.w3.org/2000/svg" xmlns:xlink="http://www.w3.org/1999/xlink" xmlns:a="http://ns.adobe.com/AdobeSVGViewerExtensions/3.0/"
	 x="0px" y="0px" width="54px" height="54px" viewBox="0 0 54 54" enable-background="new 0 0 54 54" xml:space="preserve">
<defs>
</defs>
<g>
	<g>
		<path fill-rule="evenodd" clip-rule="evenodd" fill="#FFFFFF" d="M40.878,25.203c-1.448-0.948-18.422-12.02-19.271-12.568
			c-1.06-0.685-2.132,0.186-2.132,1.357v25.186c0,1.29,1.185,1.916,2.089,1.349c1.233-0.772,18.271-11.901,19.314-12.596
			C41.813,27.308,41.829,25.825,40.878,25.203z M27,0C12.112,0,0,12.112,0,27c0,14.888,12.112,27,27,27s27-12.112,27-27
			C54,12.112,41.888,0,27,0z M27,51.841C13.303,51.841,2.16,40.696,2.16,27S13.303,2.16,27,2.16S51.84,13.303,51.84,27
			S40.697,51.841,27,51.841z"/>
	</g>
</g>
</svg>
