<?xml version="1.0" encoding="utf-8"?>
<!-- Generator: Adobe Illustrator 16.0.0, SVG Export Plug-In . SVG Version: 6.00 Build 0)  -->
<!DOCTYPE svg PUBLIC "-//W3C//DTD SVG 1.1//EN" "http://www.w3.org/Graphics/SVG/1.1/DTD/svg11.dtd">
<svg version="1.1" id="Layer_1" xmlns="http://www.w3.org/2000/svg" xmlns:xlink="http://www.w3.org/1999/xlink" x="0px" y="0px"
	 width="389.496px" height="145.214px" viewBox="0 0 389.496 145.214" enable-background="new 0 0 389.496 145.214"
	 xml:space="preserve">
<g>
	<path fill="#3C7ABE" d="M185.79,106.209h-19.334V35.37h62.338v52.999H185.79V106.209z M185.753,70.806h23.688V52.684h-23.688
		L185.753,70.806z"/>
	<path fill="#3C7ABE" d="M345.123,88.306h39.025v17.916h-58.357V35.367l58.357,0.005V52.68h-39.059L345.123,88.306z"/>
	<path fill="#3C7ABE" d="M265.123,52.664v53.549h-19.311V35.375h62.35v70.838H288.81V52.664H265.123z"/>
	<g>
		<rect x="185.766" y="43.432" fill="#99CEF0" width="0.5" height="9.241"/>
	</g>
	<g>
		<rect x="185.75" y="70.794" fill="#99CEF0" width="0.5" height="9.241"/>
	</g>
	<g>
		<rect x="345.105" y="43.447" fill="#99CEF0" width="0.5" height="9.241"/>
	</g>
	<g>
		<rect x="345.146" y="88.307" fill="#99CEF0" width="0.5" height="9.24"/>
	</g>
	<g>
		<rect x="288.81" y="52.672" fill="#99CEF0" width="9.24" height="0.5"/>
	</g>
	<g>
		<rect x="255.882" y="52.672" fill="#99CEF0" width="9.24" height="0.5"/>
	</g>
</g>
<g>
	<polygon fill="#9EA2A3" points="38.243,35.421 2.829,35.421 38.243,70.835 	"/>
	<polygon fill="#C4C7C7" points="38.219,70.882 2.805,70.882 38.219,106.298 	"/>
	<polygon fill="#CED1D1" points="38.219,106.188 2.805,106.188 38.219,141.604 	"/>
	<polygon fill="#AFB3B4" points="38.243,35.427 38.243,35.427 38.243,70.841 73.658,70.841 73.658,70.841 	"/>
	<polygon fill="#AFB3B4" points="38.219,70.851 38.219,70.851 38.219,106.267 73.634,106.267 73.634,106.267 	"/>
	<polygon fill="#A5A9AB" points="73.634,106.267 38.219,106.267 73.634,141.682 	"/>
	<polygon fill="#C4C7C7" points="38.219,106.188 38.219,106.188 38.219,141.604 73.634,141.604 73.634,141.604 	"/>
	<polygon fill="#A5A9AB" points="109.023,35.358 73.61,35.358 109.023,70.772 	"/>
	<polygon fill="#AFB3B4" points="73.612,106.267 73.611,106.267 73.611,141.682 109.025,141.682 109.025,141.682 	"/>
	<polygon fill="#B9BDBD" points="109.024,35.358 109.024,35.358 109.024,70.772 144.437,70.772 144.437,70.772 	"/>
	<path fill="#3C7ABE" d="M73.658,70.772"/>
	<g>
		<polygon fill="#3C7ABE" points="109.026,106.244 144.439,106.244 144.439,106.244 109.026,70.828 109.026,70.828 109.026,70.828 
			109.026,70.828 73.637,35.414 73.636,35.414 73.636,35.414 38.221,0 38.221,0 38.221,35.414 73.636,70.828 73.664,70.856 
			73.664,70.856 38.224,70.856 73.639,106.272 73.639,106.272 109.023,141.682 144.436,141.682 144.436,141.682 109.026,106.244 
			109.023,106.267 109.029,106.272 109.029,106.272 		"/>
	</g>
	<path fill="#3C7ABE" d="M70.863,70.578"/>
</g>
<g>
	<g>
		<polygon fill="#64A3D8" points="109.535,106.734 74.152,106.734 73.423,106.027 73.423,35.938 73.118,35.608 38.416,35.608 
			38.243,35.421 38.243,35.108 73.335,35.108 73.923,35.74 73.923,105.816 74.354,106.234 109.029,106.234 		"/>
	</g>
</g>
<g>
	<path fill="#7D7F80" d="M166.243,123.145c0.382-0.073,0.803-0.131,1.263-0.171c0.459-0.041,0.917-0.062,1.372-0.062
		c0.473,0,0.949,0.039,1.426,0.115c0.478,0.078,0.908,0.232,1.29,0.465c0.382,0.232,0.694,0.555,0.935,0.969
		c0.241,0.414,0.361,0.953,0.361,1.617c0,0.602-0.104,1.109-0.313,1.522c-0.209,0.415-0.487,0.753-0.833,1.017
		c-0.346,0.265-0.739,0.455-1.181,0.574c-0.441,0.118-0.899,0.178-1.372,0.178c-0.046,0-0.119,0-0.219,0s-0.205-0.003-0.314-0.008
		c-0.109-0.004-0.216-0.012-0.321-0.02c-0.104-0.01-0.18-0.019-0.225-0.027v3.289h-1.87V123.145z M169.028,124.523
		c-0.182,0-0.355,0.006-0.519,0.02c-0.164,0.014-0.296,0.029-0.396,0.048v3.099c0.036,0.01,0.091,0.019,0.164,0.027
		c0.073,0.01,0.15,0.016,0.232,0.021s0.162,0.007,0.239,0.007s0.134,0,0.171,0c0.246,0,0.489-0.022,0.73-0.068
		c0.241-0.045,0.458-0.129,0.648-0.252s0.343-0.294,0.458-0.512c0.113-0.219,0.17-0.506,0.17-0.86c0-0.301-0.055-0.548-0.164-0.744
		c-0.109-0.196-0.252-0.353-0.43-0.472c-0.178-0.117-0.38-0.199-0.607-0.245S169.265,124.523,169.028,124.523z"/>
	<path fill="#7D7F80" d="M178.119,130.488h-2.935l-0.723,2.115h-1.87l3.44-9.623h1.378l3.44,9.623h-1.966L178.119,130.488z
		 M175.662,128.986h2.047L177,126.857l-0.287-1.502h-0.068l-0.287,1.516L175.662,128.986z"/>
	<path fill="#7D7F80" d="M182.896,128.372v-1.46h0.328c0.082,0,0.182,0,0.3,0c0.118,0,0.239-0.003,0.361-0.008
		c0.123-0.004,0.244-0.014,0.362-0.027s0.214-0.029,0.287-0.047c0.318-0.073,0.591-0.203,0.819-0.39
		c0.227-0.187,0.341-0.438,0.341-0.757c0-0.438-0.139-0.735-0.416-0.895c-0.278-0.159-0.644-0.239-1.099-0.239
		c-0.409,0-0.792,0.055-1.146,0.164s-0.624,0.214-0.805,0.313l-0.478-1.583c0.1-0.055,0.244-0.114,0.43-0.177
		c0.187-0.064,0.4-0.125,0.642-0.186c0.241-0.059,0.502-0.106,0.785-0.143c0.282-0.037,0.569-0.055,0.86-0.055
		c0.4,0,0.792,0.037,1.174,0.109c0.382,0.072,0.723,0.2,1.023,0.382c0.3,0.183,0.542,0.426,0.724,0.73
		c0.182,0.306,0.273,0.694,0.273,1.167s-0.125,0.91-0.375,1.311s-0.653,0.691-1.208,0.873v0.068
		c0.591,0.119,1.053,0.373,1.386,0.765c0.332,0.392,0.498,0.915,0.498,1.569c0,0.52-0.104,0.963-0.314,1.332
		c-0.209,0.367-0.484,0.67-0.826,0.907s-0.735,0.411-1.181,0.525c-0.446,0.114-0.901,0.171-1.365,0.171
		c-0.601,0-1.146-0.051-1.638-0.15c-0.491-0.1-0.869-0.219-1.133-0.355l0.478-1.624c0.209,0.101,0.509,0.202,0.901,0.308
		c0.391,0.104,0.855,0.156,1.392,0.156c0.2,0,0.403-0.024,0.607-0.074c0.205-0.051,0.389-0.133,0.553-0.246
		c0.164-0.113,0.296-0.262,0.396-0.443s0.15-0.4,0.15-0.656c0-0.427-0.159-0.75-0.478-0.969c-0.319-0.219-0.887-0.336-1.706-0.354
		c-0.109-0.009-0.191-0.014-0.246-0.014c-0.054,0-0.15,0-0.287,0H182.896z"/>
	<path fill="#7D7F80" d="M189.666,123.145c0.382-0.073,0.803-0.131,1.263-0.171c0.459-0.041,0.917-0.062,1.372-0.062
		c0.473,0,0.949,0.039,1.426,0.115c0.478,0.078,0.908,0.232,1.29,0.465c0.382,0.232,0.694,0.555,0.935,0.969
		c0.241,0.414,0.361,0.953,0.361,1.617c0,0.602-0.104,1.109-0.313,1.522c-0.209,0.415-0.487,0.753-0.833,1.017
		c-0.346,0.265-0.739,0.455-1.181,0.574c-0.441,0.118-0.899,0.178-1.372,0.178c-0.046,0-0.119,0-0.219,0s-0.205-0.003-0.314-0.008
		c-0.109-0.004-0.216-0.012-0.321-0.02c-0.104-0.01-0.18-0.019-0.225-0.027v3.289h-1.87V123.145z M192.451,124.523
		c-0.182,0-0.355,0.006-0.519,0.02c-0.164,0.014-0.296,0.029-0.396,0.048v3.099c0.036,0.01,0.091,0.019,0.164,0.027
		c0.073,0.01,0.15,0.016,0.232,0.021s0.162,0.007,0.239,0.007s0.134,0,0.171,0c0.246,0,0.489-0.022,0.73-0.068
		c0.241-0.045,0.458-0.129,0.648-0.252s0.343-0.294,0.458-0.512c0.113-0.219,0.17-0.506,0.17-0.86c0-0.301-0.055-0.548-0.164-0.744
		c-0.109-0.196-0.252-0.353-0.43-0.472c-0.178-0.117-0.38-0.199-0.607-0.245S192.688,124.523,192.451,124.523z"/>
	<path fill="#7D7F80" d="M201.542,130.488h-2.936l-0.723,2.115h-1.871l3.44-9.623h1.378l3.44,9.623h-1.966L201.542,130.488z
		 M199.085,128.986h2.047l-0.709-2.129l-0.287-1.502h-0.068l-0.287,1.516L199.085,128.986z"/>
	<path fill="#7D7F80" d="M205.5,123.049h5.884v1.665h-4.013v1.993c0.154-0.027,0.343-0.055,0.566-0.082
		c0.223-0.027,0.443-0.041,0.662-0.041c0.51,0,0.978,0.05,1.406,0.15c0.427,0.1,0.793,0.266,1.098,0.498s0.544,0.537,0.717,0.914
		c0.173,0.378,0.26,0.84,0.26,1.386c0,0.537-0.089,1.006-0.266,1.405c-0.178,0.401-0.434,0.733-0.766,0.997
		c-0.332,0.265-0.732,0.464-1.201,0.601s-0.994,0.205-1.576,0.205c-0.154,0-0.348-0.005-0.58-0.014
		c-0.232-0.01-0.478-0.023-0.736-0.041c-0.26-0.019-0.518-0.041-0.771-0.068c-0.256-0.027-0.482-0.063-0.684-0.109V123.049z
		 M208.408,131.17c0.236,0,0.457-0.029,0.662-0.087s0.385-0.147,0.539-0.269c0.154-0.12,0.277-0.274,0.369-0.462
		c0.09-0.188,0.136-0.415,0.136-0.685c0-0.32-0.05-0.58-0.149-0.777c-0.102-0.196-0.237-0.35-0.41-0.462s-0.371-0.186-0.594-0.222
		c-0.223-0.035-0.462-0.053-0.717-0.053c-0.127,0-0.287,0.011-0.478,0.033c-0.19,0.021-0.323,0.042-0.396,0.061v2.855
		c0.1,0.027,0.252,0.045,0.457,0.053C208.033,131.166,208.226,131.17,208.408,131.17z"/>
	<path fill="#7D7F80" d="M213.39,127.826c0-1.592,0.35-2.818,1.051-3.679s1.701-1.29,3.002-1.29c0.684,0,1.279,0.118,1.789,0.355
		c0.51,0.236,0.934,0.572,1.27,1.01c0.336,0.437,0.588,0.96,0.75,1.569c0.164,0.61,0.246,1.288,0.246,2.034
		c0,1.592-0.352,2.818-1.057,3.679c-0.707,0.86-1.705,1.29-2.998,1.29c-0.691,0-1.291-0.119-1.801-0.355s-0.931-0.573-1.263-1.01
		c-0.332-0.438-0.58-0.96-0.744-1.57C213.472,129.25,213.39,128.572,213.39,127.826z M215.355,127.826
		c0,0.482,0.041,0.926,0.123,1.33c0.082,0.406,0.207,0.754,0.375,1.045s0.385,0.519,0.648,0.683
		c0.264,0.163,0.578,0.245,0.941,0.245c0.666,0,1.18-0.259,1.543-0.777c0.365-0.52,0.547-1.361,0.547-2.525
		c0-0.465-0.039-0.896-0.117-1.297c-0.076-0.4-0.197-0.751-0.361-1.051c-0.164-0.301-0.377-0.535-0.641-0.703
		s-0.588-0.252-0.971-0.252c-0.664,0-1.178,0.266-1.541,0.798C215.537,125.854,215.355,126.688,215.355,127.826z"/>
	<path fill="#7D7F80" d="M229.498,124.714h-2.785v7.89h-1.87v-7.89h-2.798v-1.665h7.453V124.714z"/>
	<path fill="#7D7F80" d="M233.237,128.521h-0.491v4.082h-1.87v-9.555h1.87v4.23l0.437-0.19l2.635-4.04h2.129l-2.784,4.013
		l-0.737,0.519l0.765,0.533l3.18,4.49h-2.307L233.237,128.521z"/>
	<path fill="#7D7F80" d="M244.225,130.488h-2.935l-0.724,2.115h-1.87l3.439-9.623h1.379l3.439,9.623h-1.965L244.225,130.488z
		 M241.768,128.986h2.048l-0.71-2.129l-0.287-1.502h-0.068l-0.286,1.516L241.768,128.986z"/>
	<path fill="#7D7F80" d="M251.446,123.049h1.46v11.329h-1.46V123.049z"/>
	<path fill="#7D7F80" d="M264.031,124.714h-3.344v7.89h-1.87v-9.555h7.084v9.555h-1.87V124.714z"/>
	<path fill="#7D7F80" d="M267.648,127.826c0-1.592,0.351-2.818,1.051-3.679c0.701-0.86,1.702-1.29,3.003-1.29
		c0.683,0,1.279,0.118,1.789,0.355c0.509,0.236,0.933,0.572,1.269,1.01c0.337,0.437,0.588,0.96,0.751,1.569
		c0.164,0.61,0.246,1.288,0.246,2.034c0,1.592-0.353,2.818-1.058,3.679c-0.706,0.86-1.704,1.29-2.997,1.29
		c-0.691,0-1.292-0.119-1.802-0.355s-0.93-0.573-1.262-1.01c-0.333-0.438-0.581-0.96-0.744-1.57
		C267.73,129.25,267.648,128.572,267.648,127.826z M269.614,127.826c0,0.482,0.041,0.926,0.123,1.33
		c0.082,0.406,0.207,0.754,0.375,1.045s0.385,0.519,0.648,0.683c0.264,0.163,0.578,0.245,0.941,0.245
		c0.665,0,1.179-0.259,1.543-0.777c0.364-0.52,0.546-1.361,0.546-2.525c0-0.465-0.039-0.896-0.116-1.297s-0.197-0.751-0.361-1.051
		c-0.164-0.301-0.378-0.535-0.642-0.703s-0.587-0.252-0.97-0.252c-0.664,0-1.178,0.266-1.542,0.798S269.614,126.688,269.614,127.826
		z"/>
	<path fill="#7D7F80" d="M283.973,132.213c-0.291,0.207-0.662,0.355-1.112,0.446s-0.912,0.136-1.386,0.136
		c-0.573,0-1.117-0.089-1.631-0.267c-0.515-0.177-0.967-0.464-1.358-0.86c-0.392-0.396-0.703-0.909-0.935-1.542
		c-0.232-0.632-0.349-1.399-0.349-2.3c0-0.938,0.13-1.723,0.39-2.355c0.259-0.632,0.596-1.141,1.01-1.528
		c0.414-0.386,0.876-0.664,1.386-0.833c0.509-0.168,1.019-0.252,1.528-0.252c0.546,0,1.008,0.037,1.386,0.109
		c0.377,0.072,0.689,0.159,0.935,0.26l-0.368,1.583c-0.21-0.101-0.457-0.173-0.744-0.219c-0.286-0.046-0.635-0.067-1.044-0.067
		c-0.756,0-1.363,0.269-1.822,0.807c-0.46,0.537-0.689,1.372-0.689,2.503c0,0.492,0.055,0.941,0.164,1.347
		c0.108,0.406,0.274,0.753,0.498,1.04c0.223,0.287,0.5,0.511,0.832,0.671c0.333,0.158,0.717,0.238,1.154,0.238
		c0.409,0,0.755-0.041,1.037-0.123c0.282-0.081,0.527-0.186,0.737-0.313L283.973,132.213z"/>
	<path fill="#7D7F80" d="M291.727,124.714h-2.785v7.89h-1.87v-7.89h-2.798v-1.665h7.453V124.714z"/>
	<path fill="#7D7F80" d="M296.75,130.488h-2.935l-0.724,2.115h-1.87l3.439-9.623h1.379l3.439,9.623h-1.965L296.75,130.488z
		 M294.292,128.986h2.048l-0.71-2.129l-0.287-1.502h-0.068l-0.286,1.516L294.292,128.986z"/>
	<path fill="#7D7F80" d="M307.137,125.273c0,0.236-0.029,0.473-0.089,0.71c-0.059,0.237-0.156,0.452-0.293,0.648
		s-0.314,0.368-0.532,0.519c-0.219,0.15-0.482,0.262-0.792,0.334v0.082c0.272,0.046,0.532,0.123,0.778,0.232
		c0.245,0.109,0.459,0.26,0.642,0.45c0.182,0.191,0.325,0.423,0.43,0.696s0.157,0.596,0.157,0.969c0,0.492-0.105,0.918-0.314,1.277
		s-0.489,0.652-0.839,0.88c-0.351,0.228-0.749,0.396-1.195,0.505c-0.445,0.109-0.905,0.164-1.378,0.164c-0.155,0-0.354,0-0.594,0
		c-0.241,0-0.501-0.007-0.778-0.021s-0.56-0.034-0.847-0.062c-0.286-0.027-0.548-0.068-0.784-0.123v-9.418
		c0.173-0.027,0.37-0.055,0.594-0.082c0.223-0.027,0.462-0.051,0.717-0.068c0.254-0.018,0.516-0.031,0.784-0.041
		s0.535-0.014,0.799-0.014c0.445,0,0.88,0.034,1.304,0.102c0.423,0.068,0.801,0.189,1.133,0.362s0.599,0.415,0.799,0.724
		C307.037,124.409,307.137,124.801,307.137,125.273z M303.111,127.062c0.127,0,0.274-0.005,0.443-0.013
		c0.168-0.01,0.307-0.023,0.416-0.041c0.346-0.107,0.644-0.27,0.895-0.486c0.25-0.217,0.375-0.5,0.375-0.852
		c0-0.234-0.046-0.428-0.137-0.58c-0.091-0.153-0.211-0.275-0.361-0.365s-0.32-0.152-0.512-0.188s-0.392-0.054-0.601-0.054
		c-0.237,0-0.455,0.004-0.655,0.014c-0.2,0.008-0.354,0.021-0.464,0.039v2.526H303.111z M303.725,131.17
		c0.228,0,0.448-0.026,0.662-0.08c0.213-0.055,0.402-0.139,0.566-0.25c0.163-0.113,0.295-0.255,0.396-0.426
		c0.1-0.172,0.15-0.375,0.15-0.608c0-0.298-0.06-0.532-0.178-0.702c-0.118-0.172-0.272-0.305-0.464-0.399s-0.405-0.155-0.642-0.183
		c-0.237-0.027-0.474-0.04-0.71-0.04h-0.996v2.608c0.045,0.018,0.118,0.031,0.218,0.04c0.101,0.009,0.207,0.016,0.321,0.021
		c0.113,0.004,0.231,0.009,0.354,0.014C303.527,131.168,303.633,131.17,303.725,131.17z"/>
	<path fill="#7D7F80" d="M311.546,128.521h-0.491v4.082h-1.87v-9.555h1.87v4.23l0.437-0.19l2.635-4.04h2.129l-2.784,4.013
		l-0.737,0.519l0.765,0.533l3.18,4.49h-2.307L311.546,128.521z"/>
	<path fill="#7D7F80" d="M322.535,130.488H319.6l-0.724,2.115h-1.87l3.439-9.623h1.379l3.439,9.623h-1.965L322.535,130.488z
		 M320.078,128.986h2.048l-0.71-2.129l-0.287-1.502h-0.068l-0.286,1.516L320.078,128.986z"/>
	<path fill="#7D7F80" d="M329.755,123.049h1.46v11.329h-1.46V123.049z"/>
	<path fill="#7D7F80" d="M343.418,132.213c-0.291,0.207-0.662,0.355-1.112,0.446s-0.912,0.136-1.386,0.136
		c-0.573,0-1.117-0.089-1.631-0.267c-0.515-0.177-0.967-0.464-1.358-0.86c-0.392-0.396-0.703-0.909-0.935-1.542
		c-0.232-0.632-0.349-1.399-0.349-2.3c0-0.938,0.13-1.723,0.39-2.355c0.259-0.632,0.596-1.141,1.01-1.528
		c0.414-0.386,0.876-0.664,1.386-0.833c0.509-0.168,1.019-0.252,1.528-0.252c0.546,0,1.008,0.037,1.386,0.109
		c0.377,0.072,0.689,0.159,0.935,0.26l-0.368,1.583c-0.21-0.101-0.457-0.173-0.744-0.219c-0.286-0.046-0.635-0.067-1.044-0.067
		c-0.756,0-1.363,0.269-1.822,0.807c-0.46,0.537-0.689,1.372-0.689,2.503c0,0.492,0.055,0.941,0.164,1.347
		c0.108,0.406,0.274,0.753,0.498,1.04c0.223,0.287,0.5,0.511,0.832,0.671c0.333,0.158,0.717,0.238,1.154,0.238
		c0.409,0,0.755-0.041,1.037-0.123c0.282-0.081,0.527-0.186,0.737-0.313L343.418,132.213z"/>
	<path fill="#7D7F80" d="M344.989,123.049h5.664v1.665h-3.794v2.226h3.453v1.664h-3.453v2.334h3.862v1.666h-5.732V123.049z"/>
	<path fill="#7D7F80" d="M352.523,123.145c0.382-0.073,0.803-0.131,1.263-0.171c0.459-0.041,0.916-0.062,1.371-0.062
		c0.474,0,0.949,0.039,1.427,0.115c0.478,0.078,0.908,0.232,1.29,0.465s0.693,0.555,0.935,0.969s0.362,0.953,0.362,1.617
		c0,0.602-0.104,1.109-0.314,1.522c-0.209,0.415-0.486,0.753-0.832,1.017c-0.347,0.265-0.74,0.455-1.181,0.574
		c-0.442,0.118-0.899,0.178-1.372,0.178c-0.046,0-0.118,0-0.219,0c-0.1,0-0.204-0.003-0.313-0.008
		c-0.109-0.004-0.217-0.012-0.321-0.02c-0.104-0.01-0.18-0.019-0.225-0.027v3.289h-1.87V123.145z M355.307,124.523
		c-0.182,0-0.354,0.006-0.519,0.02s-0.296,0.029-0.396,0.048v3.099c0.036,0.01,0.091,0.019,0.163,0.027
		c0.073,0.01,0.15,0.016,0.232,0.021s0.161,0.007,0.239,0.007c0.077,0,0.134,0,0.17,0c0.246,0,0.489-0.022,0.73-0.068
		c0.241-0.045,0.457-0.129,0.648-0.252s0.344-0.294,0.457-0.512c0.114-0.219,0.171-0.506,0.171-0.86
		c0-0.301-0.055-0.548-0.164-0.744s-0.252-0.353-0.43-0.472c-0.178-0.117-0.38-0.199-0.607-0.245S355.543,124.523,355.307,124.523z"
		/>
	<path fill="#7D7F80" d="M367.169,125.273c0,0.236-0.029,0.473-0.089,0.71c-0.059,0.237-0.156,0.452-0.293,0.648
		s-0.314,0.368-0.532,0.519c-0.219,0.15-0.482,0.262-0.792,0.334v0.082c0.272,0.046,0.532,0.123,0.778,0.232
		c0.245,0.109,0.459,0.26,0.642,0.45c0.182,0.191,0.325,0.423,0.43,0.696s0.157,0.596,0.157,0.969c0,0.492-0.105,0.918-0.314,1.277
		s-0.489,0.652-0.839,0.88c-0.351,0.228-0.749,0.396-1.195,0.505c-0.445,0.109-0.905,0.164-1.378,0.164c-0.155,0-0.354,0-0.594,0
		c-0.241,0-0.501-0.007-0.778-0.021s-0.56-0.034-0.847-0.062c-0.286-0.027-0.548-0.068-0.784-0.123v-9.418
		c0.173-0.027,0.37-0.055,0.594-0.082c0.223-0.027,0.462-0.051,0.717-0.068c0.254-0.018,0.516-0.031,0.784-0.041
		s0.535-0.014,0.799-0.014c0.445,0,0.88,0.034,1.304,0.102c0.423,0.068,0.801,0.189,1.133,0.362s0.599,0.415,0.799,0.724
		C367.069,124.409,367.169,124.801,367.169,125.273z M363.143,127.062c0.127,0,0.274-0.005,0.443-0.013
		c0.168-0.01,0.307-0.023,0.416-0.041c0.346-0.107,0.644-0.27,0.895-0.486c0.25-0.217,0.375-0.5,0.375-0.852
		c0-0.234-0.046-0.428-0.137-0.58c-0.091-0.153-0.211-0.275-0.361-0.365s-0.32-0.152-0.512-0.188s-0.392-0.054-0.601-0.054
		c-0.237,0-0.455,0.004-0.655,0.014c-0.2,0.008-0.354,0.021-0.464,0.039v2.526H363.143z M363.757,131.17
		c0.228,0,0.448-0.026,0.662-0.08c0.213-0.055,0.402-0.139,0.566-0.25c0.163-0.113,0.295-0.255,0.396-0.426
		c0.1-0.172,0.15-0.375,0.15-0.608c0-0.298-0.06-0.532-0.178-0.702c-0.118-0.172-0.272-0.305-0.464-0.399s-0.405-0.155-0.642-0.183
		c-0.237-0.027-0.474-0.04-0.71-0.04h-0.996v2.608c0.045,0.018,0.118,0.031,0.218,0.04c0.101,0.009,0.207,0.016,0.321,0.021
		c0.113,0.004,0.231,0.009,0.354,0.014C363.559,131.168,363.666,131.17,363.757,131.17z"/>
	<path fill="#7D7F80" d="M374.787,127.307l0.108-1.242h-0.068l-0.641,1.283l-3.563,5.256h-1.405v-9.555h1.87v5.2l-0.137,1.283h0.082
		l0.669-1.324l3.563-5.159h1.392v9.555h-1.869V127.307z"/>
	<path fill="#7D7F80" d="M385.187,132.213c-0.291,0.207-0.662,0.355-1.112,0.446s-0.912,0.136-1.386,0.136
		c-0.573,0-1.117-0.089-1.631-0.267c-0.515-0.177-0.967-0.464-1.358-0.86c-0.392-0.396-0.703-0.909-0.935-1.542
		c-0.232-0.632-0.349-1.399-0.349-2.3c0-0.938,0.13-1.723,0.39-2.355c0.259-0.632,0.596-1.141,1.01-1.528
		c0.414-0.386,0.876-0.664,1.386-0.833c0.509-0.168,1.019-0.252,1.528-0.252c0.546,0,1.008,0.037,1.386,0.109
		c0.377,0.072,0.689,0.159,0.935,0.26l-0.368,1.583c-0.21-0.101-0.457-0.173-0.744-0.219c-0.286-0.046-0.635-0.067-1.044-0.067
		c-0.756,0-1.363,0.269-1.822,0.807c-0.46,0.537-0.689,1.372-0.689,2.503c0,0.492,0.055,0.941,0.164,1.347
		c0.108,0.406,0.274,0.753,0.498,1.04c0.223,0.287,0.5,0.511,0.832,0.671c0.333,0.158,0.717,0.238,1.154,0.238
		c0.409,0,0.755-0.041,1.037-0.123c0.282-0.081,0.527-0.186,0.737-0.313L385.187,132.213z"/>
</g>
</svg>
