<?xml version="1.0" encoding="utf-8"?>
<!-- Generator: Adobe Illustrator 16.0.0, SVG Export Plug-In . SVG Version: 6.00 Build 0)  -->
<!DOCTYPE svg PUBLIC "-//W3C//DTD SVG 1.1//EN" "http://www.w3.org/Graphics/SVG/1.1/DTD/svg11.dtd">
<svg version="1.1" id="Layer_1" xmlns="http://www.w3.org/2000/svg" xmlns:xlink="http://www.w3.org/1999/xlink" x="0px" y="0px"
	 width="325px" height="63.25px" viewBox="0 0 325 63.25" enable-background="new 0 0 325 63.25" xml:space="preserve">
<g>
	<g>
		<path fill="#529FD7" d="M109.235,12.77h3.619v24.975h-2.58V15.636c-3.045,6.593-5.876,13.078-8.527,19.385h-1.899
			c-2.687-6.45-5.481-12.936-8.42-19.385v22.108h-2.508V12.77h3.87c2.974,6.235,5.732,12.505,8.169,18.739
			C103.359,25.239,106.189,18.968,109.235,12.77z"/>
		<path fill="#529FD7" d="M122.979,38.604c-1.827-6.45-4.264-14.01-6.664-18.955h2.615c1.935,4.372,4.049,10.642,5.59,16.016
			c2.185-5.268,4.263-10.82,5.697-16.016h2.543c-1.827,6.056-4.193,12.075-6.736,18.095c-0.932,2.256-2.258,5.016-3.26,6.879h-2.724
			C120.973,42.904,122.084,40.575,122.979,38.604z"/>
		<path fill="#529FD7" d="M156.519,12.77h3.619v24.975h-2.58V15.636c-3.045,6.593-5.876,13.078-8.527,19.385h-1.899
			c-2.687-6.45-5.481-12.936-8.42-19.385v22.108h-2.508V12.77h3.87c2.975,6.235,5.733,12.505,8.169,18.739
			C150.643,25.239,153.474,18.968,156.519,12.77z"/>
		<path fill="#529FD7" d="M180.1,28.93h-12.935c0.035,5.876,1.898,7.13,6.091,7.13c1.29,0,3.656-0.395,5.195-0.968l0.538,2.149
			c-1.863,0.574-4.443,1.004-5.948,1.004c-5.483,0-8.457-2.222-8.457-9.638c0-7.095,2.76-9.46,8.135-9.46
			C177.842,19.148,180.1,21.226,180.1,28.93z M167.2,26.816h10.249c-0.216-4.515-1.396-5.483-4.729-5.483
			C168.919,21.333,167.487,22.552,167.2,26.816z"/>
		<path fill="#529FD7" d="M191.528,19.148c2.58,0,4.085,0.752,4.98,1.469v-8.743h2.33v24.938c-1.971,0.895-5.124,1.433-7.31,1.433
			c-5.589,0-8.205-2.077-8.205-9.495C183.323,21.37,185.902,19.148,191.528,19.148z M191.528,36.024c1.755,0,3.583-0.251,4.98-0.752
			V23.914c0-1.649-2.293-2.544-4.98-2.544c-4.228,0-5.625,1.469-5.625,7.345C185.902,34.841,187.3,36.024,191.528,36.024z"/>
		<path fill="#529FD7" d="M205.958,14.168c0,1.325-0.358,1.539-1.469,1.539c-1.146,0-1.505-0.214-1.505-1.539
			c0-1.219,0.359-1.398,1.505-1.398C205.599,12.77,205.958,12.949,205.958,14.168z M205.599,19.649h-2.328v18.095h2.328V19.649z"/>
		<path fill="#529FD7" d="M223.775,36.813c-1.972,0.895-5.016,1.433-7.31,1.433c-5.196,0-7.345-1.397-7.345-6.091
			c0-5.159,3.117-5.984,7.167-5.984c1.898,0,3.296,0.179,5.159,0.574c0-4.443-1.147-5.375-5.34-5.375
			c-1.719,0-3.761,0.25-5.194,0.86l-0.681-2.187c1.397-0.394,3.583-0.895,6.02-0.895c5.267,0,7.524,1.541,7.524,7.022V36.813z
			 M221.447,35.308v-6.594c-1.325-0.322-3.082-0.465-4.874-0.465c-3.619,0-4.837,0.394-4.837,3.727c0,3.618,1.039,4.156,4.837,4.156
			C218.329,36.131,220.049,35.809,221.447,35.308z"/>
		<path fill="#2D4255" d="M228.545,37.745V12.77h13.006c5.267,0,6.952,3.691,6.952,8.563c0,4.3-2.043,8.169-6.845,8.169h-8.384
			v8.242H228.545z M240.226,25.561c1.971,0,3.082-1.434,3.082-4.263c0-3.045-1.04-4.514-2.975-4.514h-7.059v8.777H240.226z"/>
		<path fill="#2D4255" d="M251.066,19.506h4.443v1.362c0.644-1.003,2.041-1.9,4.656-1.9c0.609,0,1.219,0.037,1.864,0.108v4.228
			c-0.646-0.143-1.54-0.25-2.33-0.25c-2.22,0-4.19,0.717-4.19,2.042v12.649h-4.443V19.506z"/>
		<path fill="#2D4255" d="M263.519,28.535c0-7.453,2.903-9.566,8.671-9.566c5.841,0,8.742,2.114,8.742,9.566
			c0,7.489-2.867,9.711-8.742,9.711C266.385,38.246,263.519,36.024,263.519,28.535z M268.105,28.608
			c0,5.051,0.968,6.054,4.084,6.054c3.19,0,4.157-1.003,4.157-6.054c0-5.232-0.967-6.056-4.157-6.056
			C269.073,22.552,268.105,23.375,268.105,28.608z"/>
	</g>
	<g>
		<g>
			<path fill="#2D4255" d="M95.202,59.145h-4.914V46.414h4.768c2.239,0,3.75,1.324,3.75,3.291c0,0.93-0.346,1.715-0.983,2.306
				c-0.292,0.25-0.492,0.377-1.038,0.591c0.637,0.249,0.874,0.394,1.202,0.679c0.673,0.608,1.02,1.431,1.02,2.432
				C99.006,57.858,97.586,59.145,95.202,59.145z M94.947,47.272h-3.677v4.935h3.677c1.819,0,2.875-0.912,2.875-2.468
				S96.748,47.272,94.947,47.272z M95.092,53.066h-3.822v5.22h3.822c1.802,0,2.93-1.001,2.93-2.61
				C98.022,54.085,96.894,53.066,95.092,53.066z"/>
			<path fill="#2D4255" d="M107.417,59.145v-0.859c-0.747,0.734-1.438,0.968-2.675,0.968c-1.292,0-2.021-0.217-2.584-0.787
				c-0.4-0.412-0.637-1.038-0.637-1.682c0-1.573,1.146-2.485,3.058-2.485h2.839v-0.965c0-1.378-0.692-2.111-2.476-2.111
				c-1.237,0-1.874,0.305-2.42,1.092l-0.673-0.573c0.746-1.019,1.674-1.323,3.093-1.323c2.312,0,3.404,1.021,3.404,2.825v5.901
				H107.417z M107.417,55.033h-2.73c-1.511,0-2.239,0.591-2.239,1.735s0.709,1.68,2.293,1.68c0.8,0,1.565-0.071,2.184-0.662
				c0.327-0.304,0.491-0.841,0.491-1.646V55.033z"/>
			<path fill="#2D4255" d="M111.806,59.145v-8.618h0.928v7.85h4.059v-7.85h0.929v7.85h4.059v-7.85h0.928v8.618H111.806z"/>
			<path fill="#2D4255" d="M131.394,59.145v-0.859c-0.746,0.734-1.437,0.968-2.675,0.968c-1.292,0-2.021-0.217-2.584-0.787
				c-0.4-0.412-0.638-1.038-0.638-1.682c0-1.573,1.147-2.485,3.058-2.485h2.839v-0.965c0-1.378-0.691-2.111-2.475-2.111
				c-1.238,0-1.874,0.305-2.42,1.092l-0.674-0.573c0.746-1.019,1.674-1.323,3.094-1.323c2.311,0,3.404,1.021,3.404,2.825v5.901
				H131.394z M131.394,55.033h-2.729c-1.511,0-2.239,0.591-2.239,1.735s0.709,1.68,2.293,1.68c0.8,0,1.565-0.071,2.184-0.662
				c0.327-0.304,0.491-0.841,0.491-1.646V55.033z"/>
			<path fill="#2D4255" d="M145.885,58.305c-0.619,0.608-1.475,0.948-2.439,0.948c-0.965,0-1.82-0.34-2.439-0.948
				c-0.765-0.752-1.092-1.806-1.092-3.47c0-1.663,0.327-2.717,1.092-3.47c0.619-0.607,1.474-0.947,2.439-0.947
				c2.257,0,3.531,1.575,3.531,4.363C146.978,56.5,146.649,57.536,145.885,58.305z M145.267,51.957
				c-0.456-0.466-1.128-0.733-1.82-0.733c-0.691,0-1.365,0.268-1.82,0.733c-0.564,0.572-0.783,1.359-0.783,2.879
				c0,1.521,0.2,2.289,0.783,2.88c0.455,0.464,1.128,0.732,1.82,0.732c0.692,0,1.365-0.269,1.82-0.732
				c0.564-0.574,0.782-1.359,0.782-2.844C146.049,53.316,145.849,52.547,145.267,51.957z"/>
			<path fill="#2D4255" d="M155.188,59.145v-3.487c-0.692,0.143-1.894,0.376-2.912,0.376c-1.583,0-2.603-0.716-2.603-2.502v-3.005
				h0.928v2.914c0,1.306,0.728,1.734,1.838,1.734c1.038,0,2.057-0.18,2.749-0.322v-4.326h0.928v8.618H155.188z"/>
			<path fill="#2D4255" d="M160.068,55.033c0.036,0.93,0.091,1.323,0.31,1.823c0.437,1.057,1.31,1.573,2.565,1.573
				c0.473,0,0.874-0.071,1.239-0.214c0.399-0.161,0.635-0.34,1.163-0.822l0.692,0.536c-0.637,0.608-0.946,0.822-1.474,1.037
				c-0.474,0.196-1.021,0.287-1.657,0.287c-2.474,0-3.767-1.521-3.767-4.472c0-2.717,1.329-4.363,3.513-4.363
				s3.512,1.592,3.512,4.202v0.412H160.068z M165.074,53.066c-0.347-1.163-1.257-1.843-2.421-1.843
				c-1.019,0-1.875,0.556-2.275,1.449c-0.201,0.446-0.273,0.822-0.31,1.627h5.169C165.2,53.62,165.182,53.405,165.074,53.066z"/>
			<path fill="#2D4255" d="M172.646,59.253c-1.328,0-1.91-0.394-2.548-1.216v5.22h-0.927v-12.73h0.927v1.107
				c0.693-0.857,1.257-1.216,2.531-1.216c2.256,0,3.348,1.449,3.348,4.435C175.977,57.786,174.868,59.253,172.646,59.253z
				 M172.573,51.223c-1.71,0-2.476,1.109-2.476,3.612s0.747,3.612,2.476,3.612c1.711,0,2.475-1.109,2.475-3.595
				C175.048,52.333,174.302,51.223,172.573,51.223z"/>
			<path fill="#2D4255" d="M179.419,55.033c0.038,0.93,0.092,1.323,0.311,1.823c0.436,1.057,1.311,1.573,2.565,1.573
				c0.474,0,0.873-0.071,1.238-0.214c0.401-0.161,0.637-0.34,1.165-0.822l0.692,0.536c-0.638,0.608-0.947,0.822-1.475,1.037
				c-0.473,0.196-1.02,0.287-1.657,0.287c-2.475,0-3.767-1.521-3.767-4.472c0-2.717,1.329-4.363,3.513-4.363
				s3.512,1.592,3.512,4.202v0.412H179.419z M184.425,53.066c-0.347-1.163-1.257-1.843-2.42-1.843c-1.021,0-1.875,0.556-2.275,1.449
				c-0.2,0.446-0.273,0.822-0.311,1.627h5.169C184.552,53.62,184.533,53.405,184.425,53.066z"/>
			<path fill="#2D4255" d="M195.202,61.828v-2.683h-7.062v2.683h-0.927v-3.451h1.073c0.674-0.948,1.274-2.183,1.274-5.348v-2.502
				h5.205v7.85h1.366v3.451H195.202z M193.837,51.294h-3.385v1.969c0,2.896-0.528,4.309-1.111,5.113h4.496V51.294z"/>
			<path fill="#2D4255" d="M202.412,59.145h-3.857v-8.618h0.927v3.54h2.931c1.639,0,2.711,1.001,2.711,2.539
				S204.051,59.145,202.412,59.145z M202.266,54.835h-2.785v3.541h2.785c1.257,0,1.93-0.626,1.93-1.771
				C204.196,55.48,203.523,54.835,202.266,54.835z"/>
			<path fill="#2D4255" d="M214.556,59.234c-1.402,0-2.347-0.304-3.385-1.233l0.637-0.625c0.837,0.804,1.51,1.054,2.693,1.054
				c1.167,0,2.476-0.625,2.476-1.681c0-1.091-0.837-1.645-2.021-1.645H213.7v-0.769h1.293c1.056,0,1.82-0.556,1.82-1.574
				c0-0.982-0.854-1.556-2.167-1.556c-0.946,0-1.764,0.251-2.53,0.769l-0.547-0.644c0.966-0.662,1.913-0.912,3.077-0.912
				c1.748,0,3.076,0.841,3.076,2.325c0,0.895-0.51,1.664-1.474,1.949c0.982,0.269,1.62,1.056,1.62,2.075
				C217.868,58.305,216.321,59.234,214.556,59.234z"/>
			<path fill="#2D4255" d="M226.096,59.145v-0.859c-0.745,0.734-1.437,0.968-2.674,0.968c-1.293,0-2.02-0.217-2.586-0.787
				c-0.399-0.412-0.635-1.038-0.635-1.682c0-1.573,1.146-2.485,3.056-2.485h2.839v-0.965c0-1.378-0.69-2.111-2.475-2.111
				c-1.236,0-1.874,0.305-2.421,1.092l-0.673-0.573c0.746-1.019,1.675-1.323,3.094-1.323c2.312,0,3.405,1.021,3.405,2.825v5.901
				H226.096z M226.096,55.033h-2.729c-1.51,0-2.238,0.591-2.238,1.735s0.71,1.68,2.294,1.68c0.8,0,1.564-0.071,2.185-0.662
				c0.326-0.304,0.489-0.841,0.489-1.646V55.033z"/>
			<path fill="#2D4255" d="M233.963,59.253c-1.33,0-1.913-0.394-2.549-1.216v5.22h-0.929v-12.73h0.929v1.107
				c0.691-0.857,1.255-1.216,2.529-1.216c2.258,0,3.349,1.449,3.349,4.435C237.292,57.786,236.182,59.253,233.963,59.253z
				 M233.89,51.223c-1.712,0-2.476,1.109-2.476,3.612s0.747,3.612,2.476,3.612c1.711,0,2.476-1.109,2.476-3.595
				C236.365,52.333,235.619,51.223,233.89,51.223z"/>
			<path fill="#2D4255" d="M245.468,59.145v-0.859c-0.746,0.734-1.438,0.968-2.677,0.968c-1.292,0-2.021-0.217-2.583-0.787
				c-0.401-0.412-0.639-1.038-0.639-1.682c0-1.573,1.147-2.485,3.059-2.485h2.84v-0.965c0-1.378-0.692-2.111-2.476-2.111
				c-1.237,0-1.875,0.305-2.42,1.092l-0.674-0.573c0.746-1.019,1.675-1.323,3.094-1.323c2.312,0,3.402,1.021,3.402,2.825v5.901
				H245.468z M245.468,55.033h-2.73c-1.512,0-2.237,0.591-2.237,1.735s0.708,1.68,2.291,1.68c0.802,0,1.565-0.071,2.185-0.662
				c0.328-0.304,0.492-0.841,0.492-1.646V55.033z"/>
			<path fill="#2D4255" d="M255.407,58.323c-0.583,0.591-1.457,0.931-2.402,0.931c-1.747,0-3.004-1.021-3.367-2.647
				c-0.237-1.02-0.182-2.735-0.182-3.845c0-3.147,0.108-4.22,1.057-5.148c1.218-1.199,3.874-1.164,5.332-1.288v0.876
				c-1.184,0.106-3.587,0-4.605,1c-0.819,0.805-0.892,2.004-0.892,3.612c0.4-0.804,1.637-1.376,2.711-1.376
				c0.929,0,1.711,0.25,2.276,0.786c0.781,0.733,1.145,1.986,1.145,3.612C256.479,56.552,256.172,57.572,255.407,58.323z
				 M254.788,51.957c-0.436-0.446-1.11-0.714-1.783-0.714c-0.674,0-1.329,0.268-1.784,0.714c-0.545,0.554-0.837,1.413-0.837,2.933
				s0.273,2.271,0.837,2.843c0.455,0.447,1.11,0.716,1.784,0.716c0.673,0,1.348-0.269,1.783-0.716
				c0.564-0.554,0.766-1.323,0.766-2.808C255.554,53.37,255.371,52.529,254.788,51.957z"/>
			<path fill="#2D4255" d="M264.618,59.145v-0.859c-0.747,0.734-1.438,0.968-2.674,0.968c-1.293,0-2.021-0.217-2.586-0.787
				c-0.399-0.412-0.637-1.038-0.637-1.682c0-1.573,1.146-2.485,3.058-2.485h2.839v-0.965c0-1.378-0.691-2.111-2.476-2.111
				c-1.236,0-1.873,0.305-2.42,1.092l-0.674-0.573c0.747-1.019,1.676-1.323,3.094-1.323c2.313,0,3.405,1.021,3.405,2.825v5.901
				H264.618z M264.618,55.033h-2.729c-1.51,0-2.239,0.591-2.239,1.735s0.71,1.68,2.295,1.68c0.799,0,1.564-0.071,2.184-0.662
				c0.327-0.304,0.49-0.841,0.49-1.646V55.033z"/>
			<path fill="#2D4255" d="M271.337,51.294v7.851h-0.928v-7.851h-3.167v-0.768h7.079v0.768H271.337z"/>
			<path fill="#2D4255" d="M279.949,59.145h-3.678v-8.618h0.927v3.54h2.751c1.636,0,2.711,1.001,2.711,2.539
				S281.585,59.145,279.949,59.145z M279.803,54.835h-2.604v3.541h2.604c1.256,0,1.929-0.626,1.929-1.771
				C281.731,55.48,281.059,54.835,279.803,54.835z M284.171,59.145v-8.618h0.926v8.618H284.171z"/>
			<path fill="#2D4255" d="M292.709,59.145h-4.077v-8.618h3.985c1.512,0,2.531,0.876,2.531,2.217c0,0.965-0.564,1.645-1.493,1.932
				c0.965,0.304,1.638,1.036,1.638,2.127C295.293,58.251,294.329,59.145,292.709,59.145z M292.417,51.294h-2.856v3.005h2.856
				c1.165,0,1.803-0.555,1.803-1.502C294.22,51.832,293.564,51.294,292.417,51.294z M292.51,55.068h-2.949v3.309h2.949
				c1.163,0,1.855-0.645,1.855-1.646S293.673,55.068,292.51,55.068z"/>
			<path fill="#2D4255" d="M303.522,59.145v-0.859c-0.747,0.734-1.438,0.968-2.674,0.968c-1.294,0-2.021-0.217-2.586-0.787
				c-0.4-0.412-0.637-1.038-0.637-1.682c0-1.573,1.146-2.485,3.058-2.485h2.839v-0.965c0-1.378-0.691-2.111-2.477-2.111
				c-1.235,0-1.873,0.305-2.42,1.092l-0.673-0.573c0.746-1.019,1.675-1.323,3.093-1.323c2.313,0,3.406,1.021,3.406,2.825v5.901
				H303.522z M303.522,55.033h-2.729c-1.511,0-2.239,0.591-2.239,1.735s0.71,1.68,2.295,1.68c0.798,0,1.563-0.071,2.184-0.662
				c0.326-0.304,0.49-0.841,0.49-1.646V55.033z"/>
			<path fill="#2D4255" d="M310.242,51.294v7.851h-0.93v-7.851h-3.167v-0.768h7.081v0.768H310.242z"/>
			<path fill="#2D4255" d="M319.032,59.145h-3.856v-8.618h0.927v3.54h2.93c1.639,0,2.714,1.001,2.714,2.539
				S320.671,59.145,319.032,59.145z M318.889,54.835h-2.786v3.541h2.786c1.256,0,1.929-0.626,1.929-1.771
				C320.817,55.48,320.145,54.835,318.889,54.835z"/>
		</g>
	</g>
	<g>
		<polygon fill="#2994D2" points="55.333,25.654 38.333,35.852 38.333,10.655 55.333,0.457 		"/>
		<polygon fill="#46C1F0" points="21.333,46.36 0.333,59.209 0.333,12.853 21.333,0.457 		"/>
		<polygon fill="#00B7ED" points="55.333,46.864 73.333,59.209 73.333,12.602 55.333,0.457 		"/>
		<polygon fill="#529FD7" points="21.333,25.654 38.333,35.852 38.333,10.655 21.333,0.457 		"/>
	</g>
</g>
</svg>
