<?xml version="1.0" encoding="utf-8"?>
<!-- Generator: Adobe Illustrator 15.1.0, SVG Export Plug-In  -->
<!DOCTYPE svg PUBLIC "-//W3C//DTD SVG 1.1//EN" "http://www.w3.org/Graphics/SVG/1.1/DTD/svg11.dtd" [
	<!ENTITY ns_flows "http://ns.adobe.com/Flows/1.0/">
]>
<svg version="1.1"
	 xmlns="http://www.w3.org/2000/svg" xmlns:xlink="http://www.w3.org/1999/xlink" xmlns:a="http://ns.adobe.com/AdobeSVGViewerExtensions/3.0/"
	 x="0px" y="0px" width="1000px" height="1000px" viewBox="-6.496 -2.5 1000 1000" enable-background="new -6.496 -2.5 1000 1000"
	 xml:space="preserve">
<defs>
</defs>
<path fill="#0176A5" d="M17.261,37.533c2.071,0,3.75-1.65,3.75-3.685c0-2.036-1.679-3.685-3.75-3.685c-2.07,0-3.75,1.649-3.75,3.685
	C13.511,35.883,15.19,37.533,17.261,37.533z M32.264,37.533h37.504c2.07,0,3.75-1.65,3.75-3.685c0-2.036-1.68-3.685-3.75-3.685
	H32.264c-2.072,0-3.752,1.649-3.752,3.685C28.512,35.883,30.19,37.533,32.264,37.533z M17.261,52.27c2.071,0,3.75-1.648,3.75-3.685
	c0-2.035-1.679-3.685-3.75-3.685c-2.07,0-3.75,1.65-3.75,3.685C13.511,50.621,15.19,52.27,17.261,52.27z M32.264,52.27h37.504
	c2.07,0,3.75-1.648,3.75-3.685c0-2.035-1.68-3.685-3.75-3.685H32.264c-2.072,0-3.752,1.65-3.752,3.685
	C28.512,50.621,30.19,52.27,32.264,52.27z M17.261,67.008c2.071,0,3.75-1.648,3.75-3.685c0-2.035-1.679-3.685-3.75-3.685
	c-2.07,0-3.75,1.649-3.75,3.685C13.511,65.359,15.19,67.008,17.261,67.008z M32.264,67.008h37.504c2.07,0,3.75-1.648,3.75-3.685
	c0-2.035-1.68-3.685-3.75-3.685H32.264c-2.072,0-3.752,1.649-3.752,3.685C28.512,65.359,30.19,67.008,32.264,67.008z M2.931,10.884
	v73.231h81.146V10.884H2.931z M80.832,81.188H6.177V13.814h74.655V81.188z"/>
<path fill="#0176A5" d="M153.604,25.639c2.272,0,4.118-1.839,4.118-4.108c0-2.271-1.844-4.108-4.118-4.108s-4.118,1.838-4.118,4.108
	C149.486,23.799,151.33,25.639,153.604,25.639z M167.005,20.667v-9.776h-62.1V72.85h62.1v-6.441l7.076,0.892l-1.796,14.199
	l-57.029-7.181l0.174-1.389h-2.362l-0.433,3.415l61.685,7.765l7.783-61.542L167.005,20.667z M164.579,70.432h-57.252v-14.39h57.252
	V70.432z M164.579,53.624h-0.913V37.528h-10.063v16.096h-0.487V40.616h-4.968v13.008h-0.437v-4.929h-6.789v-4.179h-4.969v4.179
	h-3.928v4.929h-0.308V23.628h-3.927v16.275h-7.601v13.72h-0.895V34.201h-11.198v19.423h-0.771V13.309h57.252V53.624z
	 M167.005,63.973v-40.95l12.479,1.57l-5.1,40.308L167.005,63.973z"/>
<path fill="#0176A5" d="M281.098,33.923h-16.255l2.126-2.15c0.222-0.225,0.432-0.471,0.624-0.736
	c0.981,0.225,1.985,0.337,2.999,0.337c3.605,0,6.992-1.418,9.538-3.994c3.278-3.319,4.634-8.046,3.622-12.646l-0.646-2.938
	l-7.452,7.582l-1.964,1.945l-2.625-0.681l-2.646-0.748l-0.731-2.645l-0.682-2.691l9.416-9.528l-2.905-0.653
	c-0.969-0.216-1.962-0.328-2.954-0.328c-3.608,0-6.995,1.419-9.542,3.995c-3.314,3.355-4.646,8.115-3.615,12.685
	c-0.263,0.196-0.502,0.407-0.727,0.632l-12.415,12.561h-0.974l-10.17-8.544c0.398-1.038,0.615-2.149,0.615-3.296
	c0-2.428-0.935-4.711-2.632-6.428l-12.84-12.991C216.568,0.946,214.311,0,211.912,0c-2.401,0-4.657,0.946-6.354,2.664
	c-1.696,1.717-2.631,4-2.631,6.429c0,2.428,0.935,4.711,2.631,6.429l12.837,12.99c1.697,1.718,3.955,2.663,6.354,2.663
	c1.181,0,2.324-0.231,3.386-0.667l3.887,3.416H206.26c-1.531,0-2.778,1.26-2.778,2.81v55.456c0,1.55,1.247,2.811,2.778,2.811h74.838
	c1.529,0,2.775-1.26,2.775-2.811V36.732C283.873,35.183,282.627,33.923,281.098,33.923z M258.982,23.691
	c0.27-0.273,0.613-0.514,1.049-0.735l1.256-0.638l-0.441-1.35c-1.223-3.752-0.271-7.812,2.477-10.593
	c1.668-1.686,3.809-2.718,6.123-2.969l-6.048,6.176l1.146,4.522l1.234,4.463l4.442,1.257l4.437,1.15l6.108-6.123
	c-0.248,2.315-1.26,4.5-2.938,6.198c-1.931,1.955-4.5,3.03-7.234,3.03c-1.102,0-2.189-0.177-3.234-0.525l-1.332-0.445l-0.631,1.272
	c-0.218,0.439-0.456,0.787-0.727,1.061l-3.717,3.761h-11.369L258.982,23.691z M229.021,26.412c-1.14,1.152-2.656,1.79-4.271,1.79
	c-1.614,0-3.133-0.638-4.274-1.793l-12.839-12.992c-1.141-1.154-1.771-2.691-1.771-4.324c0-1.634,0.631-3.17,1.771-4.326
	c1.143-1.155,2.66-1.792,4.275-1.792s3.131,0.637,4.274,1.792l12.841,12.991c1.143,1.155,1.771,2.691,1.771,4.325
	c0,1.633-0.63,3.168-1.771,4.324L229.021,26.412z M230.752,28.867l0.344-0.348c0.002-0.003,0.005-0.005,0.008-0.007
	c0.003-0.002,0.004-0.005,0.008-0.008l0.51-0.517l7.067,5.937h-2.185L230.752,28.867z M280.617,91.705H206.74V37.218h73.879v54.487
	H280.617z M229.205,53.158h27.979c1.531,0,2.778-1.26,2.778-2.811v-4.261c0-1.55-1.247-2.811-2.778-2.811h-27.979
	c-1.53,0-2.777,1.26-2.777,2.811v4.261C226.428,51.898,227.675,53.158,229.205,53.158z M229.685,46.573h27.019v3.29h-27.019V46.573z
	 M209.99,9.548c-0.457-0.464-1.203-0.464-1.662,0c-0.459,0.465-0.459,1.218,0,1.683l15.152,15.33c0.229,0.232,0.53,0.348,0.83,0.348
	c0.301,0,0.604-0.116,0.831-0.348c0.46-0.465,0.46-1.218,0-1.683L209.99,9.548z M229.175,20.8L214.022,5.469
	c-0.458-0.465-1.202-0.465-1.663,0c-0.457,0.464-0.457,1.218,0,1.682l15.152,15.332c0.23,0.233,0.529,0.349,0.831,0.349
	s0.603-0.116,0.832-0.349C229.635,22.018,229.635,21.264,229.175,20.8z"/>
<path fill="#0176A5" d="M338.562,67.467c-2.223-3.783-9.604-7.179-12.144-7.179c-0.527,0-0.997,0.118-1.399,0.353
	c-1.048,0.608-1.978,1.375-2.768,2.268c-2.332-2.551-4.452-5.441-6.325-8.627c-1.906-3.242-3.462-6.667-4.563-10.035
	c1.148-0.248,2.252-0.677,3.272-1.268c1.098-0.64,2.08-1.467,2.917-2.459c0.271-0.319,0.444-0.711,0.491-1.129
	c0.425-3.681-0.554-7.767-2.749-11.504c-1.176-1.995-2.619-3.748-4.293-5.208c-0.354-0.31-0.797-0.493-1.264-0.524
	c-2.241-0.159-4.516,0.367-6.457,1.498c-0.072,0.041-0.143,0.087-0.212,0.133l-0.01,0.004c-0.085,0.046-0.168,0.091-0.263,0.143
	c-9.163,5.332-9.03,21.939,0.297,37.81c7.176,12.208,17.932,20.408,26.764,20.408c2.287,0,4.38-0.543,6.215-1.608
	c1.898-1.106,3.439-2.731,4.577-4.833c0.104-0.191,0.172-0.396,0.205-0.605c0.004-0.006,0.004-0.01,0.006-0.013
	c0.199-0.42,0.253-0.89,0.159-1.344C340.565,71.577,339.736,69.464,338.562,67.467z M336.582,74.202
	c-0.718,1.153-1.612,2.045-2.671,2.659c-1.168,0.681-2.531,1.027-4.052,1.027c-7.247-0.003-16.732-7.525-23.063-18.298
	c-7.849-13.348-8.688-27.995-1.849-31.973l0.236-0.124c0.035-0.02,0.068-0.039,0.102-0.058c0.058-0.035,0.115-0.076,0.154-0.103
	c1.005-0.586,2.139-0.911,3.296-0.943c1.095,1.052,2.058,2.273,2.863,3.646c1.572,2.673,2.372,5.625,2.246,8.209
	c-0.417,0.412-0.875,0.764-1.371,1.052c-1.146,0.667-2.474,0.988-3.806,0.936c-0.673-0.035-1.33,0.265-1.757,0.791
	c-0.428,0.526-0.576,1.226-0.406,1.879c1.203,4.56,3.128,9.113,5.722,13.527c2.536,4.31,5.5,8.133,8.815,11.367
	c0.488,0.479,1.181,0.694,1.856,0.58c0.68-0.113,1.258-0.543,1.563-1.156c0.523-1.058,1.305-1.955,2.271-2.621
	c1.734,0.387,6.802,2.754,8.132,5.019c0.814,1.382,1.417,2.825,1.801,4.301C336.629,74.012,336.602,74.107,336.582,74.202z
	 M362.177,12.851c-15.892,0-28.821,9.5-28.821,21.175c0,7.257,5.028,13.967,13.24,17.833c-0.692,2.908-2.287,6.658-5.921,7.777
	c-1.046,0.321-1.678,1.375-1.469,2.44c0.194,1.011,1.084,1.726,2.101,1.726c0.059,0,0.118-0.002,0.18-0.006
	c0.641-0.054,15.262-1.349,22.076-8.624c15.461-0.526,27.434-9.681,27.434-21.148C390.996,22.351,378.067,12.851,362.177,12.851z
	 M362.548,50.934c-0.638,0.008-1.241,0.297-1.645,0.791c-2.738,3.371-7.875,5.342-12.223,6.463c1.467-2.498,2.147-5.266,2.463-7.263
	c0.152-0.976-0.389-1.931-1.309-2.302c-7.522-3.048-12.196-8.641-12.196-14.597c0-9.325,11.005-16.913,24.537-16.913
	c13.527,0,24.535,7.587,24.535,16.913C386.712,43.21,375.868,50.796,362.548,50.934z M352.353,30.51
	c-1.906,0-3.449,1.535-3.449,3.429s1.542,3.431,3.449,3.431c1.904,0,3.448-1.537,3.448-3.431S354.257,30.51,352.353,30.51z
	 M362.175,30.51c-1.904,0-3.447,1.535-3.447,3.429s1.543,3.431,3.447,3.431s3.448-1.537,3.448-3.431S364.08,30.51,362.175,30.51z
	 M372,30.51c-1.906,0-3.449,1.535-3.449,3.429s1.543,3.431,3.449,3.431c1.902,0,3.447-1.537,3.447-3.431S373.903,30.51,372,30.51z"
	/>
<g>
	<g>
		<path fill-rule="evenodd" clip-rule="evenodd" fill="#0076A4" d="M171.652,153.689c0.451-2.093,0.68-4.17,0.68-6.191
			c0-2.231-0.272-4.505-0.807-6.771l6.961-4.271l-9.094-15.25l-6.967,4.274c-2.955-2.608-6.425-4.597-10.134-5.806v-8.246h-17.573
			v8.249c-3.913,1.271-7.539,3.391-10.583,6.192l-7.042-4.122l-8.786,15.434l7.051,4.13c-0.452,2.088-0.68,4.166-0.68,6.188
			c0,2.231,0.272,4.509,0.807,6.774l-6.962,4.271l9.093,15.249l6.97-4.275c2.951,2.611,6.421,4.596,10.131,5.807v8.249h17.573
			v-8.249c3.917-1.272,7.542-3.396,10.584-6.195l7.041,4.123l8.786-15.437L171.652,153.689z M168.967,169.663l-6.48-3.794
			l-0.701,0.691c-3.109,3.068-6.961,5.326-11.143,6.524l-0.941,0.269v7.592h-12.393v-7.592l-0.943-0.272
			c-3.985-1.141-7.698-3.268-10.742-6.151l-0.716-0.679l-6.415,3.936l-6.413-10.757l6.408-3.93l-0.259-0.959
			c-0.637-2.357-0.961-4.728-0.961-7.043c0-2.119,0.279-4.31,0.828-6.515l0.238-0.965l-6.487-3.797l6.195-10.886l6.48,3.791
			l0.703-0.692c3.111-3.068,6.963-5.323,11.141-6.521l0.943-0.267v-7.593h12.393v7.591l0.943,0.269
			c3.981,1.143,7.696,3.271,10.744,6.156l0.714,0.679l6.415-3.936l6.413,10.755l-6.408,3.93l0.258,0.957
			c0.638,2.36,0.961,4.727,0.961,7.044c0,2.118-0.278,4.312-0.827,6.521l-0.24,0.958l6.487,3.803L168.967,169.663z M154.69,145.707
			c-1.22-0.705-15.513-8.958-16.227-9.367c-0.893-0.511-1.795,0.139-1.795,1.012v18.772c0,0.961,0.998,1.429,1.758,1.006
			c1.039-0.577,15.386-8.871,16.264-9.39C155.479,147.276,155.492,146.171,154.69,145.707z M143.52,128.602
			c-10.422,0-18.898,8.477-18.898,18.896c0,10.421,8.477,18.898,18.898,18.898c10.42,0,18.896-8.478,18.896-18.898
			C162.417,137.078,153.94,128.602,143.52,128.602z M143.52,164.885c-9.588,0-17.387-7.8-17.387-17.387
			c0-9.586,7.799-17.385,17.387-17.385c9.586,0,17.385,7.799,17.385,17.385C160.905,157.085,153.106,164.885,143.52,164.885z"/>
	</g>
</g>
<g>
	<g>
		<path fill="#0076A4" d="M552.953,152.923v-37.639c0-1.421-1.156-2.577-2.576-2.577h-13.746c-1.422,0-2.576,1.156-2.576,2.577
			v37.639c-4.24,3.047-6.756,7.935-6.756,13.165c0,8.935,7.27,16.205,16.205,16.205s16.205-7.271,16.205-16.205
			C559.709,160.857,557.191,155.97,552.953,152.923z M543.504,180.575c-7.988,0-14.486-6.499-14.486-14.487
			c0-4.813,2.383-9.302,6.377-12.006l0.377-0.256v-11.122h8.496c0.473,0,0.859-0.384,0.859-0.858s-0.387-0.859-0.859-0.859h-8.496
			v-3.89h5.031c0.475,0,0.859-0.384,0.859-0.858c0-0.476-0.385-0.859-0.859-0.859h-5.031v-3.89h8.496
			c0.473,0,0.859-0.384,0.859-0.859c0-0.475-0.387-0.858-0.859-0.858h-8.496v-3.89h5.031c0.475,0,0.859-0.384,0.859-0.859
			c0-0.475-0.385-0.858-0.859-0.858h-5.031v-3.89h8.496c0.473,0,0.859-0.385,0.859-0.859s-0.387-0.859-0.859-0.859h-8.496v-3.271
			c0-0.474,0.387-0.859,0.859-0.859h13.746c0.473,0,0.859,0.386,0.859,0.859v38.542l0.377,0.256
			c3.994,2.704,6.377,7.192,6.377,12.006C557.99,174.076,551.492,180.575,543.504,180.575z M550.166,156.217l-1.508-1.022v-8.728
			H538.35v8.728l-1.51,1.022c-3.285,2.224-5.246,5.914-5.246,9.871c0,6.567,5.342,11.91,11.91,11.91
			c6.566,0,11.91-5.343,11.91-11.91C555.414,162.131,553.453,158.44,550.166,156.217z"/>
	</g>
</g>
<g>
	<g>
		<path fill="#0076A4" d="M443.503,135.125c-6.799,0-12.31,5.51-12.31,12.308c0,6.799,5.511,12.309,12.31,12.309
			c6.797,0,12.308-5.51,12.308-12.309C455.811,140.636,450.3,135.125,443.503,135.125z M445.207,139.07
			c-5.573,0-10.094,4.519-10.094,10.094c0,2.287,0.77,4.391,2.054,6.084c-2.434-1.842-4.011-4.753-4.011-8.041
			c0-5.576,4.521-10.094,10.095-10.094c3.287,0,6.198,1.579,8.04,4.01C449.599,139.84,447.494,139.07,445.207,139.07z
			 M424.619,128.617c-10.411,10.412-10.411,27.354,0,37.765l3.443-3.443c-8.512-8.514-8.512-22.365,0-30.878L424.619,128.617z
			 M462.386,128.617l-3.443,3.443c8.513,8.514,8.513,22.365,0,30.878l3.443,3.443C472.797,155.97,472.797,139.028,462.386,128.617z
			 M419.901,123.9l-3.443-3.443c-14.911,14.912-14.911,39.174,0,54.086l3.443-3.443C406.889,158.088,406.889,136.913,419.901,123.9z
			 M470.549,120.457l-3.443,3.443c13.013,13.012,13.013,34.188,0,47.2l3.443,3.443C485.461,159.631,485.461,135.369,470.549,120.457
			z"/>
	</g>
</g>
<g>
	<g>
		<path fill="#0076A4" d="M0,125.265h24.294v-4.492H0V125.265z M0,133.426h24.294v-4.492H0V133.426z M0,141.585h24.294v-4.492H0
			V141.585z M0,149.747h24.294v-4.492H0V149.747z M0,157.906h24.294v-4.492H0V157.906z M0,166.068h24.294v-4.492H0V166.068z
			 M0,174.228h24.294v-4.492H0V174.228z M31.356,149.747h24.294v-4.492H31.356V149.747z M31.356,157.906h24.294v-4.492H31.356
			V157.906z M31.356,166.068h24.294v-4.492H31.356V166.068z M31.356,174.228h24.294v-4.492H31.356V174.228z M62.713,161.576v4.492
			h24.294v-4.492H62.713z M62.713,174.228h24.294v-4.492H62.713V174.228z"/>
	</g>
</g>
<g>
	<g>
		<path fill-rule="evenodd" clip-rule="evenodd" fill="#0076A4" d="M279.546,112.904c-0.05-0.589-0.508-1.059-1.092-1.119
			l-27.55-2.932c-0.369-0.039-0.735,0.091-0.997,0.356l-44.461,44.733c-0.478,0.483-0.478,1.264,0,1.747l29.919,30.102
			c0.48,0.483,1.257,0.483,1.735,0l24.604-24.755v-3.49l-25.471,25.627l-28.184-28.358l43.18-43.444l25.964,2.762l2.23,25.586
			l-10.98,11.048v3.49l13.12-13.2c0.257-0.257,0.386-0.616,0.354-0.98L279.546,112.904z M268.442,129.879v1.24
			c0.306-0.215,0.6-0.454,0.873-0.728c2.503-2.519,2.503-6.616,0-9.134c-2.502-2.519-6.576-2.519-9.078,0
			c-2.503,2.519-2.503,6.616,0,9.134c0.445,0.448,0.94,0.812,1.467,1.1v-1.612c0-0.446,0.09-0.869,0.246-1.258
			c-1.521-1.559-1.517-4.072,0.021-5.619c1.547-1.556,4.064-1.556,5.609,0c1.399,1.407,1.52,3.606,0.387,5.167
			C268.261,128.673,268.442,129.253,268.442,129.879z M265.073,125.131c-1.116,0-2.022,0.91-2.022,2.034v44.784
			c0,1.124,0.906,2.035,2.022,2.035c1.118,0,2.022-0.911,2.022-2.035v-44.784C267.095,126.041,266.19,125.131,265.073,125.131z"/>
	</g>
</g>
<g>
	<g>
		<path fill="#0076A4" d="M325.592,158.078c-5.083,0-9.217,4.154-9.217,9.266c0,5.109,4.134,9.266,9.217,9.266
			c5.082,0,9.217-4.156,9.217-9.266C334.809,162.232,330.674,158.078,325.592,158.078z M325.592,174.693
			c-4.032,0-7.313-3.296-7.313-7.35s3.28-7.351,7.313-7.351s7.313,3.297,7.313,7.351S329.624,174.693,325.592,174.693z
			 M346.794,167.344c0-1.629-0.2-3.287-0.595-4.938l5.121-3.115l-6.688-11.118l-5.126,3.116c-2.173-1.904-4.726-3.353-7.454-4.233
			v-6.014h-12.925v6.016c-2.877,0.926-5.545,2.473-7.783,4.517l-5.18-3.009l-6.462,11.257l5.187,3.009
			c-0.332,1.523-0.501,3.039-0.501,4.514c0,1.626,0.201,3.285,0.596,4.937l-5.123,3.117l6.69,11.116l5.126-3.115
			c2.171,1.904,4.724,3.353,7.451,4.233v6.015h12.925v-6.014c2.882-0.928,5.548-2.477,7.786-4.519l5.178,3.007l6.462-11.255
			l-5.185-3.009C346.626,170.332,346.794,168.817,346.794,167.344z M348.876,175.567l-4.558,7.937l-4.765-2.766l-0.517,0.505
			c-2.286,2.237-5.12,3.882-8.195,4.756l-0.693,0.198v5.533h-9.114v-5.535l-0.694-0.196c-2.93-0.834-5.661-2.386-7.901-4.487
			l-0.525-0.496l-4.72,2.869l-4.716-7.841l4.713-2.864l-0.189-0.7c-0.468-1.721-0.707-3.449-0.707-5.136
			c0-1.545,0.205-3.143,0.607-4.754l0.176-0.701l-4.772-2.769l4.557-7.937l4.767,2.764l0.515-0.505
			c2.289-2.236,5.123-3.883,8.195-4.754l0.694-0.196v-5.537h9.114v5.536l0.695,0.197c2.928,0.831,5.659,2.383,7.901,4.487
			l0.526,0.495l4.717-2.868l4.717,7.84l-4.714,2.865l0.191,0.7c0.469,1.718,0.707,3.444,0.707,5.136
			c0,1.545-0.205,3.141-0.609,4.752l-0.177,0.701L348.876,175.567z M361.418,118.389c-5.082,0-9.217,4.158-9.217,9.268
			c0,5.107,4.135,9.266,9.217,9.266c5.083,0,9.217-4.158,9.217-9.266C370.635,122.547,366.501,118.389,361.418,118.389z
			 M361.418,135.007c-4.031,0-7.312-3.297-7.312-7.351s3.28-7.353,7.312-7.353c4.032,0,7.311,3.299,7.311,7.353
			S365.45,135.007,361.418,135.007z M382.12,132.17c0.333-1.527,0.5-3.041,0.5-4.516c0-1.627-0.199-3.285-0.594-4.938l5.121-3.114
			l-6.688-11.12l-5.126,3.116c-2.173-1.901-4.725-3.351-7.453-4.231v-6.014h-12.925v6.015c-2.879,0.927-5.546,2.474-7.784,4.516
			l-5.18-3.007l-6.461,11.256l5.185,3.01c-0.331,1.523-0.5,3.039-0.5,4.512c0,1.628,0.199,3.289,0.594,4.939l-5.121,3.114
			l6.689,11.12l5.127-3.118c2.169,1.903,4.721,3.352,7.451,4.233v6.016h12.925v-6.016c2.881-0.928,5.547-2.477,7.784-4.517
			l5.18,3.005l6.461-11.255L382.12,132.17z M380.146,143.816l-4.766-2.768l-0.517,0.506c-2.285,2.238-5.119,3.884-8.194,4.757
			l-0.693,0.196v5.535h-9.116v-5.535l-0.693-0.198c-2.929-0.832-5.662-2.383-7.9-4.485l-0.527-0.496l-4.718,2.869l-4.717-7.841
			l4.713-2.866l-0.189-0.699c-0.47-1.721-0.706-3.447-0.706-5.137c0-1.545,0.204-3.143,0.607-4.75l0.176-0.705l-4.772-2.767
			l4.558-7.938l4.766,2.764l0.517-0.505c2.288-2.235,5.122-3.879,8.194-4.754l0.693-0.194v-5.535h9.116v5.533l0.693,0.196
			c2.928,0.833,5.661,2.385,7.902,4.489l0.525,0.493l4.719-2.868l4.716,7.841l-4.713,2.866l0.189,0.698
			c0.47,1.722,0.708,3.446,0.708,5.136c0,1.546-0.204,3.145-0.609,4.754l-0.176,0.699l4.772,2.772L380.146,143.816z"/>
	</g>
</g>
<g>
	<g>
		<path fill="#0076A4" d="M681.267,134.265h-17.082l2.689-2.729c0.26-0.265,0.5-0.555,0.72-0.879
			c1.026,0.253,2.079,0.382,3.143,0.382c3.525,0,6.839-1.391,9.329-3.919c3.208-3.255,4.534-7.893,3.544-12.405l-0.517-2.363
			l-7.053,7.195l-2.101,2.085l-2.817-0.733l-2.829-0.802l-0.783-2.842l-0.729-2.888l9.145-9.288l-2.328-0.525
			c-0.946-0.215-1.92-0.322-2.892-0.322c-3.528,0-6.844,1.391-9.332,3.919c-3.294,3.341-4.584,8.108-3.487,12.657
			c-0.318,0.223-0.605,0.466-0.865,0.73l-12.54,12.725h-0.979l-10.524-8.866c0.422-1.056,0.646-2.195,0.646-3.369
			c0-2.396-0.919-4.648-2.589-6.342l-12.869-13.06c-1.67-1.693-3.89-2.627-6.25-2.627c-2.361,0-4.581,0.935-6.251,2.629
			c-1.669,1.693-2.589,3.945-2.589,6.341s0.92,4.648,2.589,6.342l12.87,13.06c1.669,1.694,3.89,2.627,6.25,2.627
			c1.196,0,2.355-0.242,3.426-0.699l4.496,3.964h-26.458c-1.354,0-2.456,1.118-2.456,2.492v55.75c0,1.375,1.103,2.493,2.456,2.493
			h75.018c1.354,0,2.457-1.118,2.457-2.493v-55.75C683.724,135.382,682.621,134.265,681.267,134.265z M658.868,123.412
			c0.296-0.301,0.668-0.563,1.137-0.801l1.007-0.513l-0.353-1.085c-1.266-3.891-0.282-8.101,2.561-10.987
			c1.933-1.961,4.486-3.07,7.215-3.139l-3.465,3.499l-3.082,3.196l1.101,4.359l1.188,4.307l4.271,1.211l4.269,1.111l6.601-6.648
			c-0.063,2.728-1.146,5.346-3.096,7.326c-1.996,2.027-4.654,3.143-7.483,3.143c-1.14,0-2.265-0.183-3.344-0.545l-1.07-0.357
			l-0.506,1.022c-0.234,0.475-0.493,0.853-0.79,1.155l-3.82,3.877h-12.319L658.868,123.412z M629.183,126.505
			c-1.177,1.189-2.737,1.845-4.397,1.845c-1.664,0-3.229-0.658-4.404-1.851l-12.87-13.061c-1.176-1.193-1.823-2.78-1.823-4.468
			s0.647-3.275,1.823-4.468c1.178-1.193,2.742-1.851,4.405-1.851c1.662,0,3.227,0.657,4.402,1.851l12.871,13.059
			c1.177,1.193,1.824,2.78,1.824,4.468c0,1.685-0.647,3.27-1.819,4.463L629.183,126.505z M630.556,128.858l0.476-0.483
			c0.001-0.001,0.003-0.002,0.004-0.003s0.002-0.002,0.003-0.004l0.625-0.634l7.749,6.53h-2.725L630.556,128.858z M681.112,192.351
			h-74.709v-55.437h29.31l0.145,0.127H646.8l-0.151-0.127h34.464V192.351z M626.794,146.161v4.284c0,1.374,1.102,2.493,2.458,2.493
			h28.044c1.354,0,2.457-1.119,2.457-2.493v-4.284c0-1.375-1.103-2.494-2.457-2.494h-28.044
			C627.896,143.667,626.794,144.787,626.794,146.161z M629.404,146.317h27.737v3.972h-27.737V146.317z M608.234,111.212
			l15.188,15.412l1.846-1.875l-15.188-15.412L608.234,111.212z M614.122,105.237l-1.846,1.874l15.187,15.412l1.848-1.874
			L614.122,105.237z"/>
	</g>
</g>
<g>
	<g>
		<path fill-rule="evenodd" clip-rule="evenodd" fill="#636464" d="M171.652,253.689c0.451-2.093,0.68-4.17,0.68-6.191
			c0-2.231-0.272-4.505-0.807-6.771l6.961-4.271l-9.094-15.25l-6.967,4.274c-2.955-2.608-6.425-4.597-10.134-5.806v-8.246h-17.573
			v8.249c-3.913,1.271-7.539,3.391-10.583,6.192l-7.042-4.122l-8.786,15.434l7.051,4.13c-0.452,2.088-0.68,4.166-0.68,6.188
			c0,2.231,0.272,4.509,0.807,6.774l-6.962,4.271l9.093,15.249l6.97-4.275c2.951,2.611,6.421,4.596,10.131,5.807v8.249h17.573
			v-8.249c3.917-1.272,7.542-3.396,10.584-6.195l7.041,4.123l8.786-15.437L171.652,253.689z M168.967,269.663l-6.48-3.794
			l-0.701,0.691c-3.109,3.068-6.961,5.326-11.143,6.524l-0.941,0.269v7.592h-12.393v-7.592l-0.943-0.272
			c-3.985-1.141-7.698-3.268-10.742-6.151l-0.716-0.679l-6.415,3.936l-6.413-10.757l6.408-3.93l-0.259-0.959
			c-0.637-2.357-0.961-4.728-0.961-7.043c0-2.119,0.279-4.31,0.828-6.515l0.238-0.965l-6.487-3.797l6.195-10.886l6.48,3.791
			l0.703-0.692c3.111-3.068,6.963-5.323,11.141-6.521l0.943-0.267v-7.593h12.393v7.591l0.943,0.269
			c3.981,1.143,7.696,3.271,10.744,6.156l0.714,0.679l6.415-3.936l6.413,10.755l-6.408,3.93l0.258,0.957
			c0.638,2.36,0.961,4.727,0.961,7.044c0,2.118-0.278,4.312-0.827,6.521l-0.24,0.958l6.487,3.803L168.967,269.663z M154.69,245.707
			c-1.22-0.705-15.513-8.958-16.227-9.367c-0.893-0.511-1.795,0.139-1.795,1.012v18.772c0,0.961,0.998,1.429,1.758,1.006
			c1.039-0.577,15.386-8.871,16.264-9.39C155.479,247.276,155.492,246.171,154.69,245.707z M143.52,228.602
			c-10.422,0-18.898,8.477-18.898,18.896c0,10.421,8.477,18.898,18.898,18.898c10.42,0,18.896-8.478,18.896-18.898
			C162.417,237.078,153.94,228.602,143.52,228.602z M143.52,264.885c-9.588,0-17.387-7.8-17.387-17.387
			c0-9.586,7.799-17.385,17.387-17.385c9.586,0,17.385,7.799,17.385,17.385C160.905,257.085,153.106,264.885,143.52,264.885z"/>
	</g>
</g>
<g>
	<g>
		<path fill="#636464" d="M552.953,252.923v-37.639c0-1.421-1.156-2.577-2.576-2.577h-13.746c-1.422,0-2.576,1.156-2.576,2.577
			v37.639c-4.24,3.047-6.756,7.935-6.756,13.165c0,8.935,7.27,16.205,16.205,16.205s16.205-7.271,16.205-16.205
			C559.709,260.857,557.191,255.97,552.953,252.923z M543.504,280.575c-7.988,0-14.486-6.499-14.486-14.487
			c0-4.813,2.383-9.302,6.377-12.006l0.377-0.256v-11.122h8.496c0.473,0,0.859-0.384,0.859-0.858s-0.387-0.859-0.859-0.859h-8.496
			v-3.89h5.031c0.475,0,0.859-0.384,0.859-0.858c0-0.476-0.385-0.859-0.859-0.859h-5.031v-3.89h8.496
			c0.473,0,0.859-0.384,0.859-0.859c0-0.475-0.387-0.858-0.859-0.858h-8.496v-3.89h5.031c0.475,0,0.859-0.384,0.859-0.859
			c0-0.475-0.385-0.858-0.859-0.858h-5.031v-3.89h8.496c0.473,0,0.859-0.385,0.859-0.859s-0.387-0.859-0.859-0.859h-8.496v-3.271
			c0-0.474,0.387-0.859,0.859-0.859h13.746c0.473,0,0.859,0.386,0.859,0.859v38.542l0.377,0.256
			c3.994,2.704,6.377,7.192,6.377,12.006C557.99,274.076,551.492,280.575,543.504,280.575z M550.166,256.217l-1.508-1.022v-8.728
			H538.35v8.728l-1.51,1.022c-3.285,2.224-5.246,5.914-5.246,9.871c0,6.567,5.342,11.91,11.91,11.91
			c6.566,0,11.91-5.343,11.91-11.91C555.414,262.131,553.453,258.44,550.166,256.217z"/>
	</g>
</g>
<g>
	<g>
		<path fill="#636464" d="M443.503,235.125c-6.799,0-12.31,5.51-12.31,12.308c0,6.799,5.511,12.309,12.31,12.309
			c6.797,0,12.308-5.51,12.308-12.309C455.811,240.636,450.3,235.125,443.503,235.125z M445.207,239.07
			c-5.573,0-10.094,4.519-10.094,10.094c0,2.287,0.77,4.391,2.054,6.084c-2.434-1.842-4.011-4.753-4.011-8.041
			c0-5.576,4.521-10.094,10.095-10.094c3.287,0,6.198,1.579,8.04,4.01C449.599,239.84,447.494,239.07,445.207,239.07z
			 M424.619,228.617c-10.411,10.412-10.411,27.354,0,37.765l3.443-3.443c-8.512-8.514-8.512-22.365,0-30.878L424.619,228.617z
			 M462.386,228.617l-3.443,3.443c8.513,8.514,8.513,22.365,0,30.878l3.443,3.443C472.797,255.97,472.797,239.028,462.386,228.617z
			 M419.901,223.9l-3.443-3.443c-14.911,14.912-14.911,39.174,0,54.086l3.443-3.443C406.889,258.088,406.889,236.913,419.901,223.9z
			 M470.549,220.457l-3.443,3.443c13.013,13.012,13.013,34.188,0,47.2l3.443,3.443C485.461,259.631,485.461,235.369,470.549,220.457
			z"/>
	</g>
</g>
<g>
	<g>
		<path fill="#636464" d="M0,225.265h24.294v-4.492H0V225.265z M0,233.426h24.294v-4.492H0V233.426z M0,241.585h24.294v-4.492H0
			V241.585z M0,249.747h24.294v-4.492H0V249.747z M0,257.906h24.294v-4.492H0V257.906z M0,266.068h24.294v-4.492H0V266.068z
			 M0,274.228h24.294v-4.492H0V274.228z M31.356,249.747h24.294v-4.492H31.356V249.747z M31.356,257.906h24.294v-4.492H31.356
			V257.906z M31.356,266.068h24.294v-4.492H31.356V266.068z M31.356,274.228h24.294v-4.492H31.356V274.228z M62.713,261.576v4.492
			h24.294v-4.492H62.713z M62.713,274.228h24.294v-4.492H62.713V274.228z"/>
	</g>
</g>
<g>
	<g>
		<path fill-rule="evenodd" clip-rule="evenodd" fill="#636464" d="M268.442,229.879v1.24c0.306-0.215,0.6-0.454,0.873-0.728
			c2.503-2.519,2.503-6.616,0-9.134c-2.502-2.519-6.576-2.519-9.078,0c-2.503,2.519-2.503,6.616,0,9.134
			c0.445,0.448,0.94,0.812,1.467,1.1v-1.612c0-0.446,0.09-0.869,0.246-1.258c-1.521-1.559-1.517-4.072,0.021-5.619
			c1.547-1.556,4.064-1.556,5.609,0c1.399,1.407,1.52,3.606,0.387,5.167C268.261,228.673,268.442,229.253,268.442,229.879z
			 M279.546,212.904c-0.05-0.589-0.508-1.059-1.092-1.119l-27.55-2.932c-0.369-0.039-0.735,0.091-0.997,0.356l-44.461,44.733
			c-0.478,0.483-0.478,1.264,0,1.747l29.919,30.102c0.48,0.483,1.257,0.483,1.735,0l24.604-24.755v-3.49l-25.471,25.627
			l-28.184-28.358l43.18-43.444l25.964,2.762l2.23,25.586l-10.98,11.048v3.49l13.12-13.2c0.257-0.257,0.386-0.616,0.354-0.98
			L279.546,212.904z M265.073,225.131c-1.116,0-2.022,0.91-2.022,2.034v44.784c0,1.124,0.906,2.035,2.022,2.035
			c1.118,0,2.022-0.911,2.022-2.035v-44.784C267.095,226.041,266.19,225.131,265.073,225.131z"/>
	</g>
</g>
<g>
	<g>
		<path fill="#636464" d="M325.592,258.078c-5.083,0-9.217,4.154-9.217,9.266c0,5.109,4.134,9.266,9.217,9.266
			c5.082,0,9.217-4.156,9.217-9.266C334.809,262.232,330.674,258.078,325.592,258.078z M325.592,274.693
			c-4.032,0-7.313-3.296-7.313-7.35s3.28-7.351,7.313-7.351s7.313,3.297,7.313,7.351S329.624,274.693,325.592,274.693z
			 M346.794,267.344c0-1.629-0.2-3.287-0.595-4.938l5.121-3.115l-6.688-11.118l-5.126,3.116c-2.173-1.904-4.726-3.353-7.454-4.233
			v-6.014h-12.925v6.016c-2.877,0.926-5.545,2.473-7.783,4.517l-5.18-3.009l-6.462,11.257l5.187,3.009
			c-0.332,1.523-0.501,3.039-0.501,4.514c0,1.626,0.201,3.285,0.596,4.937l-5.123,3.117l6.69,11.116l5.126-3.115
			c2.171,1.904,4.724,3.353,7.451,4.233v6.015h12.925v-6.014c2.882-0.928,5.548-2.477,7.786-4.519l5.178,3.007l6.462-11.255
			l-5.185-3.009C346.626,270.332,346.794,268.817,346.794,267.344z M348.876,275.567l-4.558,7.937l-4.765-2.766l-0.517,0.505
			c-2.286,2.237-5.12,3.882-8.195,4.756l-0.693,0.198v5.533h-9.114v-5.535l-0.694-0.196c-2.93-0.834-5.661-2.386-7.901-4.487
			l-0.525-0.496l-4.72,2.869l-4.716-7.841l4.713-2.864l-0.189-0.7c-0.468-1.721-0.707-3.449-0.707-5.136
			c0-1.545,0.205-3.143,0.607-4.754l0.176-0.701l-4.772-2.769l4.557-7.937l4.767,2.764l0.515-0.505
			c2.289-2.236,5.123-3.883,8.195-4.754l0.694-0.196v-5.537h9.114v5.536l0.695,0.197c2.928,0.831,5.659,2.383,7.901,4.487
			l0.526,0.495l4.717-2.868l4.717,7.84l-4.714,2.865l0.191,0.7c0.469,1.718,0.707,3.444,0.707,5.136
			c0,1.545-0.205,3.141-0.609,4.752l-0.177,0.701L348.876,275.567z M382.12,232.17c0.333-1.527,0.5-3.041,0.5-4.516
			c0-1.627-0.199-3.285-0.594-4.938l5.121-3.114l-6.688-11.12l-5.126,3.116c-2.173-1.901-4.725-3.351-7.453-4.231v-6.014h-12.925
			v6.015c-2.879,0.927-5.546,2.474-7.784,4.516l-5.18-3.007l-6.461,11.256l5.185,3.01c-0.331,1.523-0.5,3.039-0.5,4.512
			c0,1.628,0.199,3.289,0.594,4.939l-5.121,3.114l6.689,11.12l5.127-3.118c2.169,1.903,4.721,3.352,7.451,4.233v6.016h12.925v-6.016
			c2.881-0.928,5.547-2.477,7.784-4.517l5.18,3.005l6.461-11.255L382.12,232.17z M380.146,243.816l-4.766-2.768l-0.517,0.506
			c-2.285,2.238-5.119,3.884-8.194,4.757l-0.693,0.196v5.535h-9.116v-5.535l-0.693-0.198c-2.929-0.832-5.662-2.383-7.9-4.485
			l-0.527-0.496l-4.718,2.869l-4.717-7.841l4.713-2.866l-0.189-0.699c-0.47-1.721-0.706-3.447-0.706-5.137
			c0-1.545,0.204-3.143,0.607-4.75l0.176-0.705l-4.772-2.767l4.558-7.938l4.766,2.764l0.517-0.505
			c2.288-2.235,5.122-3.879,8.194-4.754l0.693-0.194v-5.535h9.116v5.533l0.693,0.196c2.928,0.833,5.661,2.385,7.902,4.489
			l0.525,0.493l4.719-2.868l4.716,7.841l-4.713,2.866l0.189,0.698c0.47,1.722,0.708,3.446,0.708,5.136
			c0,1.546-0.204,3.145-0.609,4.754l-0.176,0.699l4.772,2.772L380.146,243.816z M361.418,218.389c-5.082,0-9.217,4.158-9.217,9.268
			c0,5.107,4.135,9.266,9.217,9.266c5.083,0,9.217-4.158,9.217-9.266C370.635,222.547,366.501,218.389,361.418,218.389z
			 M361.418,235.007c-4.031,0-7.312-3.297-7.312-7.351s3.28-7.353,7.312-7.353c4.032,0,7.311,3.299,7.311,7.353
			S365.45,235.007,361.418,235.007z"/>
	</g>
</g>
<g>
	<g>
		<path fill="#636464" d="M681.267,234.265h-17.082l2.689-2.729c0.26-0.265,0.5-0.555,0.72-0.879
			c1.026,0.253,2.079,0.382,3.143,0.382c3.525,0,6.839-1.391,9.329-3.919c3.208-3.255,4.534-7.893,3.544-12.405l-0.517-2.363
			l-7.053,7.195l-2.101,2.085l-2.817-0.733l-2.829-0.802l-0.783-2.842l-0.729-2.888l9.145-9.288l-2.328-0.525
			c-0.946-0.215-1.92-0.322-2.892-0.322c-3.528,0-6.844,1.391-9.332,3.919c-3.294,3.341-4.584,8.108-3.487,12.657
			c-0.318,0.223-0.605,0.466-0.865,0.73l-12.54,12.725h-0.979l-10.524-8.866c0.422-1.056,0.646-2.195,0.646-3.369
			c0-2.396-0.919-4.648-2.589-6.342l-12.869-13.06c-1.67-1.693-3.89-2.627-6.25-2.627c-2.361,0-4.581,0.935-6.251,2.629
			c-1.669,1.693-2.589,3.945-2.589,6.341s0.92,4.648,2.589,6.342l12.87,13.06c1.669,1.694,3.89,2.627,6.25,2.627
			c1.196,0,2.355-0.242,3.426-0.699l4.496,3.964h-26.458c-1.354,0-2.456,1.118-2.456,2.492v55.75c0,1.375,1.103,2.493,2.456,2.493
			h75.018c1.354,0,2.457-1.118,2.457-2.493v-55.75C683.724,235.382,682.621,234.265,681.267,234.265z M658.868,223.412
			c0.296-0.301,0.668-0.563,1.137-0.801l1.007-0.513l-0.353-1.085c-1.266-3.891-0.282-8.101,2.561-10.987
			c1.933-1.961,4.486-3.07,7.215-3.139l-3.465,3.499l-3.082,3.196l1.101,4.359l1.188,4.307l4.271,1.211l4.269,1.111l6.601-6.648
			c-0.063,2.728-1.146,5.346-3.096,7.326c-1.996,2.027-4.654,3.143-7.483,3.143c-1.14,0-2.265-0.183-3.344-0.545l-1.07-0.357
			l-0.506,1.022c-0.234,0.475-0.493,0.853-0.79,1.155l-3.82,3.877h-12.319L658.868,223.412z M629.183,226.505
			c-1.177,1.189-2.737,1.845-4.397,1.845c-1.664,0-3.229-0.658-4.404-1.851l-12.87-13.061c-1.176-1.193-1.823-2.78-1.823-4.468
			s0.647-3.275,1.823-4.468c1.178-1.193,2.742-1.851,4.405-1.851c1.662,0,3.227,0.657,4.402,1.851l12.871,13.059
			c1.177,1.193,1.824,2.78,1.824,4.468c0,1.685-0.647,3.27-1.819,4.463L629.183,226.505z M630.556,228.858l0.476-0.483
			c0.001-0.001,0.003-0.002,0.004-0.003s0.002-0.002,0.003-0.004l0.625-0.634l7.749,6.53h-2.725L630.556,228.858z M681.112,292.351
			h-74.709v-55.437h29.31l0.145,0.127H646.8l-0.151-0.127h34.464V292.351z M626.794,246.161v4.284c0,1.374,1.102,2.493,2.458,2.493
			h28.044c1.354,0,2.457-1.119,2.457-2.493v-4.284c0-1.375-1.103-2.494-2.457-2.494h-28.044
			C627.896,243.667,626.794,244.787,626.794,246.161z M629.404,246.317h27.737v3.972h-27.737V246.317z M608.234,211.212
			l15.188,15.412l1.846-1.875l-15.188-15.412L608.234,211.212z M614.122,205.237l-1.846,1.874l15.187,15.412l1.848-1.874
			L614.122,205.237z"/>
	</g>
</g>
</svg>
