<!DOCTYPE svg PUBLIC "-//W3C//DTD SVG 1.1//EN" "http://www.w3.org/Graphics/SVG/1.1/DTD/svg11.dtd" [
	<!ENTITY ns_flows "http://ns.adobe.com/Flows/1.0/">
]><svg xmlns="http://www.w3.org/2000/svg" width="160" height="120" viewBox="-17.511 -23.93 160 120" enable-background="new -17.511 -23.93 160 120"><path fill="#0076A4" d="M0 27.066v69.004h124.979v-69.004h-124.979zm1.538 6.074h39.97v6.669l-1.3-.31v4.919l1.3-.279v17.739l-1.3-.31v4.919l1.3-.28v7.438h-39.97v-40.505zm121.901 61.423h-121.901v-13.562h121.901v13.562zm0-15.069h-121.901v-4.343h121.901v4.343zm-80.393-17.25v-18.436l3.029-.652v-2.26l-3.029-.721v-7.035h33.459v40.505h-33.459v-7.768l3.029-.652v-2.26l-3.029-.721zm68.457-18.526v18.625l-2.612.622v2.26l2.612.563v7.857h-33.459v-40.505h33.459v7.134l-2.612.622v2.26l2.612.562zm11.936 29.927h-10.398v-7.526l1.717.369v-4.919l-1.717.408v-17.928l1.717.369v-4.919l-1.717.408v-6.767h10.398v40.505zm0-42.012h-121.901v-3.06h121.901v3.06zm-50.098 18.037h-3.798v3.723h3.798v-3.723zm11.259 0h-3.799v3.723h3.799v-3.723zm22.653 11.145h-26.452c-.424 0-.769.337-.769.753 0 .417.345.754.769.754h26.452c.425 0 .769-.337.769-.754-.001-.416-.344-.753-.769-.753zm0 3.257h-26.452c-.424 0-.769.337-.769.754 0 .416.345.753.769.753h26.452c.425 0 .769-.337.769-.753-.001-.417-.344-.754-.769-.754zm0 3.257h-26.452c-.424 0-.769.337-.769.754 0 .416.345.754.769.754h26.452c.425 0 .769-.338.769-.754-.001-.417-.344-.754-.769-.754zm-74.2-29.714h-24.498c-.425 0-.769.338-.769.754v29.714c0 .416.344.754.769.754h24.498c.425 0 .769-.338.769-.754v-29.714c0-.416-.344-.754-.769-.754zm-.769 29.714h-22.96v-28.206h22.96v28.206zm-2.324-26.301h-12.208v15.289h12.208v-15.289zm0 17.284h-18.312v6.647h18.312v-6.647zm32.23-31.967c4.23 0 7.673-3.442 7.673-7.673 0-3.746-2.7-6.874-6.256-7.541v-9.714c0-.782-.634-1.417-1.417-1.417s-1.418.635-1.418 1.417v11c0 .783.635 1.417 1.418 1.417 2.667 0 4.837 2.17 4.837 4.838s-2.17 4.838-4.837 4.838c-2.668 0-4.838-2.17-4.838-4.838 0-.782-.634-1.417-1.417-1.417s-1.417.635-1.417 1.417c0 4.23 3.442 7.673 7.672 7.673z"/></svg>