<!DOCTYPE svg PUBLIC "-//W3C//DTD SVG 1.1//EN" "http://www.w3.org/Graphics/SVG/1.1/DTD/svg11.dtd" [
	<!ENTITY ns_flows "http://ns.adobe.com/Flows/1.0/">
]><svg xmlns="http://www.w3.org/2000/svg" width="160" height="120" viewBox="0 -32.225 160 120" enable-background="new 0 -32.225 160 120"><path fill="#0076A4" d="M158.361 76.588c-1.692-1.808-17.668-9.114-20.831-10.552l-.132-6.639c.677-.357 2.032-1.242 2.962-2.976.737-1.377 1.142-2.689 1.496-3.848.222-.724.432-1.407.7-2.044.43-1.018.41-2.639.389-4.356-.018-1.448-.036-2.945.222-4.025.38-1.598 1.605-7.904.66-9.587-.92-1.634-7.631-3.897-11.967-4.035l-.28-.004c-3.515 0-6.594 2.048-8.843 3.543-.685.457-1.279.85-1.764 1.104-2.439 1.284-3.084 4.565-3.084 6.122 0 1.348.596 4.994.713 5.703-.127.637-.652 3.588.037 5.901.681 2.289 3.641 7.729 4.172 8.697v6.667c-.521.155-1.469.452-2.682.868-8.106-4.243-20.827-10.06-24.131-11.559l-.195-9.837c1.003-.527 3.011-1.838 4.388-4.406 1.092-2.039 1.69-3.984 2.216-5.701.329-1.07.64-2.084 1.038-3.024.636-1.509.606-3.912.575-6.457-.026-2.144-.052-4.362.328-5.961.563-2.366 2.379-11.711.979-14.203-1.361-2.42-11.304-5.772-17.728-5.976l-.415-.003c-5.206 0-9.768 3.032-13.1 5.249-1.014.677-1.895 1.259-2.611 1.637-3.614 1.902-4.568 6.764-4.568 9.068 0 1.997.881 7.399 1.056 8.448-.189.943-.968 5.317.055 8.742 1.008 3.393 5.393 11.453 6.18 12.885v9.876c-2.884.869-14.394 4.529-23.367 10.063-2.012 1.241-3.595 2.74-4.84 4.359-4.007-1.917-7.826-3.663-9.206-4.289l-.132-6.639c.677-.357 2.032-1.242 2.961-2.976.738-1.377 1.142-2.689 1.497-3.848.222-.724.432-1.407.7-2.044.429-1.018.41-2.639.388-4.356-.018-1.448-.035-2.945.222-4.025.38-1.598 1.606-7.904.661-9.587-.92-1.634-7.631-3.897-11.967-4.035l-.28-.004c-3.515 0-6.594 2.048-8.843 3.543-.685.457-1.279.85-1.762 1.104-2.44 1.284-3.085 4.565-3.085 6.122 0 1.348.595 4.994.713 5.703-.127.637-.653 3.588.038 5.901.68 2.289 3.64 7.729 4.171 8.697v6.667c-1.948.585-9.717 3.056-15.774 6.791-7.201 4.442-6.271 13.772-6.228 14.169l.06.554h159.83700000000002l.02-.6c.027-.873.243-8.601-1.619-10.587m-151.405-2.48c6.792-4.188 15.819-6.762 15.911-6.788l.458-.129v-7.914l-.077-.138c-.036-.063-3.452-6.257-4.148-8.594-.669-2.243.006-5.376.012-5.408l.025-.116-.02-.116c-.008-.042-.716-4.251-.716-5.612 0-1.508.643-4.091 2.416-5.023.543-.285 1.161-.695 1.875-1.172 2.114-1.406 5.011-3.33 8.139-3.33l.241.004c4.463.141 10.369 2.443 10.904 3.395.5.889-.021 5.484-.786 8.699-.292 1.227-.273 2.801-.254 4.323.019 1.517.038 3.083-.292 3.864-.292.694-.511 1.406-.742 2.16-.355 1.159-.723 2.356-1.406 3.629-1.024 1.911-2.695 2.581-2.708 2.586l-.413.156.162 8.256.361.163c2.803 1.269 6.161 2.826 9.358 4.354-4.037 6.066-3.821 13.341-3.691 15.174h-40.287c-.074-2.011.093-8.978 5.678-12.423m36.449 11.824c-.112-2.978.135-13.301 8.411-18.403 10.062-6.204 23.433-10.018 23.57-10.055l.677-.19v-11.725l-.114-.205c-.052-.093-5.113-9.268-6.145-12.73-.99-3.322.009-7.964.018-8.01l.038-.173-.029-.172c-.012-.063-1.061-6.297-1.061-8.314 0-2.233.953-6.06 3.579-7.441.805-.423 1.72-1.032 2.778-1.736 3.132-2.083 7.423-4.933 12.056-4.933l.358.006c6.613.207 15.359 3.62 16.154 5.029.739 1.315-.034 8.125-1.166 12.885-.433 1.818-.404 4.15-.378 6.407.028 2.245.058 4.565-.434 5.724-.433 1.028-.755 2.084-1.098 3.2-.526 1.717-1.072 3.49-2.083 5.375-1.516 2.831-3.992 3.824-4.013 3.83l-.613.232.243 12.23.533.241c11.395 5.157 29.004 13.533 30.799 15.45 1.581 1.687 2.008 8.806 1.923 13.479h-84.003zm115.329.599h-29.471c.06-2.331.181-12.568-2.405-15.329-.627-.668-2.572-1.845-5.213-3.268 1.2-.395 1.943-.606 1.97-.614l.457-.129v-7.914l-.076-.138c-.035-.063-3.452-6.257-4.147-8.594-.669-2.243.006-5.376.012-5.408l.025-.116-.02-.116c-.008-.042-.716-4.251-.716-5.612 0-1.508.643-4.091 2.416-5.023.543-.285 1.161-.695 1.875-1.172 2.114-1.406 5.011-3.33 8.139-3.33l.241.004c4.464.141 10.368 2.443 10.904 3.395.5.889-.021 5.484-.787 8.699-.292 1.227-.272 2.801-.255 4.323.02 1.517.039 3.083-.292 3.864-.291.694-.51 1.406-.741 2.16-.355 1.159-.724 2.356-1.406 3.629-1.023 1.911-2.694 2.581-2.708 2.586l-.414.156.163 8.256.36.163c7.691 3.482 19.578 9.135 20.791 10.429 1.067 1.138 1.355 5.945 1.298 9.099"/></svg>