<!DOCTYPE svg PUBLIC "-//W3C//DTD SVG 1.1//EN" "http://www.w3.org/Graphics/SVG/1.1/DTD/svg11.dtd" [
	<!ENTITY ns_flows "http://ns.adobe.com/Flows/1.0/">
]><svg xmlns="http://www.w3.org/2000/svg" width="160" height="120" viewBox="-36.003 -18.016 160 120" enable-background="new -36.003 -18.016 160 120"><path fill="#0076A4" d="M84.759 36.417h-17.623l2.304-2.309c.242-.243.468-.505.68-.79 1.063.241 2.151.363 3.249.363 3.908 0 7.581-1.523 10.342-4.288 3.556-3.563 5.024-8.638 3.928-13.575l-.7-3.154-8.079 8.14-2.13 2.087-2.848-.73-2.868-.804-.792-2.837-.74-2.89 10.206-10.229-3.148-.701c-1.05-.233-2.128-.353-3.204-.353-3.912 0-7.586 1.523-10.346 4.288-3.594 3.602-5.036 8.712-3.919 13.617-.284.212-.546.438-.788.68l-13.46 13.484h-1.058l-11.026-9.172c.433-1.114.666-2.308.666-3.539 0-2.606-1.013-5.058-2.853-6.901l-13.921-13.945c-1.84-1.843-4.286-2.859-6.889-2.859s-5.049 1.016-6.888 2.859-2.854 4.294-2.854 6.902c0 2.606 1.014 5.058 2.854 6.901l13.921 13.945c1.84 1.843 4.286 2.858 6.889 2.858 1.279 0 2.521-.248 3.671-.717l4.215 3.668h-27.936c-1.66 0-3.011 1.354-3.011 3.017v59.534c0 1.663 1.351 3.017 3.011 3.017h81.145c1.66 0 3.011-1.354 3.011-3.017v-59.533c0-1.663-1.351-3.017-3.011-3.017zm-23.978-10.984c.292-.293.664-.552 1.138-.79l1.36-.685-.477-1.449c-1.325-4.028-.297-8.386 2.685-11.372 1.806-1.809 4.128-2.917 6.639-3.188l-6.558 6.631 1.242 4.854 1.338 4.791 4.818 1.351 4.811 1.234 6.622-6.572c-.268 2.484-1.366 4.831-3.187 6.653-2.093 2.098-4.88 3.253-7.845 3.253-1.194 0-2.374-.189-3.506-.563l-1.448-.479-.683 1.366c-.236.472-.494.844-.788 1.139l-4.03 4.038h-12.326l10.195-10.212zm-32.489 2.922c-1.237 1.236-2.881 1.918-4.629 1.918-1.751 0-3.397-.684-4.636-1.924l-13.92-13.945c-1.238-1.24-1.92-2.89-1.92-4.644 0-1.755.682-3.403 1.92-4.645 1.237-1.24 2.884-1.924 4.635-1.924s3.397.684 4.635 1.924l13.922 13.946c1.238 1.24 1.92 2.889 1.92 4.644 0 1.751-.681 3.398-1.916 4.639l-.011.011zm1.879 2.634l.379-.38.002-.002.002-.002.561-.562 7.663 6.374h-2.37l-6.237-5.428zm54.068 67.457h-80.105v-58.492h80.105v58.492zm-55.745-41.38h30.336c1.66 0 3.012-1.354 3.012-3.017v-4.574c0-1.663-1.352-3.017-3.012-3.017h-30.336c-1.66 0-3.011 1.354-3.011 3.017v4.574c0 1.664 1.351 3.017 3.011 3.017zm.52-7.07h29.297v3.533h-29.297v-3.533zm-21.354-39.745c-.497-.498-1.305-.498-1.803 0-.498.499-.498 1.308 0 1.806l16.43 16.457c.248.25.575.375.901.375.325 0 .652-.125.901-.375.497-.498.497-1.307 0-1.806l-16.429-16.457zm20.801 12.078l-16.429-16.458c-.497-.498-1.305-.498-1.803 0s-.498 1.308 0 1.806l16.429 16.458c.248.249.575.374.901.374s.652-.125.901-.374c.499-.498.499-1.307.001-1.806z"/></svg>