<!DOCTYPE svg PUBLIC "-//W3C//DTD SVG 1.1//EN" "http://www.w3.org/Graphics/SVG/1.1/DTD/svg11.dtd" [
	<!ENTITY ns_flows "http://ns.adobe.com/Flows/1.0/">
]><svg xmlns="http://www.w3.org/2000/svg" width="160" height="120" viewBox="-35.508 -0.991 160 120" enable-background="new -35.508 -0.991 160 120"><path fill="#0076A4" d="M85.91 51.992h-82.836c-1.695 0-3.074 1.383-3.074 3.083v60.851c0 1.699 1.379 3.083 3.074 3.083h82.836c1.695 0 3.074-1.384 3.074-3.083v-60.851c0-1.7-1.379-3.083-3.074-3.083zm-.53 63.401h-81.775v-59.786h81.775v59.786zm-56.372-42.294h30.969c1.695 0 3.074-1.384 3.074-3.083v-4.677c0-1.699-1.379-3.082-3.074-3.082h-30.969c-1.695 0-3.073 1.383-3.073 3.082v4.677c0 1.699 1.378 3.083 3.073 3.083zm.531-7.227h29.907v3.61h-29.907v-3.61zm11.779-31.306h6.35v-14.294h13.537v-6.107h-13.537v-14.165h-6.35v14.165h-13.539v6.107h13.539v14.294z"/></svg>