<!DOCTYPE svg PUBLIC "-//W3C//DTD SVG 1.1//EN" "http://www.w3.org/Graphics/SVG/1.1/DTD/svg11.dtd" [
	<!ENTITY ns_flows "http://ns.adobe.com/Flows/1.0/">
]><svg xmlns="http://www.w3.org/2000/svg" width="160" height="120" viewBox="-38.505 -39.01 160 120" enable-background="new -38.505 -39.01 160 120"><path fill-rule="evenodd" clip-rule="evenodd" fill="#0076A4" d="M62.993 4.999v-4.999h-3v4.999h-36.996v-4.999h-2.999v4.999h-19.998v75.991h82.989v-75.991h-19.996zm0 8.999v-2.488c.604.457 1 1.174 1 1.988 0 1.379-1.121 2.501-2.5 2.501s-2.5-1.122-2.5-2.501c0-.814.396-1.531 1-1.988v2.488h3zm-39.996 0v-2.489c.604.457 1.001 1.175 1.001 1.989 0 1.379-1.122 2.501-2.5 2.501-1.38 0-2.502-1.122-2.502-2.501 0-.814.397-1.532 1.002-1.989v2.489h2.999zm56.994 63.992h-76.991v-51.993h76.991v51.993zm0-54.993h-76.991v-14.998h16.998v2.351c-1.178.563-2 1.757-2 3.148 0 1.93 1.569 3.5 3.5 3.5 1.929 0 3.499-1.57 3.499-3.5 0-1.391-.822-2.585-2-3.148v-2.351h36.996v2.351c-1.178.563-2 1.757-2 3.148 0 1.93 1.57 3.5 3.5 3.5s3.5-1.57 3.5-3.5c0-1.391-.822-2.584-2-3.148v-2.351h16.998v14.998zm-10.496 24.985c4.129 0 7.488-3.359 7.488-7.489 0-4.129-3.359-7.488-7.488-7.488-2.867 0-5.359 1.62-6.618 3.99h-5.884v6.999h5.885c1.259 2.369 3.75 3.988 6.617 3.988zm-5.502-9.193c.729-2.346 2.92-4.054 5.502-4.054 3.174 0 5.758 2.583 5.758 5.758s-2.584 5.759-5.758 5.759c-2.582 0-4.773-1.709-5.502-4.055v-3.408zm-44.995-1.794h-7v6.999h7v-6.999zm8.998 0h-6.999v6.999h6.999v-6.999zm9 0h-7v6.999h7v-6.999zm8.999 0h-7v6.999h7v-6.999zm8.998 0h-6.998v6.999h6.998v-6.999zm17.998 0h-6.998v6.999h6.998v-6.999zm-53.993 11.999h-7v6.999h7v-6.999zm8.998 0h-6.999v6.999h6.999v-6.999zm9 0h-7v6.999h7v-6.999zm8.999 0h-7v6.999h7v-6.999zm8.998 0h-6.998v6.999h6.998v-6.999zm9 0h-7v6.999h7v-6.999zm2 6.999h6.998v-6.999h-6.998v6.999zm-46.995 4.999h-7v6.999h7v-6.999zm8.998 0h-6.999v6.999h6.999v-6.999zm9 0h-7v6.999h7v-6.999zm8.999 0h-7v6.999h7v-6.999zm8.998 0h-6.998v6.999h6.998v-6.999z"/></svg>