<!DOCTYPE svg PUBLIC "-//W3C//DTD SVG 1.1//EN" "http://www.w3.org/Graphics/SVG/1.1/DTD/svg11.dtd" [
	<!ENTITY ns_flows "http://ns.adobe.com/Flows/1.0/">
]><svg xmlns="http://www.w3.org/2000/svg" width="160" height="120" viewBox="-21.017 -45.025 160 120" enable-background="new -21.017 -45.025 160 120"><path fill="#0076A4" d="M29.053 39.592c.291-.413.365-.883.223-1.409-.148-.552-.448-.934-.9-1.146s-.959-.244-1.517-.096l-8.523 2.273c-.555.148-.976.429-1.265.844-.288.415-.358.894-.212 1.438.144.534.444.906.903 1.116.458.208.962.239 1.512.093l2.325-.62 3.121 11.595c.164.609.48 1.075.949 1.397.469.321 1.005.401 1.608.24.617-.164 1.044-.499 1.28-1.004.236-.506.272-1.067.106-1.686l-3.122-11.596 2.256-.602c.547-.143.966-.424 1.256-.837zm11.88-3.168c.287-.412.36-.882.218-1.408-.148-.552-.447-.935-.895-1.148-.449-.214-.957-.245-1.523-.094l-5.58 1.488c-.751.2-1.277.566-1.583 1.1-.306.532-.359 1.168-.16 1.906l3.299 12.255c.202.751.567 1.277 1.095 1.581.528.304 1.17.354 1.924.153l5.58-1.488c.555-.147.976-.428 1.262-.84.287-.411.359-.883.216-1.414-.149-.556-.448-.938-.895-1.148-.448-.209-.955-.238-1.521-.087l-4.043 1.078-.887-3.291 3.657-.976c.541-.144.959-.424 1.255-.837.294-.415.37-.886.229-1.412-.148-.552-.452-.933-.911-1.144-.458-.211-.963-.243-1.512-.097l-3.657.975-.87-3.234 4.043-1.078c.553-.148.972-.428 1.259-.84zm11.541 8.46c-.62.165-1.294.207-2.021.126l-1.492-.143c-.315-.044-.666-.016-1.049.086-.45.12-.795.406-1.035.857-.24.45-.301.899-.18 1.348.122.456.365.827.728 1.112.363.285.791.474 1.285.564 1.405.265 2.979.165 4.722-.299.954-.255 1.828-.644 2.622-1.167.796-.522 1.398-1.175 1.809-1.956.699-1.271.811-2.785.338-4.543-.388-1.439-1.167-2.408-2.336-2.908-1.171-.499-2.641-.75-4.41-.754l-1.125.001c-1.132.008-1.792-.337-1.979-1.033-.119-.443-.011-.842.328-1.193.338-.354.751-.595 1.239-.725.558-.149 1.176-.196 1.856-.143l.787.063c.182.01.386-.016.61-.075.52-.139.898-.439 1.136-.903.237-.463.284-.961.142-1.491-.163-.605-.563-1.014-1.2-1.227-.639-.212-1.342-.29-2.11-.234s-1.476.17-2.121.343c-1.075.286-2.03.777-2.867 1.472-.834.693-1.43 1.53-1.782 2.509s-.382 2.014-.088 3.104c.264.979.667 1.722 1.212 2.228.544.506 1.179.84 1.9 1.003.723.163 1.648.257 2.775.28.873.025 1.491.048 1.854.068.362.021.749.096 1.158.222.499.16.823.519.973 1.074.147.547.044 1.035-.31 1.466-.355.43-.81.719-1.369.868zm15.614-15.703c.29-.413.365-.883.224-1.409-.148-.552-.45-.934-.902-1.146s-.957-.245-1.516-.096l-8.525 2.273c-.555.148-.976.429-1.264.844-.287.414-.359.894-.213 1.438.145.534.446.906.903 1.115.459.209.962.24 1.513.094l2.325-.62 3.121 11.596c.164.609.48 1.075.949 1.397.469.321 1.005.401 1.608.24.617-.164 1.044-.499 1.28-1.005.237-.506.272-1.066.106-1.685l-3.121-11.596 2.256-.602c.547-.144.965-.425 1.256-.838zm11.881-3.169c.285-.412.358-.881.217-1.407-.148-.552-.447-.935-.896-1.148s-.955-.245-1.522-.094l-5.581 1.488c-.749.2-1.277.566-1.583 1.099-.306.533-.358 1.169-.16 1.907l3.299 12.255c.202.75.567 1.277 1.096 1.581.527.304 1.17.354 1.924.153l5.581-1.488c.554-.147.975-.428 1.261-.84s.358-.883.216-1.414c-.149-.556-.448-.938-.896-1.148s-.953-.238-1.521-.087l-4.044 1.078-.886-3.291 3.656-.976c.541-.144.96-.424 1.255-.838.294-.414.371-.885.229-1.411-.148-.552-.452-.933-.91-1.145-.46-.21-.964-.243-1.514-.096l-3.656.975-.871-3.234 4.044-1.078c.554-.148.975-.429 1.262-.841zm17.505-3.012c-.868-1.11-1.923-1.905-3.163-2.384-1.695-.658-3.652-.692-5.868-.102l-3.688.986c-.75.199-1.278.566-1.583 1.099-.306.532-.359 1.168-.16 1.906l3.285 12.205c.198.738.561 1.263 1.087 1.573.525.312 1.153.37 1.882.176l4.314-1.098c1.641-.438 2.972-1.184 3.992-2.238 1.02-1.055 1.676-2.312 1.972-3.772.294-1.462.224-3.001-.212-4.618-.37-1.378-.99-2.622-1.858-3.733zm-2.608 9.158c-.52.956-1.509 1.629-2.967 2.018l-1.944.519-2.743-10.189 1.507-.402c1.559-.415 2.82-.379 3.787.11 1.284.622 2.167 1.833 2.652 3.633.454 1.687.357 3.123-.292 4.311zm23.043 12.333l-11.409-42.385c-.407-1.514-1.976-2.415-3.496-2.009l-100.888 26.909c-1.521.405-2.426 1.967-2.019 3.479l11.41 42.385c.407 1.514 1.976 2.414 3.496 2.009l76.105-20.298c.893-.238 1.423-1.152 1.184-2.041s-1.157-1.416-2.05-1.178l-75.629 20.172-11.154-41.437 99.935-26.655 11.281 41.911c.239.889 1.157 1.416 2.05 1.178s1.423-1.152 1.184-2.04z"/></svg>