<!DOCTYPE svg PUBLIC "-//W3C//DTD SVG 1.1//EN" "http://www.w3.org/Graphics/SVG/1.1/DTD/svg11.dtd" [
	<!ENTITY ns_flows "http://ns.adobe.com/Flows/1.0/">
]><svg xmlns="http://www.w3.org/2000/svg" width="54" height="54" viewBox="0 0 54 54"><path fill-rule="evenodd" clip-rule="evenodd" fill="#fff" d="M40.878 25.203c-1.448-.948-18.422-12.02-19.271-12.568-1.06-.685-2.132.186-2.132 1.357v25.186c0 1.29 1.185 1.916 2.089 1.349 1.233-.772 18.271-11.901 19.314-12.596.935-.623.951-2.106 0-2.728zm-13.878-25.203c-14.888 0-27 12.112-27 27s12.112 27 27 27 27-12.112 27-27-12.112-27-27-27zm0 51.841c-13.697 0-24.84-11.145-24.84-24.841s11.143-24.84 24.84-24.84 24.84 11.143 24.84 24.84-11.143 24.841-24.84 24.841z"/></svg>